<svg width="20" height="20" viewBox="0 0 20 20" fill="none" xmlns="http://www.w3.org/2000/svg">
<g clip-path="url(#clip0_5_3733)">
<path d="M19.2678 7.55739L12.9469 1.23572C12.1646 0.455713 11.105 0.0177002 10.0003 0.0177002C8.89554 0.0177002 7.83589 0.455713 7.05359 1.23572L0.732754 7.55739C0.499775 7.78888 0.315062 8.0643 0.189323 8.36771C0.0635835 8.67111 -0.000681193 8.99646 0.000254207 9.32489V17.5057C0.000254207 18.1688 0.263646 18.8046 0.732487 19.2735C1.20133 19.7423 1.83721 20.0057 2.50025 20.0057H17.5003C18.1633 20.0057 18.7992 19.7423 19.268 19.2735C19.7369 18.8046 20.0003 18.1688 20.0003 17.5057V9.32489C20.0012 8.99646 19.9369 8.67111 19.8112 8.36771C19.6854 8.0643 19.5007 7.78888 19.2678 7.55739ZM12.5003 18.3391H7.50026V15.0607C7.50026 14.3977 7.76365 13.7618 8.23249 13.293C8.70133 12.8241 9.33721 12.5607 10.0003 12.5607C10.6633 12.5607 11.2992 12.8241 11.768 13.293C12.2369 13.7618 12.5003 14.3977 12.5003 15.0607V18.3391ZM18.3336 17.5057C18.3336 17.7267 18.2458 17.9387 18.0895 18.095C17.9332 18.2513 17.7213 18.3391 17.5003 18.3391H14.1669V15.0607C14.1669 13.9557 13.7279 12.8958 12.9465 12.1144C12.1651 11.333 11.1053 10.8941 10.0003 10.8941C8.89519 10.8941 7.83538 11.333 7.05398 12.1144C6.27258 12.8958 5.83359 13.9557 5.83359 15.0607V18.3391H2.50025C2.27924 18.3391 2.06728 18.2513 1.911 18.095C1.75472 17.9387 1.66692 17.7267 1.66692 17.5057V9.32489C1.66769 9.10404 1.75541 8.89238 1.91109 8.73572L8.23192 2.41656C8.70167 1.949 9.33748 1.68651 10.0003 1.68651C10.663 1.68651 11.2988 1.949 11.7686 2.41656L18.0894 8.73822C18.2445 8.89426 18.3322 9.10491 18.3336 9.32489V17.5057Z" fill="#131921"/>
</g>
<defs>
<clipPath id="clip0_5_3733">
<rect width="20" height="20" fill="white"/>
</clipPath>
</defs>
</svg>
