<svg width="20" height="20" viewBox="0 0 20 20" fill="none" xmlns="http://www.w3.org/2000/svg">
<g clip-path="url(#clip0_5_3763)">
<path d="M20 8.33353C20 8.27269 19.9933 8.21205 19.98 8.15269L18.8967 3.26269C18.6954 2.33456 18.1811 1.50384 17.4401 0.909843C16.6991 0.315843 15.7764 -0.00532492 14.8267 0.000191978H5.17334C4.22421 -0.00455827 3.30228 0.31696 2.56194 0.910897C1.82161 1.50483 1.30783 2.33512 1.10667 3.26269L0.0200011 8.15269C0.00667456 8.21205 -3.30499e-05 8.27269 1.14116e-06 8.33353V9.16686C-0.000671198 9.97819 0.295769 10.7617 0.833335 11.3694V15.8335C0.834658 16.9382 1.27407 17.9972 2.05518 18.7783C2.8363 19.5595 3.89534 19.9989 5 20.0002H15C16.1047 19.9989 17.1637 19.5595 17.9448 18.7783C18.7259 17.9972 19.1653 16.9382 19.1667 15.8335V11.3694C19.7042 10.7617 20.0007 9.97819 20 9.16686V8.33353ZM1.66667 8.42436L2.73333 3.62436C2.8542 3.0679 3.16252 2.56984 3.60668 2.21351C4.05084 1.85717 4.60391 1.66419 5.17334 1.66686H5.83334V4.16686C5.83334 4.38787 5.92113 4.59983 6.07741 4.75611C6.23369 4.9124 6.44565 5.00019 6.66667 5.00019C6.88768 5.00019 7.09964 4.9124 7.25592 4.75611C7.4122 4.59983 7.5 4.38787 7.5 4.16686V1.66686H12.5V4.16686C12.5 4.38787 12.5878 4.59983 12.7441 4.75611C12.9004 4.9124 13.1123 5.00019 13.3333 5.00019C13.5543 5.00019 13.7663 4.9124 13.9226 4.75611C14.0789 4.59983 14.1667 4.38787 14.1667 4.16686V1.66686H14.8267C15.3961 1.66419 15.9492 1.85717 16.3933 2.21351C16.8375 2.56984 17.1458 3.0679 17.2667 3.62436L18.3333 8.42436V9.16686C18.3333 9.60889 18.1577 10.0328 17.8452 10.3454C17.5326 10.6579 17.1087 10.8335 16.6667 10.8335H15.8333C15.3913 10.8335 14.9674 10.6579 14.6548 10.3454C14.3423 10.0328 14.1667 9.60889 14.1667 9.16686C14.1667 8.94585 14.0789 8.73388 13.9226 8.5776C13.7663 8.42132 13.5543 8.33353 13.3333 8.33353C13.1123 8.33353 12.9004 8.42132 12.7441 8.5776C12.5878 8.73388 12.5 8.94585 12.5 9.16686C12.5 9.60889 12.3244 10.0328 12.0118 10.3454C11.6993 10.6579 11.2754 10.8335 10.8333 10.8335H9.16667C8.72464 10.8335 8.30072 10.6579 7.98816 10.3454C7.6756 10.0328 7.5 9.60889 7.5 9.16686C7.5 8.94585 7.4122 8.73388 7.25592 8.5776C7.09964 8.42132 6.88768 8.33353 6.66667 8.33353C6.44565 8.33353 6.23369 8.42132 6.07741 8.5776C5.92113 8.73388 5.83334 8.94585 5.83334 9.16686C5.83334 9.60889 5.65774 10.0328 5.34518 10.3454C5.03262 10.6579 4.6087 10.8335 4.16667 10.8335H3.33333C2.89131 10.8335 2.46738 10.6579 2.15482 10.3454C1.84226 10.0328 1.66667 9.60889 1.66667 9.16686V8.42436ZM15 18.3335H5C4.33696 18.3335 3.70108 18.0701 3.23223 17.6013C2.76339 17.1325 2.5 16.4966 2.5 15.8335V12.3944C2.77217 12.4648 3.05219 12.5004 3.33333 12.5002H4.16667C4.63985 12.5004 5.10763 12.3997 5.53876 12.2047C5.96988 12.0097 6.35442 11.7249 6.66667 11.3694C6.97892 11.7249 7.36346 12.0097 7.79458 12.2047C8.22571 12.3997 8.69349 12.5004 9.16667 12.5002H10.8333C11.3065 12.5004 11.7743 12.3997 12.2054 12.2047C12.6365 12.0097 13.0211 11.7249 13.3333 11.3694C13.6456 11.7249 14.0301 12.0097 14.4612 12.2047C14.8924 12.3997 15.3602 12.5004 15.8333 12.5002H16.6667C16.9478 12.5004 17.2278 12.4648 17.5 12.3944V15.8335C17.5 16.4966 17.2366 17.1325 16.7678 17.6013C16.2989 18.0701 15.663 18.3335 15 18.3335Z" fill="#131921"/>
</g>
<defs>
<clipPath id="clip0_5_3763">
<rect width="20" height="20" fill="white"/>
</clipPath>
</defs>
</svg>
