<svg width="40" height="20" viewBox="0 0 40 20" fill="none" xmlns="http://www.w3.org/2000/svg">
<path d="M30.9331 18.6973C29.7131 18.6973 28.9908 18.0716 28.9454 17.1899H30.0904C30.0904 17.4639 30.2654 17.8719 31.0031 17.8833C31.4964 17.8833 31.7298 17.5939 31.7298 17.3756C31.6964 17.0306 31.2621 16.9999 30.7964 16.9266C30.3351 16.8543 29.9431 16.7676 29.6538 16.6266C29.2871 16.4386 29.0431 16.0306 29.0431 15.5693C29.0431 14.7879 29.7258 14.1616 30.8574 14.1616C31.9581 14.1616 32.6534 14.7433 32.7258 15.5949H31.6251C31.6094 15.3629 31.5664 15.0009 30.9134 15.0009C30.4781 15.0009 30.1908 15.0886 30.1614 15.3916C30.1614 15.8399 31.0728 15.8126 31.7831 15.9993C32.4638 16.1713 32.8998 16.5993 32.8998 17.1903C32.8998 18.2756 32.0151 18.6973 30.9331 18.6973ZM9.88576 11.4233L13.6981 9.23328L15.7114 12.7133H10.6224L9.88243 11.4233M17.3324 14.2016H18.4208V18.5933H17.3324V14.2016ZM8.14376 16.4199C8.14376 17.1019 8.72143 17.6653 9.40376 17.6653C10.0988 17.6653 10.6798 17.0986 10.6798 16.4199C10.6798 15.7413 10.0991 15.1593 9.40376 15.1593C9.07109 15.1644 8.75349 15.2989 8.51828 15.5343C8.28308 15.7696 8.14875 16.0873 8.14376 16.4199ZM9.37543 18.6976C8.12876 18.6976 7.1001 17.6653 7.1001 16.4199C7.1001 15.1593 8.12843 14.1583 9.37543 14.1583C9.85343 14.1583 10.3034 14.2889 10.6801 14.5503V14.2026H11.7534V18.5953H10.6801V18.2999C10.3134 18.5466 9.86676 18.6939 9.37543 18.6939" fill="#131921"/>
<path d="M24.0135 12.7101L18.7135 3.51006L22.5262 1.31006L29.1209 12.7167H24.0135M13.1729 16.4167C13.1729 17.0987 13.7515 17.6621 14.4489 17.6621C15.1295 17.6621 15.7089 17.0954 15.7089 16.4167C15.7089 15.7381 15.1302 15.1561 14.4489 15.1561C13.7489 15.1561 13.1729 15.7347 13.1729 16.4167ZM14.4202 18.6944C13.1579 18.6944 12.1309 17.6621 12.1309 16.4167C12.1309 15.1561 13.1575 14.1551 14.4202 14.1551C14.8982 14.1551 15.3342 14.2857 15.7085 14.5471V12.7071H16.7952V18.5927H15.7085V18.3001C15.3339 18.5467 14.8985 18.6944 14.4202 18.6944ZM14.3319 7.50573L18.1595 5.31906L22.4349 12.7101H18.4192V13.7987H17.3325V12.7101L14.3319 7.50573ZM24.9275 16.4201C24.9275 17.1021 25.5082 17.6654 26.1942 17.6654C26.5236 17.6629 26.8388 17.5309 27.0716 17.2979C27.3044 17.0648 27.4361 16.7495 27.4382 16.4201C27.4382 15.7381 26.8742 15.1594 26.1942 15.1594C25.5119 15.1594 24.9275 15.7381 24.9275 16.4201ZM26.1459 18.6977C25.5434 18.6931 24.967 18.4516 24.5411 18.0254C24.1153 17.5992 23.8743 17.0225 23.8702 16.4201C23.8702 15.1594 24.9035 14.1584 26.1459 14.1584C26.6239 14.1584 27.0725 14.2891 27.4342 14.5504V14.2027H28.5235V18.5954H27.4342V18.3001C27.0725 18.5467 26.6392 18.6941 26.1459 18.6941M19.9119 16.4187C19.9169 16.748 20.05 17.0623 20.2829 17.2951C20.5159 17.5279 20.8303 17.6608 21.1595 17.6657C21.8545 17.6657 22.4349 17.1017 22.4349 16.4191C22.4349 15.7384 21.8549 15.1601 21.1595 15.1601C20.4929 15.1601 19.9119 15.7381 19.9119 16.4187ZM22.4352 12.7107H23.5079V18.5941H22.4352V18.3047C22.0739 18.5504 21.6245 18.6981 21.1299 18.6981C19.8832 18.6981 18.8542 17.6664 18.8542 16.4194C18.8542 15.1604 19.8832 14.1594 21.1299 14.1594C21.6245 14.1594 22.0582 14.2927 22.4352 14.5514V12.7107Z" fill="#131921"/>
</svg>
