<svg width="45" height="40" viewBox="0 0 45 40" fill="none" xmlns="http://www.w3.org/2000/svg">
<path d="M44.279 10.1916C43.5543 9.20875 42.3688 8.64407 41.0279 8.64407H12.4397C11.8925 8.64407 11.374 8.74274 10.8993 8.92055L10.107 6.1968C9.99862 5.82653 9.77225 5.50023 9.46188 5.26967L2.82377 0.346798C2.03986 -0.232536 0.931014 -0.0703621 0.348163 0.71413C-0.233711 1.4996 -0.0694835 2.60746 0.715597 3.19071L6.8749 7.75699L7.79529 10.9223L12.5435 26.7666C12.4341 26.8506 12.3334 26.9366 12.2428 27.0186C11.2838 27.8969 10.7336 29.1337 10.7336 30.4145C10.7336 32.8042 12.6254 35.2231 16.2403 35.2231H16.6076C16.5428 35.4712 16.4972 35.7282 16.4972 35.9968C16.4972 37.6625 17.8192 39.0137 19.4492 39.0137C21.0793 39.0137 22.3996 37.6625 22.3996 35.9968C22.3996 35.7272 22.354 35.4712 22.2892 35.2231L30.9749 35.2221C30.9099 35.4712 30.8642 35.7272 30.8642 35.9968C30.8642 37.6625 32.186 39.0137 33.8163 39.0137C35.4463 39.0137 36.7672 37.6625 36.7672 35.9968C36.7672 35.7272 36.7213 35.4712 36.6564 35.2221H36.8426C37.8201 35.2221 38.612 34.4298 38.612 33.4519C38.612 32.4749 37.8201 31.6826 36.8426 31.6826L16.2403 31.6846C14.7875 31.6846 14.2727 30.9997 14.2727 30.4145C14.2727 29.8284 14.7875 29.1445 16.2403 29.1445C19.0783 29.1445 26.5153 29.1494 26.5153 29.1494V29.1445H35.7869C38.172 29.1445 40.593 27.3586 41.2974 25.0794L44.7968 13.7545C45.1931 12.4728 45.0042 11.1744 44.279 10.1916Z" fill="#FD9800"/>
<path d="M22.2837 14.1687C22.2837 15.1388 21.4964 15.9263 20.5258 15.9263C19.554 15.9263 18.7666 15.1388 18.7666 14.1687C18.7666 13.1976 19.554 12.4102 20.5258 12.4102C21.4964 12.4102 22.2837 13.1976 22.2837 14.1687Z" fill="black"/>
<path d="M34.706 16.0972C34.4981 16.0972 34.2884 16.0346 34.1064 15.9047C33.4319 15.4221 32.5851 15.9223 32.5494 15.9428C32.0644 16.2349 31.4302 16.0864 31.1336 15.6048C30.8363 15.1231 30.9769 14.495 31.455 14.1931C32.2067 13.7183 33.8627 13.1907 35.3079 14.2263C35.7717 14.5575 35.8782 15.2033 35.5464 15.6663C35.3447 15.9477 35.028 16.0972 34.706 16.0972Z" fill="black"/>
<path d="M26.7369 25.8951C24.79 25.8951 22.9704 25.1839 21.6138 23.8914C20.0932 22.4416 19.2891 20.3998 19.2891 17.9867C19.2891 17.4162 19.7511 16.9541 20.3213 16.9541C20.8915 16.9541 21.3535 17.4162 21.3535 17.9867C21.3535 22.002 24.1443 23.8308 26.7369 23.8308C29.3296 23.8308 32.1203 22.002 32.1203 17.9867C32.1203 17.4162 32.5823 16.9541 33.1526 16.9541C33.7228 16.9541 34.1848 17.4162 34.1848 17.9867C34.1848 23.1782 30.4379 25.8951 26.7369 25.8951Z" fill="black"/>
</svg>
