<svg width="40" height="40" viewBox="0 0 40 40" fill="none" xmlns="http://www.w3.org/2000/svg">
<rect width="40" height="40" rx="8" fill="#59BD56"/>
<g clip-path="url(#clip0_5_5483)">
<path d="M20.8335 10.8334C20.8335 10.6124 20.9213 10.4005 21.0775 10.2442C21.2338 10.0879 21.4458 10.0001 21.6668 10.0001C23.8762 10.0025 25.9944 10.8813 27.5567 12.4436C29.1189 14.0058 29.9977 16.1241 30.0001 18.3334C30.0001 18.5545 29.9123 18.7664 29.756 18.9227C29.5998 19.079 29.3878 19.1668 29.1668 19.1668C28.9458 19.1668 28.7338 19.079 28.5775 18.9227C28.4213 18.7664 28.3335 18.5545 28.3335 18.3334C28.3315 16.5659 27.6285 14.8714 26.3786 13.6216C25.1288 12.3718 23.4343 11.6688 21.6668 11.6668C21.4458 11.6668 21.2338 11.579 21.0775 11.4227C20.9213 11.2664 20.8335 11.0545 20.8335 10.8334ZM21.6668 15.0001C22.5509 15.0001 23.3987 15.3513 24.0238 15.9764C24.6489 16.6015 25.0001 17.4494 25.0001 18.3334C25.0001 18.5545 25.0879 18.7664 25.2442 18.9227C25.4005 19.079 25.6125 19.1668 25.8335 19.1668C26.0545 19.1668 26.2664 19.079 26.4227 18.9227C26.579 18.7664 26.6668 18.5545 26.6668 18.3334C26.6655 17.0078 26.1383 15.7368 25.2009 14.7994C24.2635 13.862 22.9925 13.3348 21.6668 13.3334C21.4458 13.3334 21.2338 13.4212 21.0775 13.5775C20.9213 13.7338 20.8335 13.9458 20.8335 14.1668C20.8335 14.3878 20.9213 14.5998 21.0775 14.756C21.2338 14.9123 21.4458 15.0001 21.6668 15.0001ZM29.2443 23.9493C29.7272 24.4335 29.9984 25.0895 29.9984 25.7734C29.9984 26.4573 29.7272 27.1133 29.2443 27.5976L28.486 28.4718C21.661 35.0059 5.05266 18.4018 11.486 11.5551L12.4443 10.7218C12.9291 10.2523 13.5793 9.99265 14.2541 9.99889C14.9289 10.0051 15.5741 10.2768 16.0501 10.7551C16.076 10.7809 17.6201 12.7868 17.6201 12.7868C18.0783 13.2681 18.3334 13.9076 18.3323 14.5721C18.3312 15.2367 18.0741 15.8753 17.6143 16.3551L16.6493 17.5684C17.1833 18.866 17.9685 20.0453 18.9597 21.0385C19.9509 22.0317 21.1286 22.8193 22.4251 23.3559L23.646 22.3851C24.1259 21.9257 24.7644 21.6689 25.4287 21.6679C26.0931 21.667 26.7323 21.9221 27.2135 22.3801C27.2135 22.3801 29.2185 23.9234 29.2443 23.9493ZM28.0976 25.1609C28.0976 25.1609 26.1035 23.6268 26.0776 23.6009C25.906 23.4307 25.674 23.3352 25.4322 23.3352C25.1905 23.3352 24.9585 23.4307 24.7868 23.6009C24.7643 23.6243 23.0835 24.9634 23.0835 24.9634C22.9702 25.0536 22.8354 25.1127 22.6923 25.1349C22.5493 25.1571 22.4029 25.1417 22.2676 25.0901C20.588 24.4648 19.0624 23.4857 17.7942 22.2193C16.5259 20.953 15.5446 19.4288 14.9168 17.7501C14.8611 17.613 14.843 17.4635 14.8642 17.3171C14.8855 17.1706 14.9453 17.0324 15.0376 16.9168C15.0376 16.9168 16.3768 15.2351 16.3993 15.2134C16.5695 15.0418 16.665 14.8098 16.665 14.568C16.665 14.3263 16.5695 14.0943 16.3993 13.9226C16.3735 13.8976 14.8393 11.9018 14.8393 11.9018C14.6651 11.7455 14.4376 11.6619 14.2037 11.6679C13.9697 11.6739 13.7469 11.7692 13.581 11.9343L12.6226 12.7676C7.92099 18.4209 22.3135 32.0151 27.2676 27.3334L28.0268 26.4584C28.2047 26.2937 28.3115 26.0662 28.3248 25.824C28.338 25.5819 28.2565 25.3441 28.0976 25.1609Z" fill="white"/>
</g>
<defs>
<clipPath id="clip0_5_5483">
<rect width="20" height="20" fill="white" transform="translate(10 10)"/>
</clipPath>
</defs>
</svg>
