<svg width="25" height="24" viewBox="0 0 25 24" fill="none" xmlns="http://www.w3.org/2000/svg">
<g clip-path="url(#clip0_34_766)">
<path d="M20 0H14.329C13.661 0 13.033 0.26 12.561 0.732L10.733 2.56C10.449 2.843 10.073 2.999 9.672 2.999H7.501V2.499C7.501 2.223 7.277 1.999 7.001 1.999H6.001C5.725 1.999 5.501 2.223 5.501 2.499V2.999H5.001C2.519 3 0.5 5.019 0.5 7.5V19.5C0.5 21.981 2.519 24 5 24H20C22.481 24 24.5 21.981 24.5 19.5V4.5C24.5 2.019 22.481 0 20 0ZM5 4H9.671C10.339 4 10.967 3.74 11.439 3.268L13.267 1.44C13.551 1.157 13.927 1.001 14.328 1.001H19.999C21.929 1.001 23.499 2.571 23.499 4.501V13.001H17.976C17.722 10.202 15.363 8.001 12.499 8.001C9.635 8.001 7.275 10.202 7.022 13.001H1.5V7.501C1.5 5.571 3.07 4 5 4ZM17 13.5C17 15.981 14.981 18 12.5 18C10.019 18 8 15.981 8 13.5C8 11.019 10.019 9 12.5 9C14.981 9 17 11.019 17 13.5ZM20 23H5C3.07 23 1.5 21.43 1.5 19.5V14H7.023C7.277 16.799 9.636 19 12.5 19C15.364 19 17.724 16.799 17.977 14H23.5V19.5C23.5 21.43 21.93 23 20 23Z" fill="#FD9800"/>
</g>
<defs>
<clipPath id="clip0_34_766">
<rect width="24" height="24" fill="white" transform="translate(0.5)"/>
</clipPath>
</defs>
</svg>
