<svg width="24" height="24" viewBox="0 0 24 24" fill="none" xmlns="http://www.w3.org/2000/svg">
<g clip-path="url(#clip0_50_125)">
<path d="M19.5 0H13.829C13.161 0 12.533 0.26 12.061 0.732L10.233 2.56C9.949 2.843 9.573 2.999 9.172 2.999H7.001V2.499C7.001 2.223 6.777 1.999 6.501 1.999H5.501C5.225 1.999 5.001 2.223 5.001 2.499V2.999H4.501C2.019 3 0 5.019 0 7.5V19.5C0 21.981 2.019 24 4.5 24H19.5C21.981 24 24 21.981 24 19.5V4.5C24 2.019 21.981 0 19.5 0ZM4.5 4H9.171C9.839 4 10.467 3.74 10.939 3.268L12.767 1.44C13.051 1.157 13.427 1.001 13.828 1.001H19.499C21.429 1.001 22.999 2.571 22.999 4.501V13.001H17.476C17.222 10.202 14.863 8.001 11.999 8.001C9.135 8.001 6.775 10.202 6.522 13.001H1V7.501C1 5.571 2.57 4 4.5 4ZM16.5 13.5C16.5 15.981 14.481 18 12 18C9.519 18 7.5 15.981 7.5 13.5C7.5 11.019 9.519 9 12 9C14.481 9 16.5 11.019 16.5 13.5ZM19.5 23H4.5C2.57 23 1 21.43 1 19.5V14H6.523C6.777 16.799 9.136 19 12 19C14.864 19 17.224 16.799 17.477 14H23V19.5C23 21.43 21.43 23 19.5 23Z" fill="black"/>
</g>
<defs>
<clipPath id="clip0_50_125">
<rect width="24" height="24" fill="white"/>
</clipPath>
</defs>
</svg>
