<svg width="24" height="24" viewBox="0 0 24 24" fill="none" xmlns="http://www.w3.org/2000/svg">
<g clip-path="url(#clip0_50_121)">
<path d="M1 15.5C1 16.33 1.67 17 2.5 17H11.5C11.78 17 12 17.22 12 17.5C12 17.78 11.78 18 11.5 18H2.5C1.12 18 0 16.88 0 15.5C0 14.29 0.86 13.28 2 13.05V4.5C2 2.02 4.02 0 6.5 0H17.5C19.98 0 22 2.02 22 4.5V6.5C22 6.78 21.78 7 21.5 7C21.22 7 21 6.78 21 6.5V4.5C21 2.57 19.43 1 17.5 1H6.5C4.57 1 3 2.57 3 4.5V13H8.5C8.63 13 8.76 13.05 8.85 13.15L9.7 14H11.49C11.77 14 11.99 14.22 11.99 14.5C11.99 14.78 11.77 15 11.49 15H9.49C9.36 15 9.23 14.95 9.14 14.85L8.29 14H2.5C1.67 14 1 14.67 1 15.5ZM24 12.5V20.5C24 22.43 22.43 24 20.5 24H17.5C15.57 24 14 22.43 14 20.5V12.5C14 10.57 15.57 9 17.5 9H20.5C22.43 9 24 10.57 24 12.5ZM23 12.5C23 11.12 21.88 10 20.5 10H17.5C16.12 10 15 11.12 15 12.5V20.5C15 21.88 16.12 23 17.5 23H20.5C21.88 23 23 21.88 23 20.5V12.5Z" fill="black"/>
</g>
<defs>
<clipPath id="clip0_50_121">
<rect width="24" height="24" fill="white"/>
</clipPath>
</defs>
</svg>
