<svg width="24" height="24" viewBox="0 0 24 24" fill="none" xmlns="http://www.w3.org/2000/svg">
<g clip-path="url(#clip0_50_152)">
<path d="M21.079 1.136C19.676 0.383 18.2 0 16.691 0H7.31C5.801 0 4.325 0.382 2.922 1.136C1.12 2.104 0 4.02 0 6.136V7.524C0 9.454 1.57 11.024 3.5 11.024H4V19.5C4 21.981 6.019 24 8.5 24H15.5C17.981 24 20 21.981 20 19.5V11H20.5C22.43 11 24 9.43 24 7.5V6.136C24 4.02 22.88 2.104 21.079 1.136ZM15.464 1C15.221 2.694 13.76 4 12 4C10.24 4 8.779 2.694 8.536 1H15.464ZM23 7.5C23 8.878 21.878 10 20.5 10H20V7C20 6.724 19.776 6.5 19.5 6.5C19.224 6.5 19 6.724 19 7V19.5C19 21.43 17.43 23 15.5 23H8.5C6.57 23 5 21.43 5 19.5V7C5 6.724 4.776 6.5 4.5 6.5C4.224 6.5 4 6.724 4 7V10.024H3.5C2.122 10.024 1 8.902 1 7.524V6.136C1 4.388 1.917 2.81 3.395 2.017C4.651 1.343 5.968 1 7.31 1H7.528C7.778 3.247 9.688 5 12 5C14.312 5 16.223 3.247 16.472 1H16.69C18.032 1 19.349 1.342 20.605 2.017C22.082 2.81 23 4.389 23 6.136V7.5Z" fill="black"/>
</g>
<defs>
<clipPath id="clip0_50_152">
<rect width="24" height="24" fill="white"/>
</clipPath>
</defs>
</svg>
