<svg width="24" height="24" viewBox="0 0 24 24" fill="none" xmlns="http://www.w3.org/2000/svg">
<path d="M22 9.05V6.5C22 3.467 19.533 1 16.5 1H7.5C4.467 1 2 3.467 2 6.5V9.05C0.86 9.282 0 10.292 0 11.5V16.5C0 18.057 0.795 19.432 2 20.24V22.5C2 22.776 2.224 23 2.5 23C2.776 23 3 22.776 3 22.5V20.743C3.469 20.909 3.974 21 4.5 21H19.5C20.026 21 20.531 20.909 21 20.743V22.5C21 22.776 21.224 23 21.5 23C21.776 23 22 22.776 22 22.5V20.24C23.205 19.432 24 18.057 24 16.5V11.5C24 10.293 23.14 9.283 22 9.05ZM7.5 2H16.5C18.981 2 21 4.019 21 6.5V9.05C19.86 9.282 19 10.292 19 11.5V15H5V11.5C5 10.293 4.14 9.283 3 9.05V6.5C3 4.019 5.019 2 7.5 2ZM23 16.5C23 18.43 21.43 20 19.5 20H4.5C2.57 20 1 18.43 1 16.5V11.5C1 10.673 1.673 10 2.5 10C3.327 10 4 10.673 4 11.5V15.5C4 15.776 4.224 16 4.5 16H19.5C19.776 16 20 15.776 20 15.5V11.5C20 10.673 20.673 10 21.5 10C22.327 10 23 10.673 23 11.5V16.5Z" fill="black"/>
</svg>
