<svg width="24" height="24" viewBox="0 0 24 24" fill="none" xmlns="http://www.w3.org/2000/svg">
<g clip-path="url(#clip0_50_183)">
<path d="M11 7.173V5H13.5C13.776 5 14 4.776 14 4.5C14 4.224 13.776 4 13.5 4H11V3.5C11 1.57 9.43 0 7.5 0C5.57 0 4 1.57 4 3.5V7.173C1.629 8.285 0 10.838 0 13.5V19.5C0 21.981 2.019 24 4.5 24H10.5C12.981 24 15 21.981 15 19.5V13.5C15 10.838 13.371 8.285 11 7.173ZM5 3.5C5 2.122 6.122 1 7.5 1C8.878 1 10 2.122 10 3.5V7H5V3.5ZM14 19.5C14 21.43 12.43 23 10.5 23H4.5C2.57 23 1 21.43 1 19.5V13.5C1 11.189 2.508 8.892 4.6 8H10.401C12.492 8.892 14.001 11.189 14.001 13.5V19.5H14ZM9.5 14H5.5C4.122 14 3 15.122 3 16.5C3 17.878 4.122 19 5.5 19H9.5C10.878 19 12 17.878 12 16.5C12 15.122 10.878 14 9.5 14ZM9.5 18H5.5C4.673 18 4 17.327 4 16.5C4 15.673 4.673 15 5.5 15H9.5C10.327 15 11 15.673 11 16.5C11 17.327 10.327 18 9.5 18ZM18 5C18 5.552 17.552 6 17 6C16.448 6 16 5.552 16 5C16 4.448 16.448 4 17 4C17.552 4 18 4.448 18 5ZM24 5C24 5.552 23.552 6 23 6C22.448 6 22 5.552 22 5C22 4.448 22.448 4 23 4C23.552 4 24 4.448 24 5ZM22 1C22 0.448 22.448 0 23 0C23.552 0 24 0.448 24 1C24 1.552 23.552 2 23 2C22.448 2 22 1.552 22 1ZM24 9C24 9.552 23.552 10 23 10C22.448 10 22 9.552 22 9C22 8.448 22.448 8 23 8C23.552 8 24 8.448 24 9ZM21 3C21 3.552 20.552 4 20 4C19.448 4 19 3.552 19 3C19 2.448 19.448 2 20 2C20.552 2 21 2.448 21 3ZM21 7C21 7.552 20.552 8 20 8C19.448 8 19 7.552 19 7C19 6.448 19.448 6 20 6C20.552 6 21 6.448 21 7Z" fill="black"/>
</g>
<defs>
<clipPath id="clip0_50_183">
<rect width="24" height="24" fill="white"/>
</clipPath>
</defs>
</svg>
