<svg width="24" height="24" viewBox="0 0 24 24" fill="none" xmlns="http://www.w3.org/2000/svg">
<g clip-path="url(#clip0_50_135)">
<path d="M22 19.051V10.649C23.178 10.085 24 8.891 24 7.5C24 7.454 21.98 0.363 21.98 0.363C21.918 0.148 21.723 0 21.5 0H2.5C2.276 0 2.081 0.148 2.02 0.363C2.02 0.363 0 7.454 0 7.5C0 8.891 0.822 10.085 2 10.649V19.051C0.86 19.283 0 20.293 0 21.5C0 22.878 1.121 24 2.5 24H21.5C22.879 24 24 22.878 24 21.5C24 20.293 23.14 19.283 22 19.051ZM1.001 7.567L2.877 1H7V3.5C7 3.776 7.224 4 7.5 4C7.776 4 8 3.776 8 3.5V1H16V3.5C16 3.776 16.224 4 16.5 4C16.776 4 17 3.776 17 3.5V1H21.123L22.999 7.567C22.964 8.915 21.856 10 20.5 10H19.5C18.121 10 17 8.878 17 7.5C17 7.224 16.776 7 16.5 7C16.224 7 16 7.224 16 7.5C16 8.878 14.879 10 13.5 10H10.5C9.121 10 8 8.878 8 7.5C8 7.224 7.776 7 7.5 7C7.224 7 7 7.224 7 7.5C7 8.878 5.879 10 4.5 10H3.5C2.144 10 1.036 8.915 1.001 7.567ZM3.5 11H4.5C5.78 11 6.89 10.302 7.5 9.274C8.11 10.302 9.22 11 10.5 11H13.5C14.78 11 15.89 10.302 16.5 9.274C17.11 10.302 18.22 11 19.5 11H20.5C20.671 11 20.835 10.973 21 10.949V19H15.5C15.367 19 15.24 19.053 15.146 19.146L14.292 20H9.706L8.852 19.146C8.758 19.052 8.631 19 8.498 19H3V10.949C3.165 10.973 3.329 11 3.5 11ZM21.5 23H2.5C1.673 23 1 22.327 1 21.5C1 20.673 1.673 20 2.5 20H8.293L9.147 20.854C9.241 20.948 9.368 21 9.501 21H14.501C14.634 21 14.761 20.947 14.855 20.854L15.709 20H21.502C22.329 20 23.002 20.673 23.002 21.5C23.002 22.327 22.329 23 21.502 23H21.5Z" fill="black"/>
</g>
<defs>
<clipPath id="clip0_50_135">
<rect width="24" height="24" fill="white"/>
</clipPath>
</defs>
</svg>
