<svg width="45" height="45" viewBox="0 0 45 45" fill="none" xmlns="http://www.w3.org/2000/svg">
<path d="M32.5635 19.6183V10.1415C32.5635 9.7273 32.2277 9.39148 31.8135 9.39148C29.7458 9.39148 28.0635 7.70947 28.0635 5.64221C28.0635 5.22803 27.7277 4.89221 27.3135 4.89221H9.74927C9.33508 4.89221 8.99927 5.22803 8.99927 5.64221C8.99927 7.70947 7.31726 9.39148 5.25 9.39148C4.83582 9.39148 4.5 9.7273 4.5 10.1415V24.0311C4.5 31.7692 17.6646 37.7556 18.2252 38.0065C18.3226 38.0501 18.427 38.072 18.5317 38.072C18.6361 38.072 18.7401 38.0504 18.8375 38.0068C18.899 37.9793 20.2431 37.374 22.08 36.3182C23.9886 38.6311 26.8761 40.1078 30.1022 40.1078C35.8356 40.1078 40.5 35.4434 40.5 29.7096C40.5 24.8254 37.1107 20.7283 32.5635 19.6183ZM18.5328 36.4944C16.5839 35.5628 6 30.2153 6 24.0311V10.838C8.29541 10.5084 10.1162 8.68762 10.4458 6.39221H26.6169C26.9469 8.68762 28.7677 10.5084 31.0635 10.838V19.3605C30.7465 19.3312 30.4266 19.3118 30.1022 19.3118C24.3684 19.3118 19.704 23.9762 19.704 29.7096C19.704 31.6781 20.2638 33.5138 21.2178 35.0847C19.9996 35.7793 19.0084 36.2686 18.5328 36.4944ZM30.1022 38.6078C25.1957 38.6078 21.204 34.6161 21.204 29.7096C21.204 24.8035 25.1957 20.8118 30.1022 20.8118C35.0083 20.8118 39 24.8035 39 29.7096C39 34.6161 35.0083 38.6078 30.1022 38.6078Z" fill="#FD9800"/>
<path d="M30.1019 25.9358C30.9354 25.9358 31.6136 26.614 31.6136 27.4479C31.6136 27.8621 31.9495 28.1979 32.3636 28.1979C32.7778 28.1979 33.1136 27.8621 33.1136 27.4479C33.1136 26.0475 32.1488 24.8775 30.8519 24.5418V24.0209C30.8519 23.6067 30.5161 23.2709 30.1019 23.2709C29.6877 23.2709 29.3519 23.6067 29.3519 24.0209V24.5418C28.055 24.8775 27.0898 26.0475 27.0898 27.4479C27.0898 29.1086 28.4412 30.4596 30.1019 30.4596C30.9354 30.4596 31.6136 31.1378 31.6136 31.9717C31.6136 32.8055 30.9354 33.4838 30.1019 33.4838C29.2681 33.4838 28.5898 32.8055 28.5898 31.9717C28.5898 31.5575 28.254 31.2217 27.8398 31.2217C27.4257 31.2217 27.0898 31.5575 27.0898 31.9717C27.0898 33.372 28.055 34.542 29.3519 34.8777V35.3983C29.3519 35.8125 29.6877 36.1483 30.1019 36.1483C30.5161 36.1483 30.8519 35.8125 30.8519 35.3983V34.8777C32.1488 34.542 33.1136 33.372 33.1136 31.9717C33.1136 30.3109 31.7627 28.9596 30.1019 28.9596C29.2681 28.9596 28.5898 28.2814 28.5898 27.4479C28.5898 26.614 29.2681 25.9358 30.1019 25.9358Z" fill="#FD9800"/>
<path d="M22.2471 17.1072C21.9541 16.8142 21.4795 16.8142 21.1865 17.1072L16.2083 22.0858L13.9941 19.8717C13.7012 19.5787 13.2266 19.5787 12.9336 19.8717C12.6406 20.1647 12.6406 20.6393 12.9336 20.9323L15.678 23.6766C15.8186 23.8173 16.0094 23.8964 16.2083 23.8964C16.4071 23.8964 16.5979 23.8173 16.7385 23.6766L22.2471 18.1677C22.54 17.8748 22.54 17.4001 22.2471 17.1072Z" fill="#FD9800"/>
</svg>
