<svg width="45" height="45" viewBox="0 0 45 45" fill="none" xmlns="http://www.w3.org/2000/svg">
<g clip-path="url(#clip0_5_2973)">
<path d="M38.6352 34.9574C37.8726 34.958 37.127 34.7324 36.4927 34.3091C35.8583 33.8859 35.3638 33.284 35.0716 32.5796C34.7794 31.8753 34.7026 31.1001 34.8511 30.3521C34.9995 29.6041 35.3664 28.9169 35.9055 28.3775C36.4445 27.8381 37.1314 27.4707 37.8792 27.3217C38.6271 27.1727 39.4024 27.2489 40.1069 27.5406C40.8115 27.8323 41.4137 28.3264 41.8375 28.9604C42.2612 29.5944 42.4873 30.3399 42.4873 31.1024C42.4868 32.1242 42.0809 33.104 41.3587 33.8268C40.6365 34.5496 39.6569 34.9562 38.6352 34.9574ZM38.6352 28.6537C38.1507 28.6531 37.677 28.7963 37.2739 29.065C36.8709 29.3337 36.5566 29.716 36.3708 30.1634C36.185 30.6108 36.1361 31.1032 36.2303 31.5784C36.3245 32.0536 36.5575 32.4902 36.8998 32.833C37.2422 33.1757 37.6785 33.4092 38.1536 33.5039C38.6287 33.5986 39.1212 33.5503 39.5688 33.3651C40.0164 33.1798 40.399 32.8659 40.6682 32.4632C40.9374 32.0604 41.0811 31.5869 41.0811 31.1024C41.0808 30.4535 40.8232 29.8313 40.3646 29.3722C39.906 28.9131 39.284 28.6547 38.6352 28.6537Z" fill="white"/>
<path d="M18.3207 34.9576C17.5581 34.9583 16.8124 34.7328 16.1779 34.3097C15.5435 33.8866 15.0488 33.2847 14.7564 32.5804C14.4641 31.8761 14.3872 31.1008 14.5355 30.3528C14.6839 29.6047 15.0507 28.9175 15.5897 28.378C16.1287 27.8385 16.8156 27.471 17.5635 27.3219C18.3114 27.1729 19.0867 27.249 19.7913 27.5406C20.4959 27.8323 21.0982 28.3264 21.522 28.9604C21.9457 29.5945 22.1719 30.34 22.1719 31.1026C22.1712 32.1241 21.7653 33.1036 21.0433 33.8263C20.3213 34.549 19.3422 34.9558 18.3207 34.9576ZM18.3207 28.6538C17.8362 28.6531 17.3624 28.7961 16.9592 29.0647C16.556 29.3333 16.2416 29.7155 16.0556 30.1629C15.8697 30.6102 15.8207 31.1027 15.9148 31.578C16.0088 32.0532 16.2417 32.4899 16.5841 32.8328C16.9264 33.1756 17.3627 33.4092 17.8378 33.504C18.3129 33.5988 18.8055 33.5505 19.2531 33.3653C19.7008 33.18 20.0835 32.8662 20.3527 32.4634C20.622 32.0606 20.7657 31.587 20.7657 31.1026C20.7652 30.4539 20.5075 29.8319 20.0492 29.3729C19.5909 28.9139 18.9693 28.6553 18.3207 28.6538Z" fill="white"/>
<path d="M43.7074 31.8057H41.7846C41.5981 31.8057 41.4192 31.7316 41.2874 31.5997C41.1555 31.4679 41.0814 31.289 41.0814 31.1025C41.0814 30.916 41.1555 30.7372 41.2874 30.6053C41.4192 30.4735 41.5981 30.3994 41.7846 30.3994H43.5086V26.671C43.5082 26.1669 43.3791 25.6712 43.1336 25.231L39.3274 18.4069C39.2948 18.3487 39.2474 18.3002 39.1899 18.2664C39.1324 18.2326 39.0669 18.2148 39.0002 18.2147H33.813V30.4022H35.4874C35.6738 30.4022 35.8527 30.4763 35.9845 30.6082C36.1164 30.74 36.1905 30.9189 36.1905 31.1053C36.1905 31.2918 36.1164 31.4707 35.9845 31.6025C35.8527 31.7344 35.6738 31.8085 35.4874 31.8085H33.1099C32.9234 31.8085 32.7445 31.7344 32.6127 31.6025C32.4808 31.4707 32.4067 31.2918 32.4067 31.1053V17.5116C32.4067 17.3251 32.4808 17.1463 32.6127 17.0144C32.7445 16.8826 32.9234 16.8085 33.1099 16.8085H39.0002C39.3174 16.8083 39.6289 16.8929 39.9025 17.0534C40.1761 17.2139 40.4018 17.4446 40.5564 17.7216L44.3617 24.5466C44.7235 25.1962 44.9136 25.9274 44.9139 26.671V30.5991C44.9134 30.9189 44.7861 31.2255 44.56 31.4517C44.3338 31.6779 44.0272 31.8052 43.7074 31.8057Z" fill="white"/>
<path d="M15.1717 31.8056H8.43018C8.2437 31.8056 8.06485 31.7315 7.93299 31.5996C7.80113 31.4678 7.72705 31.2889 7.72705 31.1024V25.6949C7.72705 25.5085 7.80113 25.3296 7.93299 25.1978C8.06485 25.0659 8.2437 24.9918 8.43018 24.9918C8.61666 24.9918 8.7955 25.0659 8.92736 25.1978C9.05922 25.3296 9.1333 25.5085 9.1333 25.6949V30.3993H15.1717C15.3582 30.3993 15.5371 30.4734 15.6689 30.6053C15.8008 30.7371 15.8749 30.916 15.8749 31.1024C15.8749 31.2889 15.8008 31.4678 15.6689 31.5996C15.5371 31.7315 15.3582 31.8056 15.1717 31.8056Z" fill="white"/>
<path d="M8.43018 23.2003C8.2437 23.2003 8.06485 23.1262 7.93299 22.9943C7.80113 22.8625 7.72705 22.6836 7.72705 22.4971V17.7759C7.72705 17.5894 7.80113 17.4106 7.93299 17.2787C8.06485 17.1468 8.2437 17.0728 8.43018 17.0728C8.61666 17.0728 8.7955 17.1468 8.92736 17.2787C9.05922 17.4106 9.1333 17.5894 9.1333 17.7759V22.4999C9.13256 22.6859 9.05815 22.8641 8.92637 22.9953C8.79459 23.1266 8.61617 23.2003 8.43018 23.2003Z" fill="white"/>
<path d="M33.1099 31.8056H21.4689C21.2824 31.8056 21.1036 31.7315 20.9717 31.5996C20.8399 31.4678 20.7658 31.2889 20.7658 31.1025C20.7658 30.916 20.8399 30.7371 20.9717 30.6053C21.1036 30.4734 21.2824 30.3993 21.4689 30.3993H32.4067V12.0046H9.1333V14.9006C9.1333 15.0871 9.05922 15.2659 8.92736 15.3978C8.7955 15.5296 8.61666 15.6037 8.43018 15.6037C8.2437 15.6037 8.06485 15.5296 7.93299 15.3978C7.80113 15.2659 7.72705 15.0871 7.72705 14.9006V11.8753C7.72755 11.5366 7.86236 11.212 8.10192 10.9726C8.34147 10.7332 8.6662 10.5986 9.00486 10.5984H32.5361C32.8746 10.5989 33.1991 10.7336 33.4385 10.9729C33.6778 11.2123 33.8125 11.5368 33.813 11.8753V31.1025C33.813 31.2889 33.7389 31.4678 33.607 31.5996C33.4752 31.7315 33.2963 31.8056 33.1099 31.8056Z" fill="white"/>
<path d="M11.2097 26.3981H2.28564C2.09916 26.3981 1.92032 26.324 1.78846 26.1921C1.6566 26.0603 1.58252 25.8814 1.58252 25.6949C1.58252 25.5085 1.6566 25.3296 1.78846 25.1978C1.92032 25.0659 2.09916 24.9918 2.28564 24.9918H11.2097C11.3962 24.9918 11.575 25.0659 11.7069 25.1978C11.8388 25.3296 11.9128 25.5085 11.9128 25.6949C11.9128 25.8814 11.8388 26.0603 11.7069 26.1921C11.575 26.324 11.3962 26.3981 11.2097 26.3981Z" fill="white"/>
<path d="M18.3205 23.2003H5.86768C5.6812 23.2003 5.50235 23.1262 5.37049 22.9944C5.23863 22.8625 5.16455 22.6837 5.16455 22.4972C5.16455 22.3107 5.23863 22.1319 5.37049 22C5.50235 21.8681 5.6812 21.7941 5.86768 21.7941H18.3205C18.507 21.7941 18.6858 21.8681 18.8177 22C18.9495 22.1319 19.0236 22.3107 19.0236 22.4972C19.0236 22.6837 18.9495 22.8625 18.8177 22.9944C18.6858 23.1262 18.507 23.2003 18.3205 23.2003Z" fill="white"/>
<path d="M5.48049 19.4878H0.617676C0.431196 19.4878 0.252353 19.4137 0.120491 19.2819C-0.0113702 19.15 -0.0854492 18.9711 -0.0854492 18.7847C-0.0854492 18.5982 -0.0113702 18.4193 0.120491 18.2875C0.252353 18.1556 0.431196 18.0815 0.617676 18.0815H5.48049C5.66697 18.0815 5.84581 18.1556 5.97767 18.2875C6.10954 18.4193 6.18361 18.5982 6.18361 18.7847C6.18361 18.9711 6.10954 19.15 5.97767 19.2819C5.84581 19.4137 5.66697 19.4878 5.48049 19.4878Z" fill="white"/>
<path d="M13.2776 15.6038H4.69385C4.50737 15.6038 4.32852 15.5297 4.19666 15.3978C4.0648 15.266 3.99072 15.0871 3.99072 14.9006C3.99072 14.7142 4.0648 14.5353 4.19666 14.4035C4.32852 14.2716 4.50737 14.1975 4.69385 14.1975H13.2776C13.4641 14.1975 13.6429 14.2716 13.7748 14.4035C13.9066 14.5353 13.9807 14.7142 13.9807 14.9006C13.9807 15.0871 13.9066 15.266 13.7748 15.3978C13.6429 15.5297 13.4641 15.6038 13.2776 15.6038Z" fill="white"/>
</g>
<defs>
<clipPath id="clip0_5_2973">
<rect width="45" height="45" fill="white"/>
</clipPath>
</defs>
</svg>
