<svg width="24" height="24" viewBox="0 0 24 24" fill="none" xmlns="http://www.w3.org/2000/svg">
<g clip-path="url(#clip0_35_1310)">
<path d="M11.6286 0H12.3724C15.9905 0.204027 18.5703 1.5779 20.4828 3.50333C22.3954 5.42875 23.8092 7.96823 23.9981 11.6017V12.3215C23.8144 16.0131 22.3757 18.4495 20.4828 20.4319C18.4944 22.3149 16.0501 23.7416 12.3604 23.9232H11.6286C8.01094 23.7187 5.43075 22.3454 3.51821 20.4199C1.60566 18.4945 0.191851 15.955 0.00292969 12.3215V11.6017C0.0123447 11.5991 0.0169488 11.5917 0.0149313 11.5777C0.195835 7.95809 1.61735 5.39223 3.51826 3.49133C5.42791 1.58157 8.03437 0.197871 11.6286 0ZM9.27706 1.71566C8.5642 1.90655 7.92491 2.14896 7.34547 2.4355C5.58176 3.30763 4.12729 4.55538 3.11031 6.15475C2.11769 7.71588 1.25823 9.72413 1.3827 12.3575C1.46117 14.0177 1.84 15.4142 2.43842 16.6047C3.62022 18.9552 5.41942 20.6871 7.90939 21.7397C9.14069 22.2602 10.6664 22.6253 12.3845 22.5435C14.0325 22.465 15.4605 22.0946 16.6437 21.4997C18.9624 20.3338 20.7898 18.5349 21.8027 16.0528C22.3149 14.7972 22.7023 13.3468 22.6185 11.5897C22.46 8.26113 21.1061 6.00421 19.3192 4.28312C18.4351 3.43152 17.3705 2.70713 16.1159 2.18357C14.8986 1.67557 13.3139 1.29891 11.6167 1.37972C10.7824 1.41945 9.99529 1.52332 9.27706 1.71566Z" fill="#131921"/>
<path d="M10.8961 8.85425C11.2762 9.10597 11.6651 9.34906 12.0239 9.62209C11.2132 10.1311 10.4185 10.6561 9.61242 11.1698C9.73482 11.2634 9.87398 11.3401 9.99632 11.4337C10.8091 10.9188 11.6222 10.4042 12.4319 9.88602C12.795 10.1108 13.1525 10.3412 13.4877 10.5939C12.6763 11.1064 11.8922 11.6459 11.0882 12.1655C11.2073 12.2624 11.3533 12.3323 11.484 12.4175C12.3151 11.9089 13.1254 11.3795 13.9435 10.8579V9.15418H15.7432V12.5495C16.251 12.5775 16.811 12.5535 17.3389 12.5614V14.1572H13.9435V12.5374C12.9459 13.1435 11.9236 13.8289 10.9201 14.4691C9.87511 13.7905 8.86796 13.0739 7.82476 12.3935C7.52254 13.3514 6.80478 14.072 5.61714 14.1572C4.87645 14.2102 4.03479 14.1176 3.18164 14.1572V9.15418C4.24823 9.22485 5.41942 9.01156 6.26501 9.27415C7.01268 9.50637 7.54277 10.1029 7.7887 10.8458C8.83268 10.1901 9.8599 9.5178 10.8961 8.85425ZM4.89725 10.7619V12.5615C5.32594 12.5636 5.652 12.5885 5.90502 12.3936C6.28146 12.1036 6.3573 11.3848 6.02498 11.0018C5.80321 10.7463 5.42878 10.6926 4.9092 10.7259C4.89533 10.7279 4.89621 10.7449 4.89725 10.7619ZM17.8067 9.15418H19.6063V12.5615H21.19V14.1572H17.7946V9.19019C17.7937 9.17317 17.7927 9.1562 17.8067 9.15418Z" fill="#131921"/>
</g>
<defs>
<clipPath id="clip0_35_1310">
<rect width="24" height="23.9232" fill="white"/>
</clipPath>
</defs>
</svg>
