<svg width="20" height="20" viewBox="0 0 20 20" fill="none" xmlns="http://www.w3.org/2000/svg">
<g clip-path="url(#clip0_5_3609)">
<path d="M11.6101 3.33333C12.2879 3.334 12.9379 3.60357 13.4172 4.08289C13.8965 4.56222 14.1661 5.21213 14.1667 5.89C14.1667 6.11101 14.2545 6.32298 14.4108 6.47926C14.5671 6.63554 14.7791 6.72333 15.0001 6.72333C15.2211 6.72333 15.4331 6.63554 15.5893 6.47926C15.7456 6.32298 15.8334 6.11101 15.8334 5.89V5.83333C15.8334 5.8175 15.8334 5.80333 15.8334 5.7875C15.8056 4.68561 15.3485 3.63815 14.5596 2.86838C13.7707 2.09861 12.7123 1.6674 11.6101 1.66667H10.8334V0.833333C10.8334 0.61232 10.7456 0.400358 10.5893 0.244078C10.4331 0.0877974 10.2211 0 10.0001 0C9.77907 0 9.56711 0.0877974 9.41083 0.244078C9.25455 0.400358 9.16675 0.61232 9.16675 0.833333V1.66667H8.39008C7.38785 1.66774 6.41866 2.02519 5.65574 2.67515C4.89283 3.3251 4.38592 4.22519 4.22563 5.21452C4.06533 6.20385 4.26209 7.21795 4.78074 8.07555C5.29939 8.93315 6.10613 9.57835 7.05675 9.89583L9.16675 10.6V16.6667H8.39008C7.71221 16.666 7.0623 16.3964 6.58298 15.9171C6.10365 15.4378 5.83408 14.7879 5.83341 14.11C5.83341 13.889 5.74562 13.677 5.58934 13.5207C5.43306 13.3645 5.2211 13.2767 5.00008 13.2767C4.77907 13.2767 4.56711 13.3645 4.41083 13.5207C4.25455 13.677 4.16675 13.889 4.16675 14.11V14.1667C4.16675 14.1825 4.16675 14.1967 4.16675 14.2125C4.19456 15.3144 4.65163 16.3618 5.44055 17.1316C6.22947 17.9014 7.28784 18.3326 8.39008 18.3333H9.16675V19.1667C9.16675 19.3877 9.25455 19.5996 9.41083 19.7559C9.56711 19.9122 9.77907 20 10.0001 20C10.2211 20 10.4331 19.9122 10.5893 19.7559C10.7456 19.5996 10.8334 19.3877 10.8334 19.1667V18.3333H11.6101C12.6123 18.3323 13.5815 17.9748 14.3444 17.3249C15.1073 16.6749 15.6142 15.7748 15.7745 14.7855C15.9348 13.7961 15.7381 12.7821 15.2194 11.9245C14.7008 11.0669 13.894 10.4216 12.9434 10.1042L10.8334 9.4V3.33333H11.6101ZM12.4184 11.6842C12.9946 11.8759 13.4837 12.2665 13.7982 12.786C14.1127 13.3055 14.2319 13.92 14.1347 14.5194C14.0374 15.1189 13.73 15.6641 13.2674 16.0575C12.8049 16.451 12.2173 16.6669 11.6101 16.6667H10.8334V11.1558L12.4184 11.6842ZM9.16675 8.84417L7.58342 8.31583C7.00736 8.12411 6.51834 7.73364 6.20386 7.21432C5.88938 6.695 5.76997 6.08071 5.867 5.4814C5.96403 4.88208 6.27116 4.33685 6.73344 3.94329C7.19572 3.54972 7.78296 3.3335 8.39008 3.33333H9.16675V8.84417Z" fill="#FD9800"/>
</g>
<defs>
<clipPath id="clip0_5_3609">
<rect width="20" height="20" fill="white"/>
</clipPath>
</defs>
</svg>
