<svg width="28" height="22" viewBox="0 0 28 22" fill="none" xmlns="http://www.w3.org/2000/svg">
<path d="M-1 0H6.78434V22H-1V0Z" fill="#F0F0F0"/>
<path d="M6.71143 0H32.9767V22H6.71143V0Z" fill="#0C590B"/>
<path d="M20.8421 16.1875C19.497 16.2041 18.1845 15.7732 17.111 14.9625C16.0375 14.1519 15.2639 13.0074 14.9117 11.7092C14.5595 10.4109 14.6488 9.03236 15.1654 7.79034C15.6821 6.54831 16.5969 5.51322 17.766 4.84777C16.8718 4.94935 16.0114 5.24859 15.2471 5.72379C14.4829 6.19899 13.8339 6.83826 13.3472 7.59527C12.8605 8.35228 12.5484 9.20808 12.4333 10.1006C12.3183 10.9932 12.4032 11.9002 12.682 12.7559C12.9608 13.6116 13.4265 14.3945 14.0453 15.048C14.664 15.7014 15.4204 16.2091 16.2596 16.5341C17.0989 16.8591 17.9999 16.9934 18.8974 16.9271C19.7949 16.8609 20.6664 16.5958 21.4488 16.1511C21.2473 16.1733 21.0448 16.1854 20.8421 16.1875Z" fill="white"/>
<path d="M21.3397 8.17871L22.5834 7.78434L22.1345 9.00993L22.8929 10.0717L21.5945 10.0292L20.8179 11.0728L20.4599 9.82295L19.2222 9.41037L20.3021 8.6823L20.3143 7.37783L21.3397 8.17871Z" fill="white"/>
</svg>
