<svg width="28" height="22" viewBox="0 0 28 22" fill="none" xmlns="http://www.w3.org/2000/svg">
<mask id="mask0_14_627" style="mask-type:alpha" maskUnits="userSpaceOnUse" x="0" y="0" width="28" height="22">
<rect width="28" height="21.2121" rx="6" fill="#D9D9D9"/>
</mask>
<g mask="url(#mask0_14_627)">
<path d="M0 0H33.9768V22H0V0Z" fill="#DE2910"/>
<path d="M7.09263 8.21511L4.65358 10.1142L5.70929 7.20794L3.14282 5.47876L6.23714 5.58191L7.09263 2.60893L7.94205 5.58191L11.0364 5.47876L8.4699 7.20794L9.53168 10.1142L7.09263 8.21511Z" fill="#FFDE00"/>
<path d="M12.0619 3.00938L11.1396 3.29454L11.7706 2.56646L11.2185 1.77165L12.1043 2.14782L12.6868 1.37727L12.6019 2.34197L13.518 2.65747L12.5776 2.8759L12.5594 3.84059L12.0619 3.00938Z" fill="#FFDE00"/>
<path d="M14.701 5.94594L13.7363 6.04909L14.4947 5.45449L14.1004 4.57474L14.9012 5.10866L15.6172 4.45946L15.3563 5.38775L16.1936 5.86707L15.2289 5.90347L15.0347 6.84997L14.701 5.94594Z" fill="#FFDE00"/>
<path d="M14.2823 9.53778L13.4814 9.00386L14.4461 9.02813L14.707 8.09983L14.9801 9.02813L15.9448 8.99172L15.1439 9.53778L15.4776 10.4418L14.7131 9.84721L13.9547 10.4479L14.2823 9.53778Z" fill="#FFDE00"/>
<path d="M11.8373 11.8858L11.0364 11.3458L12.0011 11.3762L12.262 10.4479L12.535 11.3762L13.4997 11.3337L12.6988 11.8798L13.0386 12.7838L12.2741 12.1953L11.5157 12.7959L11.8373 11.8858Z" fill="#FFDE00"/>
</g>
</svg>
