<svg width="28" height="22" viewBox="0 0 28 22" fill="none" xmlns="http://www.w3.org/2000/svg">
<mask id="mask0_15_867" style="mask-type:alpha" maskUnits="userSpaceOnUse" x="0" y="0" width="28" height="22">
<rect width="28" height="21.2121" rx="6" fill="#D9D9D9"/>
</mask>
<g mask="url(#mask0_15_867)">
<path d="M-3 -0.279999H31.3846V21.72H-3V-0.279999Z" fill="#CB000F"/>
<path d="M8.51272 11.3309C8.51096 10.2771 8.804 9.24387 9.35872 8.34789C9.91344 7.45192 10.7077 6.72897 11.6518 6.26077C12.5959 5.79257 13.6521 5.59777 14.7011 5.69841C15.75 5.79904 16.75 6.19109 17.5878 6.83024C16.6558 5.66912 15.3863 4.82596 13.9547 4.41718C12.523 4.0084 10.9997 4.05415 9.59513 4.54813C8.19056 5.0421 6.97399 5.95993 6.11337 7.1749C5.25275 8.38987 4.79053 9.84204 4.79053 11.3309C4.79053 12.8198 5.25275 14.272 6.11337 15.487C6.97399 16.702 8.19056 17.6198 9.59513 18.1138C10.9997 18.6077 12.523 18.6535 13.9547 18.2447C15.3863 17.8359 16.6558 16.9928 17.5878 15.8316C16.75 16.4708 15.75 16.8628 14.7011 16.9635C13.6521 17.0641 12.5959 16.8693 11.6518 16.4011C10.7077 15.9329 9.91344 15.21 9.35872 14.314C8.804 13.418 8.51096 12.3847 8.51272 11.3309Z" fill="white"/>
<path d="M19.0184 7.84336L20.7622 9.67311L23.0402 8.58017L21.8367 10.8029L23.5867 12.6326L21.0999 12.1783L19.8965 14.401L19.5588 11.8958L17.072 11.4415L19.35 10.3485L19.0184 7.84336Z" fill="white"/>
</g>
</svg>
