<svg width="28" height="22" viewBox="0 0 28 22" fill="none" xmlns="http://www.w3.org/2000/svg">
<mask id="mask0_14_699" style="mask-type:alpha" maskUnits="userSpaceOnUse" x="0" y="0" width="28" height="22">
<rect width="28" height="21.2121" rx="6" fill="#D9D9D9"/>
</mask>
<g mask="url(#mask0_14_699)">
<path d="M7.21729 -0.0400085H20.7595V21.96H7.21729V-0.0400085Z" fill="white"/>
<path d="M20.7595 -0.0400085H30.9768V21.96H20.7595V-0.0400085Z" fill="#BF0A30"/>
<path d="M-3 -0.0400085H7.21732V21.96H-3V-0.0400085Z" fill="#BF0A30"/>
<path d="M16.658 13.7631C16.6447 13.7302 16.6416 13.6941 16.6492 13.6594C16.6567 13.6248 16.6746 13.5932 16.7004 13.5689L19.3094 11.142L18.5206 10.778C18.4807 10.7583 18.4497 10.7241 18.4339 10.6825C18.4182 10.6408 18.4188 10.5947 18.4357 10.5535L19.1334 8.94565L17.5377 9.46744C17.5146 9.47477 17.4903 9.47725 17.4662 9.47472C17.4421 9.47219 17.4187 9.46471 17.3977 9.45275C17.3766 9.44079 17.3582 9.4246 17.3437 9.4052C17.3292 9.3858 17.3188 9.36362 17.3132 9.34002L17.1191 8.42993L15.9056 9.49171C15.878 9.51429 15.8442 9.52794 15.8087 9.53087C15.7731 9.53379 15.7375 9.52584 15.7066 9.50807C15.6757 9.49031 15.6509 9.46356 15.6355 9.43139C15.6201 9.39921 15.6149 9.36311 15.6205 9.32789L16.1058 6.70682L15.0865 7.14366C15.0453 7.16055 14.9992 7.16118 14.9576 7.14542C14.9159 7.12965 14.8818 7.09867 14.862 7.05872L13.9884 4.81383L13.1329 7.08906C13.1132 7.12901 13.079 7.15999 13.0374 7.17575C12.9957 7.19152 12.9496 7.19089 12.9084 7.174L11.8891 6.71289L12.3745 9.33396C12.3801 9.36918 12.3748 9.40527 12.3594 9.43745C12.3441 9.46963 12.3193 9.49638 12.2883 9.51414C12.2574 9.53191 12.2218 9.53986 12.1863 9.53693C12.1507 9.53401 12.1169 9.52035 12.0893 9.49777L10.8758 8.436L10.6817 9.34609C10.6761 9.36968 10.6658 9.39187 10.6512 9.41127C10.6367 9.43067 10.6183 9.44685 10.5973 9.45882C10.5762 9.47078 10.5529 9.47826 10.5288 9.48079C10.5047 9.48331 10.4803 9.48083 10.4572 9.4735L8.8615 8.95172L9.55924 10.5596C9.57613 10.6008 9.57675 10.6469 9.56099 10.6885C9.54522 10.7302 9.51424 10.7643 9.47429 10.784L8.68555 11.1481L11.2945 13.575C11.3203 13.5993 11.3382 13.6309 11.3458 13.6655C11.3533 13.7001 11.3503 13.7363 11.337 13.7691L11.0397 14.4972L13.8549 14.1393L13.7821 16.9545H14.2311L14.1582 14.1393L16.9735 14.4972L16.658 13.7631Z" fill="#BF0A30"/>
</g>
</svg>
