<svg width="28" height="22" viewBox="0 0 28 22" fill="none" xmlns="http://www.w3.org/2000/svg">
<mask id="mask0_5_2369" style="mask-type:alpha" maskUnits="userSpaceOnUse" x="0" y="0" width="28" height="22">
<rect width="28" height="21.2121" rx="6" fill="#D9D9D9"/>
</mask>
<g mask="url(#mask0_5_2369)">
<path d="M0.0795898 18.1464V3.06587L1.81965 0.165771H10.5199L14 0.74579L17.4802 0.165771H26.1804L27.9205 3.06587V18.1464L26.1804 21.0465H17.4802L14 20.4664L10.5199 21.0465H1.81965L0.0795898 18.1464Z" fill="#0053B5"/>
<path d="M0.0795898 7.12598H27.9205V14.0862H0.0795898V7.12598Z" fill="white"/>
<path d="M0.0795898 8.28601H27.9205V12.9262H0.0795898V8.28601Z" fill="#D80027"/>
<path d="M10.52 0.165771H17.4802V21.0465H10.52V0.165771Z" fill="white"/>
<path d="M11.6802 0.165771H16.3203V21.0465H11.6802V0.165771Z" fill="#D80027"/>
<path d="M27.9203 0.165771H26.1803L17.48 5.96596V7.70602L22.1201 7.126L27.9203 3.06587V0.165771Z" fill="white"/>
<path d="M27.9203 0.165771L17.48 7.126H20.3801L27.9203 1.90583V0.165771Z" fill="#D80027"/>
<path d="M0.0795898 0.165771H1.81965L10.5199 5.96596V7.70602L5.87978 7.126L0.0795898 3.06587V0.165771Z" fill="white"/>
<path d="M0.0795898 0.165771L10.5199 7.126H7.61984L0.0795898 1.90583V0.165771Z" fill="#D80027"/>
<path d="M0.0795898 21.0465H1.81965L10.5199 15.2463V13.5062L5.87978 14.0862L0.0795898 18.1464V21.0465Z" fill="white"/>
<path d="M0.0795898 21.0464L10.5199 14.0862H7.61984L0.0795898 19.3064V21.0464Z" fill="#D80027"/>
<path d="M27.9203 21.0465H26.1803L17.48 15.2463V13.5062L22.1201 14.0862L27.9203 18.1464V21.0465Z" fill="white"/>
<path d="M27.9203 21.0464L17.48 14.0862H20.3801L27.9203 19.3064V21.0464Z" fill="#D80027"/>
</g>
</svg>
