<svg width="25" height="24" viewBox="0 0 25 24" fill="none" xmlns="http://www.w3.org/2000/svg">
<g clip-path="url(#clip0_34_771)">
<path d="M22.5 9.05V6.5C22.5 3.467 20.033 1 17 1H8C4.967 1 2.5 3.467 2.5 6.5V9.05C1.36 9.282 0.5 10.292 0.5 11.5V16.5C0.5 18.057 1.295 19.432 2.5 20.24V22.5C2.5 22.776 2.724 23 3 23C3.276 23 3.5 22.776 3.5 22.5V20.743C3.969 20.909 4.474 21 5 21H20C20.526 21 21.031 20.909 21.5 20.743V22.5C21.5 22.776 21.724 23 22 23C22.276 23 22.5 22.776 22.5 22.5V20.24C23.705 19.432 24.5 18.057 24.5 16.5V11.5C24.5 10.293 23.64 9.283 22.5 9.05ZM8 2H17C19.481 2 21.5 4.019 21.5 6.5V9.05C20.36 9.282 19.5 10.292 19.5 11.5V15H5.5V11.5C5.5 10.293 4.64 9.283 3.5 9.05V6.5C3.5 4.019 5.519 2 8 2ZM23.5 16.5C23.5 18.43 21.93 20 20 20H5C3.07 20 1.5 18.43 1.5 16.5V11.5C1.5 10.673 2.173 10 3 10C3.827 10 4.5 10.673 4.5 11.5V15.5C4.5 15.776 4.724 16 5 16H20C20.276 16 20.5 15.776 20.5 15.5V11.5C20.5 10.673 21.173 10 22 10C22.827 10 23.5 10.673 23.5 11.5V16.5Z" fill="#FD9800"/>
</g>
<defs>
<clipPath id="clip0_34_771">
<rect width="24" height="24" fill="white" transform="translate(0.5)"/>
</clipPath>
</defs>
</svg>
