<svg width="24" height="25" viewBox="0 0 24 25" fill="none" xmlns="http://www.w3.org/2000/svg">
<path d="M22.355 5.878C21.579 4.411 20.058 3.5 18.385 3.5H5.615C3.942 3.5 2.421 4.411 1.645 5.877C0.895 7.295 0 9.592 0 12.478C0 18.004 2.019 22.5 4.5 22.5C6.128 22.5 7.103 20.354 7.633 18.554C7.816 17.934 8.404 17.5 9.065 17.5H14.935C15.596 17.5 16.185 17.934 16.367 18.554C16.897 20.354 17.871 22.5 19.5 22.5C21.981 22.5 24 18.004 24 12.478C24 9.592 23.105 7.295 22.355 5.878ZM19.5 21.5C18.734 21.5 17.922 20.293 17.326 18.271C17.019 17.229 16.036 16.5 14.935 16.5H9.065C7.964 16.5 6.981 17.229 6.674 18.271C6.078 20.293 5.266 21.5 4.5 21.5C2.848 21.5 1 17.642 1 12.478C1 9.797 1.832 7.664 2.529 6.345C3.132 5.207 4.314 4.5 5.615 4.5H18.385C19.686 4.5 20.869 5.207 21.471 6.345C22.168 7.663 23 9.797 23 12.478C23 17.642 21.152 21.5 19.5 21.5ZM9 10C9 10.276 8.776 10.5 8.5 10.5H7V12C7 12.276 6.776 12.5 6.5 12.5C6.224 12.5 6 12.276 6 12V10.5H4.5C4.224 10.5 4 10.276 4 10C4 9.724 4.224 9.5 4.5 9.5H6V8C6 7.724 6.224 7.5 6.5 7.5C6.776 7.5 7 7.724 7 8V9.5H8.5C8.776 9.5 9 9.724 9 10ZM16 8.5C16 7.948 16.448 7.5 17 7.5C17.552 7.5 18 7.948 18 8.5C18 9.052 17.552 9.5 17 9.5C16.448 9.5 16 9.052 16 8.5ZM16 10.5C16 11.052 15.552 11.5 15 11.5C14.448 11.5 14 11.052 14 10.5C14 9.948 14.448 9.5 15 9.5C15.552 9.5 16 9.948 16 10.5ZM20 10.5C20 11.052 19.552 11.5 19 11.5C18.448 11.5 18 11.052 18 10.5C18 9.948 18.448 9.5 19 9.5C19.552 9.5 20 9.948 20 10.5ZM18 12.5C18 13.052 17.552 13.5 17 13.5C16.448 13.5 16 13.052 16 12.5C16 11.948 16.448 11.5 17 11.5C17.552 11.5 18 11.948 18 12.5Z" fill="#FD9800"/>
</svg>
