<svg width="22" height="22" viewBox="0 0 22 22" fill="none" xmlns="http://www.w3.org/2000/svg">
<path d="M7.16667 2.75H4.75C3.64543 2.75 2.75 3.64543 2.75 4.75V7.16667C2.75 8.27124 3.64543 9.16667 4.75 9.16667H7.16667C8.27124 9.16667 9.16667 8.27124 9.16667 7.16667V4.75C9.16667 3.64543 8.27124 2.75 7.16667 2.75Z" stroke="#FD9800" stroke-width="1.5" stroke-linecap="round" stroke-linejoin="round"/>
<path d="M17.25 2.75H14.8333C13.7288 2.75 12.8333 3.64543 12.8333 4.75V7.16667C12.8333 8.27124 13.7288 9.16667 14.8333 9.16667H17.25C18.3546 9.16667 19.25 8.27124 19.25 7.16667V4.75C19.25 3.64543 18.3546 2.75 17.25 2.75Z" stroke="#FD9800" stroke-width="1.5" stroke-linecap="round" stroke-linejoin="round"/>
<path d="M17.25 12.8334H14.8333C13.7288 12.8334 12.8333 13.7288 12.8333 14.8334V17.25C12.8333 18.3546 13.7288 19.25 14.8333 19.25H17.25C18.3546 19.25 19.25 18.3546 19.25 17.25V14.8334C19.25 13.7288 18.3546 12.8334 17.25 12.8334Z" stroke="#FD9800" stroke-width="1.5" stroke-linecap="round" stroke-linejoin="round"/>
<path d="M7.16667 12.8334H4.75C3.64543 12.8334 2.75 13.7288 2.75 14.8334V17.25C2.75 18.3546 3.64543 19.25 4.75 19.25H7.16667C8.27124 19.25 9.16667 18.3546 9.16667 17.25V14.8334C9.16667 13.7288 8.27124 12.8334 7.16667 12.8334Z" stroke="#FD9800" stroke-width="1.5" stroke-linecap="round" stroke-linejoin="round"/>
</svg>
