<svg width="14" height="14" viewBox="0 0 14 14" fill="none" xmlns="http://www.w3.org/2000/svg">
<g clip-path="url(#clip0_35_1555)">
<path d="M10.2082 1.11823C9.55136 1.12844 8.90883 1.31181 8.34551 1.6498C7.78218 1.98779 7.31802 2.46845 6.99989 3.04323C6.68177 2.46845 6.21761 1.98779 5.65428 1.6498C5.09096 1.31181 4.44842 1.12844 3.79156 1.11823C2.74444 1.16372 1.75789 1.62179 1.04743 2.39236C0.336979 3.16293 -0.0396269 4.18337 -0.000105711 5.23073C-0.000105711 7.88314 2.79173 10.78 5.13323 12.7441C5.65602 13.1834 6.31702 13.4242 6.99989 13.4242C7.68277 13.4242 8.34377 13.1834 8.86656 12.7441C11.2081 10.78 13.9999 7.88314 13.9999 5.23073C14.0394 4.18337 13.6628 3.16293 12.9524 2.39236C12.2419 1.62179 11.2553 1.16372 10.2082 1.11823Z" fill="#7D899D"/>
</g>
<defs>
<clipPath id="clip0_35_1555">
<rect width="14" height="14" fill="white"/>
</clipPath>
</defs>
</svg>
