<svg width="20" height="20" viewBox="0 0 20 20" fill="none" xmlns="http://www.w3.org/2000/svg">
<g clip-path="url(#clip0_5_5968)">
<path d="M17.7042 14.0342C18.1644 14.0342 18.5375 13.6611 18.5375 13.2009C18.5375 12.7406 18.1644 12.3676 17.7042 12.3676C17.2439 12.3676 16.8708 12.7406 16.8708 13.2009C16.8708 13.6611 17.2439 14.0342 17.7042 14.0342Z" fill="#FD9800"/>
<path d="M15.8868 16.7184C16.347 16.7184 16.7201 16.3453 16.7201 15.8851C16.7201 15.4249 16.347 15.0518 15.8868 15.0518C15.4266 15.0518 15.0535 15.4249 15.0535 15.8851C15.0535 16.3453 15.4266 16.7184 15.8868 16.7184Z" fill="#FD9800"/>
<path d="M18.3309 10.8367C18.7911 10.8367 19.1642 10.4636 19.1642 10.0034C19.1642 9.54314 18.7911 9.17004 18.3309 9.17004C17.8707 9.17004 17.4976 9.54314 17.4976 10.0034C17.4976 10.4636 17.8707 10.8367 18.3309 10.8367Z" fill="#FD9800"/>
<path d="M13.1876 18.5392C13.6478 18.5392 14.0209 18.1661 14.0209 17.7059C14.0209 17.2457 13.6478 16.8726 13.1876 16.8726C12.7273 16.8726 12.3542 17.2457 12.3542 17.7059C12.3542 18.1661 12.7273 18.5392 13.1876 18.5392Z" fill="#FD9800"/>
<path d="M10.0001 17.5C8.79987 17.5015 7.61682 17.2149 6.55034 16.6642C5.48386 16.1136 4.5651 15.3151 3.87126 14.3357C3.17742 13.3563 2.72875 12.2248 2.56296 11.036C2.39717 9.84731 2.5191 8.63615 2.91849 7.50431C3.31789 6.37248 3.98309 5.35303 4.85821 4.53161C5.73333 3.71019 6.79282 3.1108 7.94764 2.78379C9.10247 2.45677 10.3189 2.41169 11.4948 2.65234C12.6706 2.89298 13.7716 3.41231 14.7051 4.16671H13.3334C13.1124 4.16671 12.9005 4.25451 12.7442 4.41079C12.5879 4.56707 12.5001 4.77903 12.5001 5.00004C12.5001 5.22106 12.5879 5.43302 12.7442 5.5893C12.9005 5.74558 13.1124 5.83337 13.3334 5.83337H16.6668C16.8878 5.83337 17.0997 5.74558 17.256 5.5893C17.4123 5.43302 17.5001 5.22106 17.5001 5.00004V1.66671C17.5001 1.44569 17.4123 1.23373 17.256 1.07745C17.0997 0.921171 16.8878 0.833374 16.6668 0.833374C16.4458 0.833374 16.2338 0.921171 16.0775 1.07745C15.9212 1.23373 15.8334 1.44569 15.8334 1.66671V2.94254C14.7002 2.00566 13.3582 1.35527 11.9207 1.04629C10.4831 0.737315 8.99237 0.778835 7.57427 1.16734C6.15618 1.55585 4.85241 2.27994 3.7731 3.27844C2.69378 4.27694 1.87062 5.52052 1.37314 6.90416C0.875658 8.28779 0.718474 9.77083 0.914862 11.228C1.11125 12.6852 1.65544 14.0737 2.50147 15.2763C3.3475 16.4788 4.47052 17.4601 5.77567 18.1373C7.08081 18.8144 8.52976 19.1675 10.0001 19.1667C10.2211 19.1667 10.4331 19.0789 10.5894 18.9226C10.7456 18.7664 10.8334 18.5544 10.8334 18.3334C10.8334 18.1124 10.7456 17.9004 10.5894 17.7441C10.4331 17.5878 10.2211 17.5 10.0001 17.5Z" fill="#FD9800"/>
<path d="M13.0892 13.0892C13.2455 12.933 13.3332 12.7211 13.3332 12.5001C13.3332 12.2791 13.2455 12.0672 13.0892 11.9109L10.8334 9.65508V5.00008C10.8334 4.77907 10.7456 4.56711 10.5893 4.41083C10.4331 4.25455 10.2211 4.16675 10.0001 4.16675C9.77907 4.16675 9.56711 4.25455 9.41083 4.41083C9.25455 4.56711 9.16675 4.77907 9.16675 5.00008V10.0001C9.1668 10.2211 9.25462 10.433 9.41091 10.5892L11.9109 13.0892C12.0672 13.2455 12.2791 13.3332 12.5001 13.3332C12.7211 13.3332 12.933 13.2455 13.0892 13.0892Z" fill="#FD9800"/>
</g>
<defs>
<clipPath id="clip0_5_5968">
<rect width="20" height="20" fill="white"/>
</clipPath>
</defs>
</svg>
