<svg width="20" height="20" viewBox="0 0 20 20" fill="none" xmlns="http://www.w3.org/2000/svg">
<path fill-rule="evenodd" clip-rule="evenodd" d="M10 0C15.5229 0 20 4.47715 20 10C20 15.5229 15.5229 20 10 20C9.81489 20 9.63106 19.9946 9.44843 19.9846L11.5517 14.0774H13.7385C14.3736 14.0774 15.0418 13.5578 15.2234 12.9227L17.0699 7.7368C17.4448 6.68392 16.7434 6.06288 15.9386 6.06058L12.3358 6.05948L7.48575 19.6811C3.17994 18.566 0 14.6544 0 10C0 5.24806 3.31452 1.27032 7.75778 0.252554L2.95019 13.755H5.02096L7.34956 7.21497H8.53935L6.21566 13.7412H8.28643L10.4243 7.7368C10.7992 6.68392 10.0978 6.06288 9.29304 6.06058L7.76214 6.05619L9.91811 0.00103235C9.94544 0.000815556 9.97262 0 10 0Z" fill="#131921"/>
<path fill-rule="evenodd" clip-rule="evenodd" d="M11.9629 12.9227L13.9952 7.21497H15.185L13.1527 12.9227H11.9629Z" fill="#131921"/>
</svg>
