<svg width="20" height="14" viewBox="0 0 20 14" fill="none" xmlns="http://www.w3.org/2000/svg">
<path d="M15.8333 13.667H4.16667C3.062 13.6656 2.00296 13.2262 1.22185 12.4451C0.440735 11.664 0.00132321 10.6049 0 9.50029L0 4.50029C0.00132321 3.39562 0.440735 2.33658 1.22185 1.55547C2.00296 0.774353 3.062 0.334941 4.16667 0.333618H15.8333C16.938 0.334941 17.997 0.774353 18.7782 1.55547C19.5593 2.33658 19.9987 3.39562 20 4.50029V9.50029C19.9987 10.6049 19.5593 11.664 18.7782 12.4451C17.997 13.2262 16.938 13.6656 15.8333 13.667ZM4.16667 2.00028C3.50363 2.00028 2.86774 2.26368 2.3989 2.73252C1.93006 3.20136 1.66667 3.83724 1.66667 4.50029V9.50029C1.66667 10.1633 1.93006 10.7992 2.3989 11.2681C2.86774 11.7369 3.50363 12.0003 4.16667 12.0003H15.8333C16.4964 12.0003 17.1323 11.7369 17.6011 11.2681C18.0699 10.7992 18.3333 10.1633 18.3333 9.50029V4.50029C18.3333 3.83724 18.0699 3.20136 17.6011 2.73252C17.1323 2.26368 16.4964 2.00028 15.8333 2.00028H4.16667ZM10 10.3336C9.34073 10.3336 8.69626 10.1381 8.1481 9.77185C7.59994 9.40558 7.17269 8.88498 6.9204 8.2759C6.66811 7.66681 6.6021 6.99659 6.73072 6.34998C6.85933 5.70338 7.1768 5.10944 7.64298 4.64326C8.10915 4.17709 8.7031 3.85962 9.3497 3.731C9.9963 3.60238 10.6665 3.66839 11.2756 3.92069C11.8847 4.17298 12.4053 4.60022 12.7716 5.14838C13.1378 5.69655 13.3333 6.34101 13.3333 7.00029C13.3333 7.88434 12.9821 8.73219 12.357 9.35731C11.7319 9.98243 10.8841 10.3336 10 10.3336ZM10 5.33362C9.67036 5.33362 9.34813 5.43137 9.07405 5.6145C8.79997 5.79764 8.58635 6.05794 8.4602 6.36248C8.33405 6.66702 8.30105 7.00213 8.36536 7.32544C8.42967 7.64874 8.5884 7.94571 8.82149 8.1788C9.05458 8.41188 9.35155 8.57062 9.67485 8.63493C9.99815 8.69924 10.3333 8.66623 10.6378 8.54008C10.9423 8.41394 11.2026 8.20032 11.3858 7.92624C11.5689 7.65215 11.6667 7.32992 11.6667 7.00029C11.6667 6.55826 11.4911 6.13433 11.1785 5.82177C10.866 5.50921 10.442 5.33362 10 5.33362ZM4.16667 3.66695C4.00185 3.66695 3.84073 3.71583 3.70369 3.80739C3.56665 3.89896 3.45984 4.02911 3.39677 4.18138C3.33369 4.33365 3.31719 4.50121 3.34935 4.66286C3.3815 4.82451 3.46087 4.973 3.57741 5.08954C3.69395 5.20608 3.84244 5.28545 4.00409 5.31761C4.16574 5.34976 4.3333 5.33326 4.48557 5.27018C4.63784 5.20711 4.76799 5.1003 4.85956 4.96326C4.95113 4.82622 5 4.6651 5 4.50029C5 4.27927 4.9122 4.06731 4.75592 3.91103C4.59964 3.75475 4.38768 3.66695 4.16667 3.66695ZM15 4.50029C15 4.6651 15.0489 4.82622 15.1404 4.96326C15.232 5.1003 15.3622 5.20711 15.5144 5.27018C15.6667 5.33326 15.8343 5.34976 15.9959 5.31761C16.1576 5.28545 16.306 5.20608 16.4226 5.08954C16.5391 4.973 16.6185 4.82451 16.6507 4.66286C16.6828 4.50121 16.6663 4.33365 16.6032 4.18138C16.5402 4.02911 16.4333 3.89896 16.2963 3.80739C16.1593 3.71583 15.9982 3.66695 15.8333 3.66695C15.6123 3.66695 15.4004 3.75475 15.2441 3.91103C15.0878 4.06731 15 4.27927 15 4.50029ZM4.16667 8.66695C4.00185 8.66695 3.84073 8.71583 3.70369 8.80739C3.56665 8.89896 3.45984 9.02911 3.39677 9.18138C3.33369 9.33365 3.31719 9.50121 3.34935 9.66286C3.3815 9.82451 3.46087 9.973 3.57741 10.0895C3.69395 10.2061 3.84244 10.2855 4.00409 10.3176C4.16574 10.3498 4.3333 10.3333 4.48557 10.2702C4.63784 10.2071 4.76799 10.1003 4.85956 9.96326C4.95113 9.82622 5 9.6651 5 9.50029C5 9.27927 4.9122 9.06731 4.75592 8.91103C4.59964 8.75475 4.38768 8.66695 4.16667 8.66695ZM15 9.50029C15 9.6651 15.0489 9.82622 15.1404 9.96326C15.232 10.1003 15.3622 10.2071 15.5144 10.2702C15.6667 10.3333 15.8343 10.3498 15.9959 10.3176C16.1576 10.2855 16.306 10.2061 16.4226 10.0895C16.5391 9.973 16.6185 9.82451 16.6507 9.66286C16.6828 9.50121 16.6663 9.33365 16.6032 9.18138C16.5402 9.02911 16.4333 8.89896 16.2963 8.80739C16.1593 8.71583 15.9982 8.66695 15.8333 8.66695C15.6123 8.66695 15.4004 8.75475 15.2441 8.91103C15.0878 9.06731 15 9.27927 15 9.50029Z" fill="#FD9800"/>
</svg>
