<svg width="21" height="20" viewBox="0 0 21 20" fill="none" xmlns="http://www.w3.org/2000/svg">
<path d="M10.2859 0C8.41825 4.11494e-05 6.59268 0.539346 5.04073 1.54951C3.48878 2.55968 2.28037 3.9952 1.56876 5.67401C0.857155 7.35282 0.67441 9.19928 1.0437 10.9792C1.413 12.7591 2.31769 14.3923 3.64305 15.6717L7.02276 18.7058C7.89146 19.5326 9.05781 19.9969 10.2734 20C11.489 20.0031 12.6579 19.5448 13.531 18.7225L16.9528 15.6483C18.2713 14.3664 19.1692 12.733 19.533 10.9549C19.8968 9.1768 19.7101 7.33373 18.9965 5.65877C18.2829 3.98382 17.0744 2.5522 15.524 1.54495C13.9735 0.537704 12.1507 5.75492e-05 10.2859 0V0ZM15.7648 14.4475L12.3499 17.515C11.7884 18.0293 11.0453 18.3145 10.2738 18.3117C9.50238 18.3089 8.76145 18.0184 8.20391 17.5L4.83105 14.47C3.93401 13.5979 3.27204 12.5241 2.90378 11.3438C2.53553 10.1636 2.47235 8.91321 2.71985 7.70354C2.96735 6.49386 3.51788 5.36219 4.32268 4.40878C5.12749 3.45537 6.16172 2.70963 7.33377 2.23764C8.50582 1.76564 9.77951 1.58196 11.042 1.70284C12.3045 1.82373 13.5169 2.24547 14.5717 2.93069C15.6265 3.61591 16.4912 4.54347 17.0893 5.63121C17.6873 6.71895 18.0002 7.93329 18.0002 9.16667C18.004 10.1467 17.8084 11.1178 17.4248 12.0241C17.0411 12.9303 16.477 13.7539 15.7648 14.4475ZM14.323 6.38583L11.7516 4.65167C11.3208 4.36224 10.8096 4.20722 10.2859 4.20722C9.76225 4.20722 9.251 4.36224 8.82019 4.65167L6.24876 6.38583C5.90754 6.61597 5.62873 6.92304 5.43617 7.28077C5.24361 7.6385 5.14304 8.03625 5.14305 8.44V11.25C5.14305 11.8025 5.36881 12.3324 5.77068 12.7231C6.17254 13.1138 6.71758 13.3333 7.28591 13.3333H13.2859C13.8542 13.3333 14.3993 13.1138 14.8011 12.7231C15.203 12.3324 15.4288 11.8025 15.4288 11.25V8.44C15.4288 8.03625 15.3282 7.6385 15.1356 7.28077C14.9431 6.92304 14.6643 6.61597 14.323 6.38583ZM13.7145 11.25C13.7145 11.3605 13.6693 11.4665 13.589 11.5446C13.5086 11.6228 13.3996 11.6667 13.2859 11.6667H12.0002V10C12.0002 9.77899 11.9099 9.56703 11.7491 9.41074C11.5884 9.25447 11.3704 9.16667 11.143 9.16667H9.42876C9.20143 9.16667 8.98342 9.25447 8.82267 9.41074C8.66193 9.56703 8.57162 9.77899 8.57162 10V11.6667H7.28591C7.17224 11.6667 7.06323 11.6228 6.98286 11.5446C6.90249 11.4665 6.85733 11.3605 6.85733 11.25V8.44C6.85728 8.30537 6.89079 8.17273 6.95498 8.05344C7.01916 7.93414 7.11213 7.83174 7.22591 7.755L9.79733 6.02083C9.94109 5.92473 10.1114 5.87328 10.2859 5.87328C10.4604 5.87328 10.6307 5.92473 10.7745 6.02083L13.3459 7.755C13.4597 7.83174 13.5526 7.93414 13.6168 8.05344C13.681 8.17273 13.7145 8.30537 13.7145 8.44V11.25Z" fill="#131921"/>
</svg>
