<svg width="16" height="16" viewBox="0 0 16 16" fill="none" xmlns="http://www.w3.org/2000/svg">
<g clip-path="url(#clip0_5_5652)">
<path d="M15.4143 6.04591L10.3576 0.988578C9.73175 0.36457 8.88403 0.0141602 8.00025 0.0141602C7.11648 0.0141602 6.26876 0.36457 5.64292 0.988578L0.586252 6.04591C0.399869 6.2311 0.252099 6.45144 0.151507 6.69417C0.0509156 6.93689 -0.000496126 7.19717 0.000252194 7.45991V14.0046C0.000252194 14.535 0.210966 15.0437 0.586039 15.4188C0.961111 15.7939 1.46982 16.0046 2.00025 16.0046H14.0003C14.5307 16.0046 15.0394 15.7939 15.4145 15.4188C15.7895 15.0437 16.0003 14.535 16.0003 14.0046V7.45991C16.001 7.19717 15.9496 6.93689 15.849 6.69417C15.7484 6.45144 15.6006 6.2311 15.4143 6.04591ZM10.0003 14.6712H6.00025V12.0486C6.00025 11.5181 6.21097 11.0094 6.58604 10.6344C6.96111 10.2593 7.46982 10.0486 8.00025 10.0486C8.53069 10.0486 9.03939 10.2593 9.41447 10.6344C9.78954 11.0094 10.0003 11.5181 10.0003 12.0486V14.6712ZM14.6669 14.0046C14.6669 14.1814 14.5967 14.351 14.4717 14.476C14.3466 14.601 14.1771 14.6712 14.0003 14.6712H11.3336V12.0486C11.3336 11.1645 10.9824 10.3167 10.3573 9.69156C9.73215 9.06643 8.88431 8.71524 8.00025 8.71524C7.1162 8.71524 6.26835 9.06643 5.64323 9.69156C5.01811 10.3167 4.66692 11.1645 4.66692 12.0486V14.6712H2.00025C1.82344 14.6712 1.65387 14.601 1.52885 14.476C1.40382 14.351 1.33359 14.1814 1.33359 14.0046V7.45991C1.3342 7.28323 1.40438 7.1139 1.52892 6.98858L6.58559 1.93324C6.96139 1.5592 7.47003 1.34921 8.00025 1.34921C8.53048 1.34921 9.03912 1.5592 9.41492 1.93324L14.4716 6.99058C14.5956 7.11541 14.6658 7.28392 14.6669 7.45991V14.0046Z" fill="#131921"/>
</g>
<defs>
<clipPath id="clip0_5_5652">
<rect width="16" height="16" fill="white"/>
</clipPath>
</defs>
</svg>
