<svg width="16" height="16" viewBox="0 0 16 16" fill="none" xmlns="http://www.w3.org/2000/svg">
<g clip-path="url(#clip0_5_5662)">
<path d="M11.6667 1.27771C10.916 1.28939 10.1817 1.49895 9.5379 1.88522C8.8941 2.2715 8.36363 2.82082 8.00005 3.47771C7.63648 2.82082 7.10601 2.2715 6.46221 1.88522C5.81841 1.49895 5.08409 1.28939 4.33339 1.27771C3.13668 1.3297 2.00919 1.85321 1.19724 2.73386C0.385293 3.61452 -0.0451135 4.78073 5.35741e-05 5.97771C5.35741e-05 9.00904 3.19072 12.3197 5.86672 14.5644C6.4642 15.0665 7.21962 15.3417 8.00005 15.3417C8.78048 15.3417 9.53591 15.0665 10.1334 14.5644C12.8094 12.3197 16.0001 9.00904 16.0001 5.97771C16.0452 4.78073 15.6148 3.61452 14.8029 2.73386C13.9909 1.85321 12.8634 1.3297 11.6667 1.27771ZM9.27672 13.5444C8.91938 13.8453 8.46722 14.0103 8.00005 14.0103C7.53289 14.0103 7.08073 13.8453 6.72339 13.5444C3.29805 10.6704 1.33339 7.91304 1.33339 5.97771C1.28781 5.13419 1.57763 4.30686 2.13963 3.67618C2.70163 3.04549 3.49021 2.66261 4.33339 2.61104C5.17656 2.66261 5.96515 3.04549 6.52714 3.67618C7.08914 4.30686 7.37896 5.13419 7.33339 5.97771C7.33339 6.15452 7.40363 6.32409 7.52865 6.44911C7.65367 6.57414 7.82324 6.64438 8.00005 6.64438C8.17686 6.64438 8.34643 6.57414 8.47146 6.44911C8.59648 6.32409 8.66672 6.15452 8.66672 5.97771C8.62115 5.13419 8.91096 4.30686 9.47296 3.67618C10.035 3.04549 10.8235 2.66261 11.6667 2.61104C12.5099 2.66261 13.2985 3.04549 13.8605 3.67618C14.4225 4.30686 14.7123 5.13419 14.6667 5.97771C14.6667 7.91304 12.7021 10.6704 9.27672 13.5417V13.5444Z" fill="#131921"/>
</g>
<defs>
<clipPath id="clip0_5_5662">
<rect width="16" height="16" fill="white"/>
</clipPath>
</defs>
</svg>
