<svg width="20" height="20" viewBox="0 0 20 20" fill="none" xmlns="http://www.w3.org/2000/svg">
<g clip-path="url(#clip0_39_1889)">
<path d="M14.5832 1.59753C13.6448 1.61213 12.7269 1.87408 11.9222 2.35693C11.1174 2.83977 10.4544 3.52642 9.99988 4.34753C9.54542 3.52642 8.88233 2.83977 8.07758 2.35693C7.27283 1.87408 6.35493 1.61213 5.41655 1.59753C3.92067 1.66253 2.51131 2.31691 1.49637 3.41773C0.481433 4.51854 -0.0565749 5.97631 -0.000116138 7.47253C-0.000116138 11.2617 3.98822 15.4 7.33322 18.2059C8.08007 18.8335 9.02435 19.1776 9.99988 19.1776C10.9754 19.1776 11.9197 18.8335 12.6665 18.2059C16.0115 15.4 19.9999 11.2617 19.9999 7.47253C20.0563 5.97631 19.5183 4.51854 18.5034 3.41773C17.4885 2.31691 16.0791 1.66253 14.5832 1.59753Z" fill="#9C9C9C"/>
</g>
<defs>
<clipPath id="clip0_39_1889">
<rect width="20" height="20" fill="white"/>
</clipPath>
</defs>
</svg>
