<svg width="20" height="20" viewBox="0 0 20 20" fill="none" xmlns="http://www.w3.org/2000/svg">
<g clip-path="url(#clip0_61_462)">
<path d="M18.1642 4.64919L12.3308 0.712527C10.915 -0.242473 9.085 -0.242473 7.66917 0.712527L1.83667 4.64919C0.686667 5.42419 0 6.71503 0 8.10336V15.8334C0 18.1309 1.86917 20 4.16667 20H15.8333C18.1308 20 20 18.1309 20 15.8334V8.10336C20 6.71586 19.3133 5.42419 18.1642 4.64919ZM13.3333 13.3334C13.3333 14.2525 12.5858 15 11.6667 15H8.33333C7.41417 15 6.66667 14.2525 6.66667 13.3334V10C6.66667 9.08086 7.41417 8.33336 8.33333 8.33336H11.6667C12.5858 8.33336 13.3333 9.08086 13.3333 10V13.3334ZM11.6667 10L11.6683 13.3334H8.33333V10H11.6667Z" fill="#9C9C9C"/>
</g>
<defs>
<clipPath id="clip0_61_462">
<rect width="20" height="20" fill="white"/>
</clipPath>
</defs>
</svg>
