<svg width="20" height="20" viewBox="0 0 20 20" fill="none" xmlns="http://www.w3.org/2000/svg">
<g clip-path="url(#clip0_5_3688)">
<path d="M20 19.1667C20 19.3877 19.9122 19.5997 19.7559 19.756C19.5996 19.9123 19.3877 20 19.1667 20H0.833334C0.61232 20 0.400358 19.9123 0.244078 19.756C0.0877976 19.5997 1.74856e-07 19.3877 1.74856e-07 19.1667C1.74856e-07 18.9457 0.0877976 18.7337 0.244078 18.5775C0.400358 18.4212 0.61232 18.3334 0.833334 18.3334H19.1667C19.3877 18.3334 19.5996 18.4212 19.7559 18.5775C19.9122 18.7337 20 18.9457 20 19.1667ZM0.2425 7.12671C0.0629354 6.79365 -0.0202543 6.41713 0.0022672 6.03942C0.0247887 5.66171 0.15213 5.29775 0.37 4.98838C0.726049 4.46598 1.20287 4.03718 1.76 3.73838L8.01083 0.485046C8.62522 0.165572 9.30752 -0.0012207 10 -0.0012207C10.6925 -0.0012207 11.3748 0.165572 11.9892 0.485046L18.2392 3.74088C18.7963 4.03968 19.2731 4.46848 19.6292 4.99088C19.847 5.30025 19.9744 5.66421 19.9969 6.04192C20.0194 6.41963 19.9362 6.79615 19.7567 7.12921C19.5633 7.4949 19.2734 7.80055 18.9184 8.01287C18.5634 8.22519 18.157 8.33605 17.7433 8.33338H17.5V15H18.3333C18.5543 15 18.7663 15.0878 18.9226 15.2441C19.0789 15.4004 19.1667 15.6124 19.1667 15.8334C19.1667 16.0544 19.0789 16.2664 18.9226 16.4226C18.7663 16.5789 18.5543 16.6667 18.3333 16.6667H1.66667C1.44565 16.6667 1.23369 16.5789 1.07741 16.4226C0.921131 16.2664 0.833334 16.0544 0.833334 15.8334C0.833334 15.6124 0.921131 15.4004 1.07741 15.2441C1.23369 15.0878 1.44565 15 1.66667 15H2.5V8.33338H2.25667C1.84263 8.33597 1.43584 8.2248 1.08066 8.01202C0.725477 7.79923 0.435549 7.493 0.2425 7.12671ZM4.16667 15H6.66667V8.33338H4.16667V15ZM8.33333 8.33338V15H11.6667V8.33338H8.33333ZM15.8333 8.33338H13.3333V15H15.8333V8.33338ZM1.71917 6.35421C1.77145 6.45061 1.84926 6.53076 1.94407 6.58588C2.03888 6.641 2.14702 6.66897 2.25667 6.66671H17.7433C17.853 6.66897 17.9611 6.641 18.0559 6.58588C18.1507 6.53076 18.2285 6.45061 18.2808 6.35421C18.3189 6.29052 18.3373 6.21699 18.3338 6.14286C18.3302 6.06873 18.3048 5.9973 18.2608 5.93755C18.0589 5.63747 17.7877 5.3905 17.47 5.21755L11.22 1.96171C10.8433 1.76623 10.4252 1.66419 10.0008 1.66419C9.57647 1.66419 9.15833 1.76623 8.78167 1.96171L2.53167 5.21755C2.21415 5.39105 1.94294 5.63826 1.74083 5.93838C1.69674 5.99789 1.67117 6.06907 1.66732 6.14303C1.66346 6.21699 1.6815 6.29045 1.71917 6.35421Z" fill="#FD9800"/>
</g>
<defs>
<clipPath id="clip0_5_3688">
<rect width="20" height="20" fill="white"/>
</clipPath>
</defs>
</svg>
