<svg width="21" height="20" viewBox="0 0 21 20" fill="none" xmlns="http://www.w3.org/2000/svg">
<path d="M19.3328 11.3849L17.7042 5.68828C17.2269 4.01939 16.1894 2.55352 14.7568 1.52367C13.3242 0.493823 11.5786 -0.0408992 9.79749 0.00450091C8.01639 0.049901 6.30202 0.672818 4.92686 1.77424C3.55171 2.87565 2.5947 4.39236 2.20795 6.08328L0.947092 11.5958C0.80782 12.2049 0.81104 12.8366 0.956515 13.4444C1.10199 14.0521 1.386 14.6203 1.78759 15.1071C2.18918 15.5938 2.69808 15.9866 3.27673 16.2566C3.85538 16.5265 4.489 16.6666 5.13081 16.6666H6.08566C6.28239 17.6085 6.808 18.4553 7.57344 19.0636C8.33888 19.6718 9.29707 20.0041 10.2857 20.0041C11.2743 20.0041 12.2324 19.6718 12.9979 19.0636C13.7633 18.4553 14.2889 17.6085 14.4857 16.6666H15.2039C15.8646 16.6667 16.5164 16.5182 17.1083 16.2328C17.7002 15.9474 18.2162 15.5329 18.6161 15.0215C19.0159 14.5101 19.2887 13.9158 19.4132 13.285C19.5377 12.6541 19.5105 12.0039 19.3337 11.3849H19.3328ZM10.2857 18.3333C9.75573 18.3311 9.23941 18.1699 8.80735 17.8715C8.37529 17.5732 8.04859 17.1524 7.87195 16.6666H12.6994C12.5227 17.1524 12.196 17.5732 11.764 17.8715C11.3319 18.1699 10.8156 18.3311 10.2857 18.3333ZM17.2508 14.0124C17.012 14.3205 16.7025 14.5702 16.347 14.7416C15.9916 14.913 15.5999 15.0015 15.2031 14.9999H5.13081C4.74576 14.9999 4.36565 14.9158 4.01853 14.7538C3.6714 14.5918 3.36613 14.3561 3.12523 14.064C2.88434 13.772 2.71397 13.4311 2.62672 13.0665C2.53946 12.7019 2.53754 12.3229 2.62109 11.9574L3.88109 6.44411C4.18482 5.11595 4.9365 3.92462 6.01663 3.05949C7.09675 2.19436 8.44334 1.70509 9.84233 1.66946C11.2413 1.63383 12.6124 2.05388 13.7376 2.86284C14.8629 3.6718 15.6777 4.82323 16.0525 6.13411L17.6811 11.8308C17.7887 12.2019 17.8058 12.5923 17.7311 12.9711C17.6565 13.3498 17.492 13.7063 17.2508 14.0124Z" fill="#131921"/>
</svg>
