<svg width="17" height="14" viewBox="0 0 17 14" fill="none" xmlns="http://www.w3.org/2000/svg">
<g clip-path="url(#clip0_86_209)">
<path d="M3.375 2.1875C3.375 1.46289 3.96289 0.875 4.6875 0.875H12.5625C13.2871 0.875 13.875 1.46289 13.875 2.1875V10.5H3.375V2.1875ZM11.9336 3.47266C11.6766 3.21563 11.2609 3.21563 11.0066 3.47266L7.97148 6.50781L6.68633 5.22266C6.4293 4.96562 6.01367 4.96562 5.75938 5.22266C5.50508 5.47969 5.50234 5.89531 5.75938 6.14961L7.50938 7.89961C7.76641 8.15664 8.18203 8.15664 8.43633 7.89961L11.9336 4.40234C12.1906 4.14531 12.1906 3.72969 11.9336 3.47539V3.47266ZM0.75 9.1875C0.75 8.46289 1.33789 7.875 2.0625 7.875H2.5V11.375H14.75V7.875H15.1875C15.9121 7.875 16.5 8.46289 16.5 9.1875V11.8125C16.5 12.5371 15.9121 13.125 15.1875 13.125H2.0625C1.33789 13.125 0.75 12.5371 0.75 11.8125V9.1875Z" fill="#FD9800"/>
</g>
<defs>
<clipPath id="clip0_86_209">
<rect width="15.75" height="14" fill="white" transform="translate(0.75)"/>
</clipPath>
</defs>
</svg>
