<svg width="18" height="18" viewBox="0 0 18 18" fill="none" xmlns="http://www.w3.org/2000/svg">
<g clip-path="url(#clip0_5_5608)">
<path d="M16.3262 1.67489C15.8673 1.2167 15.2453 0.959351 14.5968 0.959351C13.9483 0.959351 13.3264 1.2167 12.8675 1.67489L1.88928 12.6531C1.5749 12.9657 1.32563 13.3376 1.15589 13.7471C0.986149 14.1567 0.899312 14.5959 0.900401 15.0392V16.425C0.900401 16.604 0.971517 16.7757 1.0981 16.9023C1.22469 17.0289 1.39638 17.1 1.5754 17.1H2.96118C3.40449 17.1012 3.84365 17.0145 4.25323 16.8449C4.66281 16.6753 5.03468 16.4261 5.3473 16.1118L16.3262 5.13292C16.7842 4.67405 17.0414 4.05222 17.0414 3.40391C17.0414 2.75559 16.7842 2.13376 16.3262 1.67489ZM4.39285 15.1573C4.01215 15.5355 3.49778 15.7484 2.96118 15.75H2.2504V15.0392C2.24972 14.7732 2.30181 14.5097 2.40365 14.2639C2.5055 14.0182 2.65507 13.7951 2.84373 13.6075L11.1752 5.27602L12.7277 6.82852L4.39285 15.1573ZM15.371 4.17847L13.6795 5.87069L12.127 4.32157L13.8192 2.62934C13.9212 2.52763 14.0421 2.44698 14.1752 2.39202C14.3083 2.33706 14.451 2.30885 14.595 2.309C14.739 2.30916 14.8816 2.33768 15.0145 2.39293C15.1475 2.44819 15.2683 2.52909 15.37 2.63103C15.4718 2.73297 15.5524 2.85394 15.6074 2.98705C15.6623 3.12015 15.6905 3.26278 15.6904 3.40679C15.6902 3.55079 15.6617 3.69336 15.6064 3.82634C15.5512 3.95933 15.4703 4.08013 15.3683 4.18184L15.371 4.17847Z" fill="white"/>
</g>
<defs>
<clipPath id="clip0_5_5608">
<rect width="16.2" height="16.2" fill="white" transform="translate(0.900269 0.900024)"/>
</clipPath>
</defs>
</svg>
