<svg width="68" height="35" viewBox="0 0 68 35" fill="none" xmlns="http://www.w3.org/2000/svg">
<path d="M29.9733 3.98668C30.2667 3.45334 30.9333 2.38668 30.1067 1.98668C29.6267 1.74668 28.9867 1.61334 28.5067 1.85334C28.0961 2.09585 27.7702 2.459 27.5733 2.89334L24.4267 7.82668C23.92 8.54668 23.44 9.42668 22.4 9.53335C21.7067 9.61335 21.2267 9.32001 21.2267 8.70668C21.2267 8.09335 21.6 7.24001 21.8933 6.70668C22.6933 5.16001 22.8 4.62668 23.6 3.08001C24.3467 1.61334 21.8667 1.26668 21.2533 2.33334C20.8 3.10668 20 4.52001 19.76 5.00001C19.4133 5.88001 16.8 10.0667 17.92 11.72C19.4133 13.5867 23.3067 10.6533 21.3067 14.04C19.7067 16.7867 18.6933 18.36 17.28 20.8933C16.9867 21.4267 16.5867 21.96 16.48 22.6C16.32 23.5067 17.5733 23.5067 18.1067 23.4533C19.0667 23.4 19.52 22.9467 19.8933 22.0933L20.5867 20.6267C22.412 16.6884 24.4965 12.8756 26.8267 9.21335C28 7.34668 29.0133 5.77334 29.9733 3.98668ZM19.5733 2.65334C20.2667 1.24001 17.8933 1.64001 17.8933 1.64001C17.04 1.64001 16.6667 2.68001 16.48 2.97334L13.92 8.04001C13.4133 8.84001 11.84 12.44 11.3067 13.24C11.2533 12.44 11.3067 10.8133 11.3333 10.44C11.44 8.89335 11.5467 7.77335 11.7067 6.36001C11.84 5.29335 12.0533 4.04001 11.84 2.97334C11.7067 2.28001 11.4667 2.25334 10.5067 2.14668C9.54668 2.04001 8.80001 3.48001 8.45335 4.20001C7.25335 6.73335 5.86668 9.26668 4.80001 11.8533L3.73335 14.12C3.33335 15.0267 2.96001 15.9333 2.53335 16.8133C2.08001 17.7467 0.666679 20.8133 0.266679 21.8C-0.159988 22.8667 -0.266654 23.6933 1.49335 23.6667C1.76001 23.6667 2.40001 23.72 3.14668 22.8933C3.76001 22.2533 3.86668 21.6667 4.21335 20.76C5.33449 17.9434 6.51699 15.1516 7.76001 12.3867C7.89335 12.0667 8.18668 11.1867 8.50668 10.4933C8.50668 11.4533 8.32001 12.6267 8.24001 13.4267C8.02668 16.2533 7.86668 19.0267 7.60001 21.8C7.60001 22.2 7.46668 22.6533 7.65335 23C7.84001 23.3467 8.26668 23.4533 8.61335 23.48C10.0267 23.6667 10.1867 22.9467 10.6133 21.9867C11.0133 21.1333 11.2533 20.4133 11.6 19.56C12.6659 16.8466 13.8221 14.1696 15.0667 11.5333L16.08 9.53335C16.72 8.33335 17.2533 7.18668 17.9467 5.82668C18.48 4.84001 18.9867 3.74668 19.5467 2.68001M57.28 10.92V11.0267L54.7733 11.48C55.68 9.16001 56.6133 6.33334 57.1733 4.89335C57.12 5.96001 57.3333 9.82668 57.28 10.8933M46.0533 13.3467C46.0557 13.3507 46.0569 13.3553 46.0569 13.36C46.0569 13.3647 46.0557 13.3693 46.0533 13.3733L41.2533 14.44C42.24 12.7333 46.7467 6.49335 47.4667 5.80001L46.0533 13.3733M67.8133 10.3067C67.6533 8.68001 65.4133 9.50668 64.08 9.74668L60.2667 10.44L60.1867 7.85335C60.16 6.25335 60.0533 5.00001 59.9733 3.58668C59.92 2.68001 59.7867 1.45334 58.16 1.66668C56.2933 1.93334 55.9733 2.86668 55.4933 3.98668L52.7467 10.2267L52 12.0667L51.68 12.1467L49.5467 12.6267V12.5467C49.7333 11.0267 49.9733 9.56001 50.1867 8.04001C50.3733 6.70668 50.5867 4.46668 50.72 3.10668C50.9067 1.64001 49.2 1.66668 49.2 1.66668C48.1867 1.61334 47.76 1.93334 47.12 2.76001C46 4.22668 44.64 5.80001 43.44 7.42668C41.2533 10.3333 39.6533 12.5467 37.68 15.4533C37.0933 16.3067 36.2133 17.5867 35.4667 18.6C34.9333 17.5867 34.5067 16.4667 34.08 15.4533C33.4667 13.9867 33.0133 13.08 32.7467 12.12C32.48 11.2667 32.7733 11.16 33.4133 10.68C35.2267 9.29334 37.28 8.33335 39.12 7.02668C40.4533 6.09335 42.0533 5.05334 43.3067 4.09334C43.7537 3.82632 44.1508 3.48341 44.48 3.08001C45.0133 2.38668 43.5467 1.66668 43.5467 1.66668C42.9062 1.55552 42.2469 1.66854 41.68 1.98668C41.0272 2.34335 40.4109 2.76313 39.84 3.24001C38.7733 4.09334 37.36 5.10668 36.2667 5.96001C35.0928 6.89135 33.8541 7.73793 32.56 8.49335L36.2933 2.94668C37.52 1.34668 34.2933 0.920011 33.0667 2.57334C31.92 4.06668 31.1467 5.34668 30.24 6.70668C28.08 9.90668 26.2933 13.2667 24.5333 16.8133C23.8667 18.1467 23.2 19.56 22.5867 20.9467C22.2933 21.64 21.44 23.1867 22.6133 23.3467C25.1467 23.6133 25.6 22.4133 26.1333 21C27.0933 18.6267 27.3867 18.1733 28 16.7067C28.4787 15.518 29.0309 14.3602 29.6533 13.24C29.6533 13.1867 29.8667 12.8933 29.8667 12.8933C30 13.16 30.7467 15.72 30.8533 16.0133C31.3867 17.4 32.32 20.6533 32.8267 22.1467C33.2267 23.3467 33.3333 23.6933 34.96 23.6667C35.7867 23.64 36.16 23.32 36.6933 22.3067L39.5733 16.8933L41.9467 16.4933L42.6933 16.36C42.9001 16.339 43.105 16.3033 43.3067 16.2533L45.7067 15.7733L44.9333 18.8133C44.9333 18.8133 43.8667 23.0267 45.2533 23.24C45.6926 23.3361 46.1474 23.3361 46.5867 23.24C48.24 23.0267 48.2667 20.84 48.2667 20.84L49.1467 15.08L51.0667 14.7067L49.12 21.24C48.8533 22.1733 48.64 23.3733 50.2933 23.3467C51.6533 23.4267 51.7333 22.5467 51.7333 22.5467C51.7867 22.44 52.8267 19 53.0933 17.7467C53.28 16.9467 53.8933 14.9467 54.16 14.12L55.6533 13.8533L57.2533 13.5867V15.5333C57.4133 17.8533 57.2533 20.2533 57.7067 22.52C57.7867 22.8933 57.9467 23.3733 58.4 23.3733C58.8461 23.3626 59.2912 23.327 59.7333 23.2667C61.4133 23.1333 61.0933 21.4 60.9867 20.3333C60.88 19.1067 60.7733 18.0933 60.5867 16.8933C60.4269 15.6285 60.3468 14.3549 60.3467 13.08L66.5867 12.0133C67.3867 11.88 67.9467 11.9333 67.7867 10.3333M5.09335 27.6133H1.86668V29.4H4.53335V30.7333H1.86668V33.4H0.400012V26.3067H5.06668L5.09335 27.6133ZM12.2667 32.4667H9.36001L8.96001 33.4H7.38668L10.5867 26.1467H11.0667L14.24 33.4H12.6667L12.2667 32.4667ZM10.8 28.8667L9.86668 31.2667H11.7333L10.8 28.8667ZM22.3467 27.48L21.36 28.2533C21.2218 28.0138 21.0238 27.8143 20.7855 27.674C20.5471 27.5338 20.2765 27.4578 20 27.4533C19.52 27.4533 19.12 27.64 19.12 28.12C19.12 28.5467 19.44 28.7067 19.9467 28.92L20.7467 29.2933C21.8667 29.8 22.5067 30.36 22.5067 31.3733C22.5067 32.7067 21.44 33.5067 20 33.5067C19.4495 33.5168 18.9065 33.3785 18.4279 33.1064C17.9493 32.8342 17.5528 32.4382 17.28 31.96L18.2933 31.1867C18.6667 31.72 19.1733 32.2267 20.0267 32.2267C20.6667 32.2267 21.04 31.96 21.04 31.4267C21.04 30.8933 20.6933 30.8133 20.1333 30.5467L19.3867 30.2C18.3733 29.72 17.6533 29.1333 17.6533 28.1467C17.6533 26.92 18.6667 26.12 20 26.12C20.4787 26.1073 20.9516 26.2277 21.3659 26.4678C21.7802 26.7079 22.1198 27.0583 22.3467 27.48ZM32.48 33.4H31.0133V30.3333H27.8667V33.4H26.4V26.28H27.8667V29.0267H31.0133V26.28H32.48V33.4ZM38.16 33.4H36.72V26.28H38.16V33.4ZM49.5733 29.8267C49.5941 30.5752 49.3925 31.3131 48.994 31.947C48.5955 32.581 48.018 33.0826 47.3345 33.3883C46.651 33.6941 45.8921 33.7904 45.1539 33.665C44.4157 33.5396 43.7312 33.1981 43.187 32.6837C42.6428 32.1693 42.2634 31.5052 42.0966 30.7752C41.9298 30.0452 41.9832 29.2821 42.25 28.5825C42.5169 27.8828 42.9851 27.278 43.5956 26.8444C44.2062 26.4109 44.9315 26.1681 45.68 26.1467H45.76C46.2525 26.1325 46.743 26.2159 47.2031 26.3922C47.6632 26.5685 48.0838 26.8341 48.4408 27.1737C48.7978 27.5133 49.084 27.9202 49.2829 28.371C49.4819 28.8217 49.5897 29.3074 49.6 29.8C49.6009 29.8178 49.6009 29.8356 49.6 29.8533L49.5733 29.8267ZM43.4933 29.8267C43.4933 31.2133 44.4533 32.1733 45.7867 32.1733C46.2506 32.1838 46.7073 32.0564 47.0988 31.8073C47.4904 31.5583 47.7994 31.1987 47.9866 30.7741C48.1738 30.3494 48.2309 29.8788 48.1507 29.4217C48.0705 28.9646 47.8566 28.5416 47.536 28.2061C47.2154 27.8705 46.8025 27.6376 46.3495 27.5367C45.8965 27.4358 45.4238 27.4715 44.9911 27.6393C44.5584 27.807 44.1852 28.0993 43.9186 28.4792C43.652 28.859 43.504 29.3094 43.4933 29.7733V29.8267ZM59.4667 26.28V33.56H58.9867L54.8533 29.1333V33.4H53.3867V26.1733H53.8667L58 30.5467V26.28H59.4667Z" fill="white"/>
</svg>
