<svg width="16" height="16" viewBox="0 0 16 16" fill="none" xmlns="http://www.w3.org/2000/svg">
<g clip-path="url(#clip0_34_464)">
<path d="M0 7.33333H16V8.66667H0V7.33333ZM1.33333 14V11.3333H0V14C0 15.1027 0.897333 16 2 16H4.66667V14.6667H2C1.63267 14.6667 1.33333 14.3673 1.33333 14ZM14.6667 14C14.6667 14.3673 14.3673 14.6667 14 14.6667H11.3333V16H14C15.1027 16 16 15.1027 16 14V11.3333H14.6667V14ZM14 0H11.3333V1.33333H14C14.3673 1.33333 14.6667 1.63267 14.6667 2V4.66667H16V2C16 0.897333 15.1027 0 14 0ZM1.33333 2C1.33333 1.63267 1.63267 1.33333 2 1.33333H4.66667V0H2C0.897333 0 0 0.897333 0 2V4.66667H1.33333V2Z" fill="black"/>
</g>
<defs>
<clipPath id="clip0_34_464">
<rect width="16" height="16" fill="white"/>
</clipPath>
</defs>
</svg>
