<svg width="20" height="20" viewBox="0 0 20 20" fill="none" xmlns="http://www.w3.org/2000/svg">
<g clip-path="url(#clip0_5_6045)">
<path d="M19.9998 9.3726C19.8793 7.42262 19.1908 5.55053 18.0192 3.98712C16.8475 2.42372 15.244 1.23735 13.4063 0.574266C11.5685 -0.0888154 9.57693 -0.199619 7.67698 0.255516C5.77703 0.710651 4.05179 1.71183 2.71397 3.13562C1.37614 4.55941 0.484209 6.34357 0.148127 8.26815C-0.187955 10.1927 0.0465057 12.1736 0.822605 13.9665C1.59871 15.7595 2.88251 17.2861 4.51577 18.3582C6.14901 19.4304 8.06031 20.0011 10.014 20.0001H15.8332C16.9379 19.999 17.9971 19.5597 18.7782 18.7785C19.5594 17.9973 19.9987 16.9382 19.9998 15.8334V9.3726ZM18.3332 15.8334C18.3332 16.4965 18.0698 17.1324 17.6009 17.6012C17.1321 18.07 16.4962 18.3334 15.8332 18.3334H10.014C8.83812 18.3329 7.67554 18.0845 6.60209 17.6045C5.52863 17.1245 4.5684 16.4236 3.78401 15.5476C2.99582 14.672 2.40395 13.638 2.04809 12.5149C1.69222 11.3919 1.58059 10.2057 1.72068 9.03594C1.94187 7.19089 2.77083 5.47193 4.07688 4.15004C5.38292 2.82815 7.09176 1.97853 8.93401 1.7351C9.29337 1.69006 9.65517 1.66724 10.0173 1.66677C11.9594 1.66147 13.8413 2.34002 15.3332 3.58344C16.2044 4.30756 16.9196 5.20106 17.4353 6.20979C17.951 7.21853 18.2564 8.32147 18.3332 9.45177V15.8334Z" fill="#131921"/>
<path d="M6.66659 7.49992H9.99992C10.2209 7.49992 10.4329 7.41212 10.5892 7.25584C10.7455 7.09956 10.8333 6.8876 10.8333 6.66658C10.8333 6.44557 10.7455 6.23361 10.5892 6.07733C10.4329 5.92105 10.2209 5.83325 9.99992 5.83325H6.66659C6.44557 5.83325 6.23361 5.92105 6.07733 6.07733C5.92105 6.23361 5.83325 6.44557 5.83325 6.66658C5.83325 6.8876 5.92105 7.09956 6.07733 7.25584C6.23361 7.41212 6.44557 7.49992 6.66659 7.49992Z" fill="#131921"/>
<path d="M13.3333 9.16675H6.66659C6.44557 9.16675 6.23361 9.25455 6.07733 9.41083C5.92105 9.56711 5.83325 9.77907 5.83325 10.0001C5.83325 10.2211 5.92105 10.4331 6.07733 10.5893C6.23361 10.7456 6.44557 10.8334 6.66659 10.8334H13.3333C13.5543 10.8334 13.7662 10.7456 13.9225 10.5893C14.0788 10.4331 14.1666 10.2211 14.1666 10.0001C14.1666 9.77907 14.0788 9.56711 13.9225 9.41083C13.7662 9.25455 13.5543 9.16675 13.3333 9.16675Z" fill="#131921"/>
<path d="M13.3333 12.5H6.66659C6.44557 12.5 6.23361 12.5878 6.07733 12.7441C5.92105 12.9004 5.83325 13.1123 5.83325 13.3333C5.83325 13.5544 5.92105 13.7663 6.07733 13.9226C6.23361 14.0789 6.44557 14.1667 6.66659 14.1667H13.3333C13.5543 14.1667 13.7662 14.0789 13.9225 13.9226C14.0788 13.7663 14.1666 13.5544 14.1666 13.3333C14.1666 13.1123 14.0788 12.9004 13.9225 12.7441C13.7662 12.5878 13.5543 12.5 13.3333 12.5Z" fill="#131921"/>
</g>
<defs>
<clipPath id="clip0_5_6045">
<rect width="20" height="20" fill="white"/>
</clipPath>
</defs>
</svg>
