<svg width="46" height="45" viewBox="0 0 46 45" fill="none" xmlns="http://www.w3.org/2000/svg">
<path d="M23.5874 24.559C23.5042 24.541 23.4188 24.5377 23.3344 24.5504C22.4893 24.452 21.8517 23.7369 21.8502 22.8863C21.8502 22.4787 21.5197 22.1482 21.1121 22.1482C20.7045 22.1482 20.374 22.4787 20.374 22.8863C20.3761 24.3067 21.3262 25.5509 22.6958 25.9268V26.6649C22.6958 27.0725 23.0263 27.403 23.4339 27.403C23.8415 27.403 24.172 27.0725 24.172 26.6649V25.9715C25.7528 25.6406 26.8272 24.1683 26.6611 22.562C26.4945 20.9556 25.1412 19.7349 23.5262 19.7345C22.6006 19.7345 21.8502 18.9841 21.8502 18.0586C21.8502 17.133 22.6006 16.3826 23.5262 16.3826C24.4517 16.3826 25.2021 17.133 25.2021 18.0586C25.2021 18.4662 25.5326 18.7967 25.9402 18.7967C26.3479 18.7967 26.6784 18.4662 26.6784 18.0586C26.6762 16.5672 25.6314 15.2808 24.172 14.9731V14.3012C24.172 13.8936 23.8415 13.5631 23.4339 13.5631C23.0263 13.5631 22.6958 13.8936 22.6958 14.3012V15.0181C21.1727 15.434 20.1923 16.9128 20.4021 18.4777C20.6119 20.0427 21.9472 21.2108 23.5262 21.2104C24.4395 21.2104 25.1844 21.9417 25.201 22.8546C25.218 23.7675 24.5 24.5259 23.5874 24.559Z" fill="#FD9800"/>
<path d="M12.8226 20.5293C12.8226 26.4408 17.6147 31.2329 23.5262 31.2329C29.4378 31.2329 34.2298 26.4408 34.2298 20.5293C34.2298 14.6178 29.4378 9.82568 23.5262 9.82568C17.6176 9.83217 12.8295 14.6206 12.8226 20.5293ZM23.5262 11.3019C28.6225 11.3019 32.7536 15.433 32.7536 20.5293C32.7536 25.6256 28.6225 29.7566 23.5262 29.7566C18.43 29.7566 14.2989 25.6256 14.2989 20.5293C14.3047 15.4355 18.4325 11.3077 23.5262 11.3019Z" fill="#FD9800"/>
<path d="M37.8686 33.0526L32.0865 35.7845C31.2882 34.2996 29.7568 33.3546 28.0715 33.3071L22.7337 33.1604C21.8885 33.1362 21.0592 32.9221 20.3078 32.534L19.7646 32.2525C16.9837 30.8029 13.6689 30.8065 10.8908 32.2619L10.9247 31.0314C10.9359 30.6238 10.6148 30.2843 10.2071 30.2731L4.35399 30.112C3.94636 30.1008 3.60721 30.4219 3.59604 30.8296L3.24247 43.674C3.2313 44.0817 3.55243 44.4212 3.96006 44.4323L9.8132 44.5935H9.83338C10.2334 44.5935 10.5607 44.2752 10.5715 43.8755L10.5884 43.261L12.109 42.4468C12.7059 42.1257 13.4037 42.0493 14.0556 42.2338L23.1359 44.7823C23.1518 44.787 23.1677 44.7906 23.1839 44.7942C23.8402 44.9315 24.5091 45.0004 25.1795 45C26.5995 45.0007 28.003 44.6947 29.2936 44.1022C29.3253 44.0878 29.356 44.0709 29.3852 44.0517L42.5508 35.5359C42.8787 35.3236 42.9847 34.8929 42.7926 34.5527C41.8152 32.8183 39.6473 32.1577 37.8686 33.0526ZM4.73855 42.977L5.05139 31.6081L9.42863 31.7284L9.11579 43.0977L4.73855 42.977ZM28.6287 42.7838C27.0252 43.5075 25.2343 43.7072 23.5108 43.3551L14.455 40.8131C13.4357 40.5251 12.3448 40.6444 11.4124 41.1457L10.6353 41.562L10.8433 34.003C13.3056 32.3653 16.4636 32.197 19.086 33.5633L19.6291 33.8448C20.5784 34.335 21.6254 34.6053 22.6933 34.6363L28.0315 34.783C29.5308 34.8262 30.8041 35.8938 31.1083 37.3628L23.1572 37.1433C22.7496 37.1321 22.4104 37.4536 22.3989 37.8609C22.3877 38.2685 22.7092 38.608 23.1165 38.6192L31.8911 38.8607H31.9117C32.3114 38.8603 32.6383 38.5421 32.6491 38.1427C32.6581 37.822 32.6343 37.5008 32.5777 37.1851L38.5084 34.3829C38.5141 34.3804 38.5199 34.3775 38.5257 34.3746C39.3669 33.949 40.384 34.0913 41.076 34.7318L28.6287 42.7838Z" fill="#FD9800"/>
<path d="M24.2643 7.75036V0.73813C24.2643 0.3305 23.9338 0 23.5262 0C23.1186 0 22.7881 0.3305 22.7881 0.73813V7.75036C22.7881 8.15799 23.1186 8.48849 23.5262 8.48849C23.9338 8.48849 24.2643 8.15799 24.2643 7.75036Z" fill="#FD9800"/>
<path d="M29.8004 7.75039V4.4288C29.8004 4.02117 29.4699 3.69067 29.0622 3.69067C28.6546 3.69067 28.3241 4.02117 28.3241 4.4288V7.75039C28.3241 8.15802 28.6546 8.48852 29.0622 8.48852C29.4699 8.48852 29.8004 8.15802 29.8004 7.75039Z" fill="#FD9800"/>
<path d="M18.7283 7.75039V4.4288C18.7283 4.02117 18.3978 3.69067 17.9902 3.69067C17.5826 3.69067 17.2521 4.02117 17.2521 4.4288V7.75039C17.2521 8.15802 17.5826 8.48852 17.9902 8.48852C18.3978 8.48852 18.7283 8.15802 18.7283 7.75039Z" fill="#FD9800"/>
</svg>
