<svg width="18" height="18" viewBox="0 0 18 18" fill="none" xmlns="http://www.w3.org/2000/svg">
<g clip-path="url(#clip0_5_3662)">
<path d="M13.9359 1.60555L9.23712 0.0387968C9.08328 -0.012444 8.91697 -0.012444 8.76312 0.0387968L4.06437 1.60555C3.3173 1.85371 2.66743 2.33099 2.20711 2.96958C1.74678 3.60817 1.4994 4.37559 1.50012 5.1628V9.00055C1.50012 14.6728 8.40012 17.8055 8.69562 17.936C8.79149 17.9786 8.89522 18.0006 9.00012 18.0006C9.10502 18.0006 9.20876 17.9786 9.30462 17.936C9.60012 17.8055 16.5001 14.6728 16.5001 9.00055V5.1628C16.5008 4.37559 16.2535 3.60817 15.7931 2.96958C15.3328 2.33099 14.6829 1.85371 13.9359 1.60555ZM15.0001 9.00055C15.0001 13.0918 10.2609 15.7753 9.00012 16.4173C7.73787 15.7775 3.00012 13.1023 3.00012 9.00055V5.1628C3.00017 4.6905 3.14883 4.2302 3.42505 3.8471C3.70127 3.46401 4.09103 3.17754 4.53912 3.0283L9.00012 1.54105L13.4611 3.0283C13.9092 3.17754 14.299 3.46401 14.5752 3.8471C14.8514 4.2302 15.0001 4.6905 15.0001 5.1628V9.00055Z" fill="#FD9800"/>
<path d="M11.475 6.2253L8.33397 9.37531L6.65097 7.6203C6.58343 7.54646 6.50179 7.48687 6.41086 7.44506C6.31994 7.40325 6.22156 7.38006 6.12154 7.37686C6.02151 7.37366 5.92186 7.39051 5.82844 7.42641C5.73503 7.46232 5.64975 7.51656 5.57762 7.58593C5.50549 7.65531 5.44798 7.73842 5.40847 7.83036C5.36895 7.92231 5.34824 8.02123 5.34755 8.12131C5.34686 8.22138 5.36621 8.32058 5.40445 8.41307C5.44269 8.50555 5.49905 8.58944 5.57022 8.65981L7.29972 10.4598C7.4287 10.5991 7.58459 10.7108 7.75798 10.7882C7.93136 10.8655 8.11863 10.9069 8.30847 10.9098H8.33322C8.51926 10.9104 8.70357 10.8741 8.87545 10.8029C9.04733 10.7317 9.20335 10.6271 9.33447 10.4951L12.5385 7.29105C12.6084 7.22122 12.664 7.13829 12.7019 7.047C12.7398 6.9557 12.7594 6.85783 12.7595 6.75897C12.7596 6.66011 12.7403 6.5622 12.7025 6.47083C12.6648 6.37945 12.6094 6.2964 12.5396 6.22643C12.4698 6.15645 12.3868 6.10091 12.2955 6.06298C12.2042 6.02505 12.1064 6.00548 12.0075 6.00537C11.9087 6.00527 11.8107 6.02464 11.7194 6.06237C11.628 6.10011 11.5449 6.15547 11.475 6.2253Z" fill="#FD9800"/>
</g>
<defs>
<clipPath id="clip0_5_3662">
<rect width="18" height="18" fill="white"/>
</clipPath>
</defs>
</svg>
