<svg width="20" height="20" viewBox="0 0 20 20" fill="none" xmlns="http://www.w3.org/2000/svg">
<g clip-path="url(#clip0_5_5470)">
<path d="M19.2656 0.734991C18.9668 0.432597 18.5951 0.212371 18.1863 0.0955883C17.7776 -0.0211941 17.3456 -0.0305844 16.9322 0.0683246L3.59889 2.87666C2.83104 2.98196 2.10783 3.29956 1.51073 3.79367C0.913616 4.28778 0.466318 4.93879 0.219203 5.67338C-0.0279123 6.40797 -0.0650286 7.19696 0.112034 7.9515C0.289096 8.70605 0.673304 9.39617 1.22139 9.94416L2.65306 11.375C2.73054 11.4525 2.79199 11.5444 2.83389 11.6457C2.87579 11.7469 2.89731 11.8554 2.89722 11.965V14.605C2.89906 14.9762 2.98451 15.3422 3.14722 15.6758L3.14056 15.6817L3.16222 15.7033C3.4064 16.1943 3.80521 16.5913 4.29722 16.8333L4.31889 16.855L4.32472 16.8483C4.65836 17.011 5.02437 17.0965 5.39556 17.0983H8.03556C8.25643 17.0982 8.46834 17.1857 8.62472 17.3417L10.0556 18.7725C10.4393 19.1605 10.8961 19.4687 11.3995 19.6794C11.903 19.8901 12.4431 19.999 12.9889 20C13.4437 19.9994 13.8954 19.9251 14.3264 19.78C15.0543 19.541 15.7009 19.1033 16.1933 18.5164C16.6856 17.9295 17.0042 17.2167 17.1131 16.4583L19.9256 3.09582C20.0296 2.67886 20.0235 2.24201 19.9078 1.82813C19.7921 1.41425 19.5708 1.03755 19.2656 0.734991ZM3.83306 10.1983L2.40056 8.76749C2.06699 8.44196 1.8332 8.02803 1.72663 7.57429C1.62006 7.12055 1.64512 6.64582 1.79889 6.20582C1.94797 5.75443 2.22356 5.35535 2.59289 5.05604C2.96221 4.75674 3.40973 4.56981 3.88222 4.51749L17.0831 1.73832L4.56222 14.2608V11.965C4.56349 11.6369 4.49969 11.3119 4.37453 11.0086C4.24937 10.7054 4.06533 10.43 3.83306 10.1983ZM15.4756 16.1733C15.4116 16.6336 15.2206 17.0669 14.924 17.4247C14.6274 17.7824 14.2369 18.0504 13.7965 18.1986C13.356 18.3468 12.883 18.3693 12.4305 18.2635C11.978 18.1578 11.5639 17.928 11.2347 17.6L9.80139 16.1667C9.57003 15.934 9.29484 15.7496 8.99174 15.624C8.68864 15.4984 8.36365 15.4342 8.03556 15.435H5.73972L18.2622 2.91666L15.4756 16.1733Z" fill="#FD9800"/>
</g>
<defs>
<clipPath id="clip0_5_5470">
<rect width="20" height="20" fill="white"/>
</clipPath>
</defs>
</svg>
