<svg width="375" height="836" viewBox="0 0 375 836" fill="none" xmlns="http://www.w3.org/2000/svg">
<g clip-path="url(#clip0_5_2577)">
<rect width="375" height="836" fill="white"/>
<g clip-path="url(#clip1_5_2577)">
<path d="M6.17496 760.988C5.80039 761.773 5.42335 762.558 5.04492 763.343C5.2438 762.982 5.4402 762.621 5.63825 762.261C5.94348 761.589 6.25203 760.91 6.55449 760.245C6.42798 760.493 6.30175 760.74 6.17496 760.988Z" fill="#FFF2DE"/>
<path d="M565.837 -256.882C560.398 -249.096 554.776 -241.049 549.172 -233.193C511.503 -180.355 473.231 -130.403 419.361 -99.812C350.141 -60.5093 272.307 -51.6418 197.036 -43.0642C130.193 -35.4483 61.207 -27.5779 0 2.0159V3.43018C61.154 -26.2909 130.244 -34.1755 197.181 -41.8056C272.578 -50.3973 350.543 -59.2789 419.989 -98.7089C474.085 -129.42 512.453 -179.5 550.208 -232.45C555.815 -240.313 561.44 -248.368 566.879 -256.153C574.497 -267.057 582.213 -278.103 590.14 -289H588.57C580.828 -278.336 573.285 -267.545 565.837 -256.882Z" fill="#FFF2DE"/>
<path d="M571.338 -250.482C566.708 -243.559 561.92 -236.403 557.162 -229.402C519.788 -174.415 481.719 -122.433 427.129 -90.8738C356.527 -50.3831 276.387 -42.3218 198.885 -34.522C131.449 -27.7406 61.8636 -20.7399 0 7.99825V9.4762C61.8028 -19.3892 131.49 -26.397 199.019 -33.1926C276.66 -41.0065 356.945 -49.082 427.796 -89.7142C482.633 -121.422 520.803 -173.524 558.269 -228.653C563.029 -235.66 567.818 -242.817 572.451 -249.74C581.185 -262.793 590.047 -276.024 599.226 -289H597.588C588.595 -276.257 579.905 -263.281 571.338 -250.482Z" fill="#FFF2DE"/>
<path d="M577.055 -244.111C573.164 -238.044 569.141 -231.764 565.152 -225.619C526.583 -166.149 490.162 -114.294 434.895 -81.9358C363.051 -40.1439 280.617 -32.9805 200.897 -26.0576C132.777 -20.1388 62.5086 -14.0151 0 14.0159V15.5504C62.4395 -12.6008 132.809 -18.7316 201.019 -24.6575C280.893 -31.5945 363.486 -38.7719 435.602 -80.7264C491.137 -113.241 527.662 -165.237 566.329 -224.856C570.32 -231.008 574.344 -237.287 578.236 -243.354C587.982 -258.551 597.881 -273.98 608.232 -289H606.523C596.361 -274.221 586.635 -259.053 577.055 -244.111Z" fill="#FFF2DE"/>
<path d="M581.852 -236.007C578.954 -231.276 576.053 -226.552 573.142 -221.829C534.571 -159.848 498.13 -105.872 442.66 -72.9974C369.611 -29.9256 284.909 -23.6745 202.997 -17.6285C134.165 -12.5512 63.1809 -7.2901 0 20.062V21.6672C63.1049 -5.81217 134.186 -11.0803 203.105 -16.1647C285.186 -22.2178 370.061 -28.483 443.408 -71.7316C499.165 -104.776 535.715 -158.908 574.39 -221.058C577.305 -225.782 580.205 -230.513 583.105 -235.243C594.104 -253.183 605.292 -271.413 617.137 -289H615.368C603.713 -271.647 592.69 -253.685 581.852 -236.007Z" fill="#FFF2DE"/>
<path d="M588.252 -230.131C585.881 -226.1 583.51 -222.069 581.131 -218.039C542.923 -153.76 506.715 -97.8038 450.425 -64.0592C376.2 -19.7074 289.254 -14.3898 205.171 -9.23473C135.604 -4.97775 63.8762 -0.572268 0 26.1364V27.8052C63.7919 0.976339 135.612 -3.44322 205.265 -7.70727C289.531 -12.8623 376.667 -18.2013 451.214 -62.7369C477.729 -78.6333 502.001 -100.837 525.419 -130.622C546.364 -157.253 564.348 -186.797 582.452 -217.261C584.832 -221.284 587.204 -225.315 589.575 -229.346C601.307 -249.294 613.252 -269.582 626.039 -289H624.196C611.602 -269.815 599.825 -249.803 588.252 -230.131Z" fill="#FFF2DE"/>
<path d="M594.819 -224.332C592.922 -220.973 591.023 -217.607 589.12 -214.248C558.321 -160.039 519.989 -92.571 458.191 -55.1139C382.814 -9.5105 293.644 -5.11917 207.41 -0.876343C137.087 2.58864 64.5922 6.15966 0 32.2248V33.9573C64.5004 7.77194 137.084 4.18674 207.489 0.721764C293.921 -3.52814 383.296 -7.92646 459.02 -53.749C485.998 -70.0981 510.505 -93.0447 533.938 -123.897C554.786 -151.341 572.594 -181.925 590.513 -213.463C592.417 -216.822 594.315 -220.181 596.214 -223.547C608.597 -245.476 621.21 -267.807 634.877 -289H632.969C619.497 -268.033 607.047 -245.985 594.819 -224.332Z" fill="#FFF2DE"/>
<path d="M465.956 -46.1756C389.449 0.686462 298.073 4.13023 209.705 7.46085C138.605 10.1409 65.3277 12.9129 0 38.3699V40.1519C65.2263 14.5817 138.591 11.8098 209.768 9.12263C298.35 5.78493 389.948 2.33407 466.827 -44.7543C530.162 -83.5479 567.18 -151.787 602.981 -217.777C615.952 -241.692 629.171 -266.053 643.676 -289H641.708C627.396 -266.273 614.334 -242.209 601.515 -218.576C565.82 -152.777 528.911 -84.7359 465.956 -46.1756Z" fill="#FFF2DE"/>
<path d="M450.301 -20.6833C514.68 -61.3508 555.324 -125.121 594.63 -186.797C616.933 -221.793 639.9 -257.794 666.974 -289H664.862C638.106 -257.957 615.367 -222.317 593.279 -187.66C554.068 -126.132 513.522 -62.5106 449.447 -22.041C375.519 24.6584 288.134 30.7186 203.628 36.5808C134.51 41.3752 63.2538 46.3251 0 73.7055V75.4592C63.169 47.9374 134.526 42.9733 203.739 38.1789C288.443 32.3025 376.032 26.2212 450.301 -20.6833Z" fill="#FFF2DE"/>
<path d="M679.872 -269.907C643.73 -235.95 613.687 -195.601 584.634 -156.581C542.027 -99.3666 497.97 -40.1932 432.939 2.10075C361.596 48.4961 278.253 57.1869 197.655 65.5877C130.476 72.5954 61.2059 79.8365 0 109.204V110.915C61.1355 81.3852 130.526 74.1299 197.814 67.1151C278.593 58.6931 362.123 49.9882 433.775 3.38776C499.038 -39.0618 543.178 -98.3412 585.866 -155.669C614.879 -194.632 644.88 -234.925 680.924 -268.783C688.247 -275.663 695.686 -282.388 703.204 -289H700.866C693.785 -282.756 686.781 -276.392 679.872 -269.907Z" fill="#FFF2DE"/>
<path d="M679.948 -234.409C640.854 -200.784 607.469 -162.281 575.184 -125.05C529.418 -72.2619 482.091 -17.685 416.431 26.2354C347.696 72.2135 268.451 83.5277 191.816 94.4671C126.53 103.787 59.1886 113.418 0 144.858V146.52C59.1336 114.911 126.612 105.258 192.023 95.9239C268.822 84.9562 348.235 73.6137 417.249 27.4587C483.072 -16.5677 530.464 -71.2296 576.295 -124.088C608.545 -161.284 641.893 -199.738 680.906 -233.291C703.072 -252.356 725.637 -270.883 748.195 -289H745.847C723.756 -271.237 701.66 -253.084 679.948 -234.409Z" fill="#FFF2DE"/>
<path d="M563.879 -92.3094C515.493 -44.3017 465.461 5.33942 399.924 50.37C333.836 95.7824 258.758 109.706 186.154 123.17C119.791 135.481 56.8788 147.142 0 180.674V182.315C56.8595 148.584 119.897 136.888 186.41 124.549C259.159 111.064 334.385 97.1118 400.72 51.5297C466.359 6.4213 516.437 -43.2623 564.867 -91.3123C600.945 -127.108 638.252 -164.119 680.891 -197.807C719.287 -228.151 757.239 -258.395 794.237 -289H792.038C755.457 -258.77 717.958 -228.886 680.02 -198.91C637.32 -165.173 599.985 -128.126 563.879 -92.3094Z" fill="#FFF2DE"/>
<path d="M384.19 75.6007C447.302 31.0863 498.279 -12.4594 547.577 -54.5695C591.245 -91.864 632.492 -127.101 680.877 -162.323C734.766 -201.562 786.487 -243.877 835.781 -289H833.801C784.867 -244.281 733.543 -202.326 680.089 -163.405C631.662 -128.147 590.396 -92.9033 546.709 -55.5876C497.433 -13.4917 446.48 30.0256 383.418 74.5046C320.041 119.21 249.221 135.7 180.733 151.646C116.186 166.68 55.041 180.936 0 216.76V218.358C55.038 182.308 116.324 168.017 181.037 152.947C249.65 136.973 320.599 120.454 384.19 75.6007Z" fill="#FFF2DE"/>
<path d="M680.157 -127.9C608.841 -79.9345 547.127 -34.1896 481.79 14.2352C445.895 40.8448 408.778 68.3596 366.915 98.6392C306.353 142.454 239.909 161.44 175.653 179.805C112.799 197.766 53.3009 214.78 0 253.064V254.627C53.3133 216.088 112.968 199.039 176.003 181.028C240.365 162.635 306.918 143.613 367.66 99.6717C409.529 69.3849 446.649 41.8702 482.548 15.2606C547.872 -33.1572 609.575 -78.895 680.866 -126.846C746.413 -170.929 808.79 -224 870.99 -289H869.229C807.368 -224.466 745.331 -171.735 680.157 -127.9Z" fill="#FFF2DE"/>
<path d="M680.221 -92.3942C657.021 -77.9473 634.583 -64.1723 612.883 -50.8498C528.278 1.08249 448.367 50.1366 350.411 122.774C292.834 165.478 230.93 186.834 171.065 207.482C109.723 228.647 51.7043 248.673 0 289.659V291.207C51.7333 249.946 109.92 229.856 171.458 208.628C231.41 187.944 293.403 166.553 351.13 123.743C449.043 51.1337 528.933 2.09369 613.516 -49.8244C635.216 -63.1469 657.655 -76.922 680.859 -91.3688C767.33 -145.217 838.313 -214.489 900.357 -289H898.787C836.962 -214.864 766.262 -145.974 680.221 -92.3942Z" fill="#FFF2DE"/>
<path d="M680.282 -56.8817C642.433 -35.0169 606.003 -15.9171 570.773 2.55334C493.001 43.3269 419.543 81.8448 333.907 146.909C279.581 188.191 222.456 211.697 167.212 234.438C107.113 259.167 50.3215 282.552 0 326.585V328.099C50.3654 283.761 107.339 260.312 167.646 235.492C222.958 212.729 280.152 189.188 334.597 147.821C420.158 82.8065 493.574 44.3169 571.302 3.56451C606.542 -14.913 642.983 -34.0199 680.852 -55.8917C747.919 -94.6287 809.589 -147.791 869.391 -218.406C888.838 -241.374 907.195 -265.148 924.527 -289H922.993C857.116 -198.529 780.554 -114.796 680.282 -56.8817Z" fill="#FFF2DE"/>
<path d="M680.342 -21.3692C637.524 1.60577 595.814 19.9984 555.479 37.79C476.155 72.7651 401.231 105.81 317.405 171.043C266.772 210.452 214.796 235.739 164.532 260.199C105.711 288.817 50.1527 315.851 1.15904 362.763C0.773157 363.13 0.386716 363.512 0 363.887V365.386C0.634215 364.764 1.26926 364.142 1.90209 363.541C50.7742 316.742 106.26 289.743 165.002 261.161C215.317 236.68 267.343 211.364 318.065 171.892C401.786 106.736 476.651 73.7198 555.913 38.773C596.267 20.9743 637.995 2.57449 680.85 -20.4216C798.119 -83.3499 879.779 -187.13 944.73 -289H943.457C878.634 -187.434 797.164 -84.057 680.342 -21.3692Z" fill="#FFF2DE"/>
<path d="M680.4 14.1504C634.274 37.1748 588.74 53.8138 544.707 69.9153C462.415 99.997 384.687 128.41 300.903 195.178C254.75 231.963 208.548 258.347 163.867 283.86C106.12 316.841 51.575 347.99 3.65198 397.78C2.43797 399.039 1.22037 400.34 0 401.655V403.14C1.464 401.549 2.92386 399.993 4.37846 398.48C52.2012 348.79 106.685 317.675 164.368 284.737C209.082 259.202 255.318 232.798 301.532 195.97C385.188 129.301 462.841 100.916 545.053 70.8629C589.114 54.7543 634.673 38.1012 680.85 15.0485C753.067 -21.0015 816.851 -76.6815 875.833 -155.181C907.817 -197.744 935.962 -243.8 961.475 -289H960.365C893.462 -170.321 811.788 -51.4367 680.4 14.1504Z" fill="#FFF2DE"/>
<path d="M680.454 49.6629C631.603 72.3762 582.745 86.8937 535.496 100.938C494.411 113.15 451.927 125.772 410.17 143.649C363.39 163.682 322.251 188.432 284.403 219.312C244.278 252.053 205.063 278.146 167.139 303.377C109.008 342.065 54.0997 378.595 6.14658 432.798C4.11162 435.096 2.06203 437.479 0 439.94V441.411C2.30097 438.653 4.58591 435.98 6.85317 433.42C54.7245 379.317 109.582 342.814 167.662 304.169C205.604 278.917 244.838 252.81 284.999 220.041C369.183 151.349 453.868 126.182 535.765 101.843C583.046 87.7847 631.938 73.2601 680.851 50.5185C755.019 16.0385 819.269 -39.9668 877.283 -120.715C915.483 -173.885 947.361 -232.775 975.689 -289H974.649C907.775 -156.107 826.504 -18.2294 680.454 49.6629Z" fill="#FFF2DE"/>
<path d="M680.508 85.1824C629.202 107.408 577.244 119.627 526.997 131.436C484.153 141.506 439.85 151.922 396.638 168.462C348.215 187.003 306.105 211.527 267.902 243.447C237.467 268.869 208.167 291.327 179.832 313.044C117.761 360.613 59.1328 405.544 8.64364 467.815C5.79191 471.33 2.90783 475.014 0 478.825V480.275C3.13958 476.145 6.25099 472.157 9.32511 468.367C59.7488 406.174 118.337 361.278 180.365 313.737C208.708 292.013 238.016 269.555 268.464 244.119C353.431 173.136 441.769 152.368 527.197 132.292C577.482 120.469 629.479 108.249 680.856 85.9886C757.36 52.838 822.437 -3.85336 879.793 -87.324C923.403 -150.783 957.656 -222.621 987.774 -289H986.812C920.341 -142.403 841.127 15.5858 680.508 85.1824Z" fill="#FFF2DE"/>
<path d="M680.557 120.702C626.946 142.369 572.004 152.163 518.871 161.638C474.199 169.601 428.005 177.839 383.275 193.092C333.146 210.19 290.01 234.551 251.403 267.575C242.874 274.872 234.483 282.022 226.226 289.058C143.652 359.404 72.3389 420.161 11.1427 502.826C7.49623 507.754 3.77767 512.952 0 518.383V519.797C4.00307 514.034 7.93876 508.518 11.7949 503.306C72.9364 420.72 144.216 359.991 226.751 289.673C235.009 282.637 243.401 275.488 251.93 268.197C337.792 194.746 429.919 178.32 519.014 162.437C572.188 152.955 627.171 143.154 680.861 121.452C759.962 89.4889 826.072 31.8925 882.976 -54.6259C931.379 -128.239 966.878 -213.265 998.126 -289H997.249C934.455 -136.817 855.588 49.974 680.557 120.702Z" fill="#FFF2DE"/>
<path d="M680.605 156.221C624.776 177.273 566.914 184.578 510.957 191.642C464.41 197.518 416.278 203.6 369.996 217.587C318.123 233.271 273.933 257.519 234.903 291.709C139.895 374.939 73.7241 448.546 13.6442 537.836C9.23176 544.398 4.67678 551.371 0 558.689V560.075C4.89473 552.396 9.65633 545.105 14.2626 538.253C74.3047 449.019 140.437 375.456 235.394 292.268C322.198 216.229 418.205 204.109 511.05 192.385C567.051 185.313 624.957 178.001 680.869 156.922C762.741 126.048 830.039 67.3837 886.603 -22.4158C935.488 -100.017 969.777 -190.361 1000 -270.318V-272.425C999.993 -272.411 999.986 -272.389 999.979 -272.375C939.462 -112.258 864.145 87.0067 680.605 156.221Z" fill="#FFF2DE"/>
<path d="M680.652 191.741C622.662 212.156 561.914 216.915 503.166 221.519C454.71 225.316 404.605 229.241 356.751 241.99C303.113 256.275 257.859 280.437 218.405 315.837C134.451 391.175 76.832 473.069 16.1476 572.853C11.0095 581.297 5.60904 590.348 0 599.852V601.188C5.81704 591.324 11.4139 581.94 16.7285 573.207C77.3815 473.472 134.967 391.628 218.859 316.346C306.608 237.599 406.559 229.771 503.219 222.198C562.01 217.587 622.804 212.828 680.878 192.385C765.647 162.543 834.233 102.705 890.549 9.44086C938.719 -70.3244 971.326 -163.518 1000 -246.31V-248.382C942.206 -81.476 869.894 125.129 680.652 191.741Z" fill="#FFF2DE"/>
<path d="M680.697 227.268C620.584 247.018 556.967 249.189 495.445 251.289C445.055 253.008 392.95 254.783 343.51 266.302C288.092 279.214 241.773 303.306 201.906 339.971C125.535 410.204 78.8417 496.596 33.686 580.144C28.7662 589.245 23.6789 598.657 18.6533 607.857C12.8595 618.471 6.61976 629.891 0 641.948V643.228C6.8214 630.803 13.2406 619.051 19.1919 608.154C24.2184 598.947 29.3062 589.535 34.2261 580.434C79.3579 496.928 126.026 410.586 202.322 340.424C290.995 258.877 394.941 255.334 495.465 251.904C557.031 249.804 620.692 247.626 680.89 227.848C768.66 199.003 838.603 137.9 894.721 41.0286C941.986 -40.554 972.931 -136.074 1000 -221.405V-223.434C944.928 -49.7963 875.303 163.314 680.697 227.268Z" fill="#FFF2DE"/>
<path d="M680.742 262.787C618.529 281.873 552.052 281.413 487.758 280.975C435.414 280.614 381.285 280.24 330.25 290.543C302.779 296.079 278.332 304.19 255.509 315.321C229.905 327.809 206.975 343.769 185.409 364.099C120.522 425.281 83.8044 506.192 48.2967 584.429C39.4937 603.826 30.3915 623.888 21.1606 642.867C14.5284 656.508 7.45755 670.651 0 685.168V686.3C7.5294 671.697 14.7742 657.251 21.6536 643.108C30.8876 624.121 39.9917 604.06 48.7956 584.656C84.2817 506.46 120.976 425.606 185.785 364.502C275.339 280.063 383.325 280.805 487.754 281.527C552.086 281.965 618.61 282.425 680.902 263.311C771.743 235.442 843.1 172.995 899.063 72.4045C945.253 -10.6348 974.557 -107.923 1000 -195.481V-197.447C947.643 -17.1971 880.359 201.549 680.742 262.787Z" fill="#FFF2DE"/>
<path d="M53.3097 602.447C81.6943 524.98 111.046 444.876 169.247 388.58C259.527 301.249 371.477 306.298 479.745 311.184C546.962 314.218 616.468 317.35 680.916 298.774C884.85 240.767 950.373 18.1599 1000 -168.341V-170.222C950.352 16.5192 885.097 240.201 680.783 298.307C616.413 316.869 546.945 313.737 479.766 310.703C425.5 308.256 369.387 305.725 316.804 314.79C288.501 319.67 263.408 327.434 240.091 338.508C213.933 350.939 190.65 367.203 168.912 388.234C110.631 444.607 81.2601 524.761 52.8561 602.285C43.1166 628.859 33.918 653.969 23.6698 677.871C16.6062 694.347 8.66938 711.637 0 729.449V730.439C8.8224 712.4 16.9189 694.842 24.1134 678.062C34.3666 654.146 43.5677 629.036 53.3097 602.447Z" fill="#FFF2DE"/>
<path d="M5.63818 762.26C6.58177 760.542 7.51985 758.831 8.44712 757.127C9.19683 755.437 9.94258 753.754 10.6749 752.085C9.32249 754.786 7.94718 757.509 6.55442 760.245C6.25196 760.91 5.94341 761.589 5.63818 762.26Z" fill="#FFF2DE"/>
<path d="M13.8324 744.78C14.191 743.939 14.5451 743.097 14.8995 742.263C14.188 743.833 13.4654 745.409 12.7378 746.993C13.1035 746.251 13.47 745.516 13.8324 744.78Z" fill="#FFF2DE"/>
<path d="M6.29784 761.921C5.31447 763.717 4.32393 765.513 3.32399 767.324C2.62983 768.83 1.93181 770.336 1.22412 771.856C1.99728 770.562 2.77292 769.268 3.5389 767.981C4.47199 765.952 5.38823 763.936 6.29784 761.921Z" fill="#FFF2DE"/>
<path d="M0 775.583C0.622614 774.254 1.23362 772.938 1.84657 771.623C1.23058 772.655 0.620127 773.681 0 774.713V775.583Z" fill="#FFF2DE"/>
<path d="M26.5715 713.015C36.6194 686.088 44.9712 656.678 53.8126 625.542C76.11 547.022 99.1662 465.828 152.709 412.658C243.835 322.166 360.012 331.507 472.366 340.551C542.244 346.173 614.503 351.986 680.932 334.237C778.093 308.278 852.399 242.988 908.093 134.64C951.639 49.9246 977.831 -49.1172 1000 -139.907V-141.661C952.982 51.1125 889.191 278.161 680.824 333.834C614.464 351.562 542.242 345.756 472.4 340.134C416.082 335.601 357.849 330.92 303.611 338.798C274.42 343.041 248.635 350.48 224.783 361.539C198.026 373.95 174.354 390.574 152.415 412.361C128.422 436.185 108.345 468.084 91.0362 509.876C75.7373 546.81 64.3874 586.777 53.4124 625.429C44.5728 656.557 36.2237 685.96 26.1809 712.874C22.6038 722.456 18.6104 732.419 14.2573 742.659C16.5558 737.596 18.7747 732.596 20.8981 727.681C22.8767 722.724 24.7757 717.831 26.5715 713.015Z" fill="#FFF2DE"/>
<path d="M14.2575 742.659C11.567 748.585 8.7642 754.602 5.84473 760.705C7.28663 757.883 8.70395 755.076 10.0984 752.297C11.5239 749.051 12.9034 745.848 14.2575 742.659Z" fill="#FFF2DE"/>
<path d="M3.91699 765.393C4.29625 764.707 4.66805 764.028 5.0451 763.342C5.42353 762.558 5.80058 761.773 6.17514 760.988C5.42685 762.451 4.67661 763.922 3.91699 765.393Z" fill="#FFF2DE"/>
<path d="M23.8765 721.777C35.2241 694.899 44.8254 665.658 54.9906 634.7C79.5536 559.899 104.954 482.545 158.161 430.195C248.281 341.167 356.575 346.675 471.222 352.509C537.747 355.889 606.539 359.39 670.761 342.34C875.727 288.032 947.848 73.5219 1000 -113.997V-115.553C947.848 72.1996 875.925 287.544 670.654 341.937C606.495 358.972 537.737 355.472 471.243 352.092C416.241 349.292 359.365 346.4 306.336 355.416C277.801 360.266 252.549 368.087 229.135 379.324C202.878 391.918 179.567 408.465 157.868 429.898C104.59 482.319 79.1739 559.722 54.5945 634.573C44.4321 665.517 34.8333 694.75 23.4923 721.614C22.6437 723.623 21.7772 725.645 20.8979 727.681C18.9821 732.476 16.9794 737.341 14.8994 742.263C18.0501 735.312 21.0488 728.466 23.8765 721.777Z" fill="#FFF2DE"/>
<path d="M0 773.681C0.535326 772.599 1.06982 771.517 1.59852 770.435C1.06762 771.397 0.535602 772.351 0 773.306V773.681Z" fill="#FFF2DE"/>
<path d="M12.7378 746.993C13.4653 745.409 14.188 743.832 14.8995 742.263C16.9795 737.341 18.9821 732.476 20.898 727.681C18.7747 732.596 16.5557 737.595 14.2573 742.659C12.9032 745.848 11.5237 749.051 10.0981 752.297C10.9879 750.522 11.8676 748.754 12.7378 746.993Z" fill="#FFF2DE"/>
<path d="M12.7378 746.993C13.4653 745.409 14.188 743.832 14.8995 742.263C16.9795 737.341 18.9821 732.476 20.898 727.681C18.7747 732.596 16.5557 737.595 14.2573 742.659C12.9032 745.848 11.5237 749.051 10.0981 752.297C10.9879 750.522 11.8676 748.754 12.7378 746.993Z" fill="#FFF2DE"/>
<path d="M5.84466 760.705C3.93677 764.446 1.98855 768.215 0 772.019V772.458C0.392517 771.75 0.780893 771.05 1.1712 770.35C2.75674 767.119 4.31879 763.901 5.84466 760.705Z" fill="#FFF2DE"/>
<path d="M7.10984 759.022C6.79797 759.672 6.4897 760.33 6.1748 760.988C6.30159 760.74 6.42783 760.493 6.55434 760.245C6.73776 759.835 6.92752 759.425 7.10984 759.022Z" fill="#FFF2DE"/>
<path d="M21.1813 730.531C33.8466 703.787 44.7343 674.823 56.2612 644.161C83.0341 572.938 110.718 499.297 163.614 447.732C252.894 360.019 358.645 362.077 470.608 364.255C533.624 365.485 598.788 366.751 660.591 350.444C760.082 324.308 838.567 259.895 900.555 153.549C944.086 78.8394 974.359 -7.58698 1000 -89.3888V-90.7749C942.679 92.2892 863.077 296.808 660.485 350.048C598.738 366.334 533.605 365.068 470.615 363.837C416.831 362.791 361.215 361.709 309.308 371.892C281.385 377.372 256.625 385.589 233.609 397.016C207.812 409.823 184.82 426.313 163.323 447.435C110.361 499.064 82.66 572.747 55.8711 644.013C44.3473 674.667 33.4621 703.625 20.8048 730.354C18.5636 735.085 16.2331 739.901 13.8323 744.78C12.7984 747.199 11.7468 749.631 10.6748 752.085C14.3301 744.78 17.8415 737.581 21.1813 730.531Z" fill="#FFF2DE"/>
<path d="M7.11019 759.022C6.92787 759.425 6.73811 759.835 6.55469 760.245C7.94744 757.508 9.32275 754.786 10.6752 752.085C11.7472 749.631 12.7988 747.198 13.8327 744.78C13.4703 745.515 13.1038 746.251 12.738 746.993C10.9122 750.967 9.03297 754.977 7.11019 759.022Z" fill="#FFF2DE"/>
<path d="M7.11019 759.022C6.92787 759.425 6.73811 759.835 6.55469 760.245C7.94744 757.508 9.32275 754.786 10.6752 752.085C11.7472 749.631 12.7988 747.198 13.8327 744.78C13.4703 745.515 13.1038 746.251 12.738 746.993C10.9122 750.967 9.03297 754.977 7.11019 759.022Z" fill="#FFF2DE"/>
<path d="M3.91707 765.393C4.67669 763.922 5.42693 762.451 6.17522 760.988C6.49012 760.33 6.79839 759.672 7.11025 759.022C8.12316 756.766 9.11839 754.524 10.0985 752.297C8.70407 755.076 7.28676 757.883 5.84485 760.705C4.31898 763.901 2.75693 767.119 1.17139 770.35C2.09149 768.696 3.0105 767.041 3.91707 765.393Z" fill="#FFF2DE"/>
<path d="M3.91707 765.393C4.67669 763.922 5.42693 762.451 6.17522 760.988C6.49012 760.33 6.79839 759.672 7.11025 759.022C8.12316 756.766 9.11839 754.524 10.0985 752.297C8.70407 755.076 7.28676 757.883 5.84485 760.705C4.31898 763.901 2.75693 767.119 1.17139 770.35C2.09149 768.696 3.0105 767.041 3.91707 765.393Z" fill="#FFF2DE"/>
<path d="M10.0981 752.297C9.118 754.524 8.12277 756.766 7.10986 759.022C9.03264 754.977 10.9119 750.968 12.7377 746.993C11.8676 748.754 10.9878 750.522 10.0981 752.297Z" fill="#FFF2DE"/>
<path d="M10.0981 752.297C9.118 754.524 8.12277 756.766 7.10986 759.022C9.03264 754.977 10.9119 750.968 12.7377 746.993C11.8676 748.754 10.9878 750.522 10.0981 752.297Z" fill="#FFF2DE"/>
<path d="M10.0981 752.297C9.118 754.524 8.12277 756.766 7.10986 759.022C9.03264 754.977 10.9119 750.968 12.7377 746.993C11.8676 748.754 10.9878 750.522 10.0981 752.297Z" fill="#FFF2DE"/>
<path d="M18.4863 739.286C32.4744 712.768 44.6977 684.214 57.6389 653.976C86.6246 586.261 116.596 516.24 169.066 465.276C257.97 378.928 361.33 377.415 470.759 375.809C530.025 374.94 591.307 374.042 650.421 358.555C751.66 332.179 832.691 267.773 898.151 161.674C941.272 91.7659 972.966 11.4421 1000 -65.7349V-66.9937C937.475 111.686 850.539 305.979 650.316 358.152C591.25 373.624 529.993 374.522 470.753 375.392C418.104 376.163 363.662 376.962 312.765 388.347C285.397 394.471 261.064 403.098 238.374 414.723C212.952 427.742 190.187 444.183 168.776 464.98C116.247 516 86.2569 586.063 57.2558 653.814C44.3182 684.037 32.0976 712.591 18.1176 739.088C15.0025 744.999 11.7726 751.017 8.44744 757.127C7.73698 758.718 7.02322 760.316 6.29785 761.921C10.5186 754.227 14.5918 746.668 18.4863 739.286Z" fill="#FFF2DE"/>
<path d="M5.04511 763.342C3.91175 765.697 2.76265 768.059 1.59863 770.435C2.17705 769.396 2.75133 768.363 3.32394 767.324C4.10593 765.627 4.87467 763.944 5.63844 762.261C5.44038 762.621 5.24399 762.982 5.04511 763.342Z" fill="#FFF2DE"/>
<path d="M8.44717 757.127C7.5199 758.831 6.58181 760.542 5.63823 762.26C4.87446 763.943 4.10573 765.626 3.32373 767.324C4.32367 765.513 5.31421 763.717 6.29758 761.921C7.02295 760.316 7.73671 758.718 8.44717 757.127Z" fill="#FFF2DE"/>
<path d="M8.44717 757.127C7.5199 758.831 6.58181 760.542 5.63823 762.26C4.87446 763.943 4.10573 765.626 3.32373 767.324C4.32367 765.513 5.31421 763.717 6.29758 761.921C7.02295 760.316 7.73671 758.718 8.44717 757.127Z" fill="#FFF2DE"/>
<path d="M3.91688 765.393C2.62802 767.896 1.32064 770.414 0 772.938V773.306C0.535602 772.351 1.06762 771.397 1.59852 770.435C2.76254 768.059 3.91164 765.697 5.045 763.342C4.66794 764.028 4.29614 764.707 3.91688 765.393Z" fill="#FFF2DE"/>
<path d="M3.91688 765.393C2.62802 767.896 1.32064 770.414 0 772.938V773.306C0.535602 772.351 1.06762 771.397 1.59852 770.435C2.76254 768.059 3.91164 765.697 5.045 763.342C4.66794 764.028 4.29614 764.707 3.91688 765.393Z" fill="#FFF2DE"/>
<path d="M0 772.457V772.733C0.391965 771.934 0.782824 771.142 1.1712 770.35C0.780893 771.05 0.392517 771.75 0 772.457Z" fill="#FFF2DE"/>
<path d="M0 772.457V772.733C0.391965 771.934 0.782824 771.142 1.1712 770.35C0.780893 771.05 0.392517 771.75 0 772.457Z" fill="#FFF2DE"/>
<path d="M1.1712 770.35C0.782824 771.142 0.391965 771.934 0 772.733V772.938C1.32064 770.414 2.62802 767.896 3.91688 765.393C3.01031 767.041 2.09131 768.696 1.1712 770.35Z" fill="#FFF2DE"/>
<path d="M1.1712 770.35C0.782824 771.142 0.391965 771.934 0 772.733V772.938C1.32064 770.414 2.62802 767.896 3.91688 765.393C3.01031 767.041 2.09131 768.696 1.1712 770.35Z" fill="#FFF2DE"/>
<path d="M1.1712 770.35C0.782824 771.142 0.391965 771.934 0 772.733V772.938C1.32064 770.414 2.62802 767.896 3.91688 765.393C3.01031 767.041 2.09131 768.696 1.1712 770.35Z" fill="#FFF2DE"/>
<path d="M0 773.9V774.459C0.409643 773.589 0.819284 772.719 1.22396 771.856C0.815423 772.535 0.410472 773.214 0 773.9Z" fill="#FFF2DE"/>
<path d="M640.146 366.256C584.173 380.816 527.073 383.687 471.853 386.459C417.737 389.174 366.622 391.741 316.575 404.392C289.677 411.195 265.7 420.274 243.278 432.154C218.174 445.455 195.588 461.932 174.229 482.517C122.026 532.829 89.8463 599.385 58.7261 663.742C44.3426 693.491 30.7567 721.586 15.4298 747.828C11.5651 754.447 7.59881 761.172 3.53884 767.981C2.98225 769.19 2.41184 770.407 1.84668 771.623C6.62207 763.639 11.2781 755.762 15.7895 748.04C31.125 721.784 44.7142 693.682 59.1014 663.926C90.2055 599.597 122.369 533.077 174.518 482.814C263.187 397.356 364.554 392.264 471.874 386.876C527.115 384.104 584.237 381.233 640.25 366.659C743.783 339.915 827.776 275.134 897.027 168.604C939.313 103.554 971.92 29.46 1000 -42.8167V-43.9694C932.228 130.588 838.249 315.087 640.146 366.256Z" fill="#FFF2DE"/>
<path d="M1.22396 771.856C0.819284 772.719 0.409643 773.589 0 774.459V774.713C0.620127 773.681 1.23058 772.655 1.84657 771.623C2.41173 770.407 2.98214 769.19 3.53873 767.981C2.77275 769.268 1.99711 770.562 1.22396 771.856Z" fill="#FFF2DE"/>
<path d="M1.22396 771.856C0.819284 772.719 0.409643 773.589 0 774.459V774.713C0.620127 773.681 1.23058 772.655 1.84657 771.623C2.41173 770.407 2.98214 769.19 3.53873 767.981C2.77275 769.268 1.99711 770.562 1.22396 771.856Z" fill="#FFF2DE"/>
<path d="M629.976 374.36C577.672 387.873 525.17 392.469 474.397 396.924C420.953 401.606 370.472 406.032 321.045 420.027C294.496 427.544 270.77 437.132 248.511 449.33C223.611 462.985 201.097 479.575 179.682 500.054C127.8 549.666 93.4865 612.793 60.3027 673.847C44.4293 703.045 29.4363 730.63 12.7426 756.568C8.46742 763.215 4.22073 769.784 0 776.29V777.075C4.60082 769.968 8.97847 763.187 13.0928 756.794C29.7954 730.842 44.7917 703.25 60.6686 674.045C93.8373 613.026 128.136 549.928 179.97 500.358C268.851 415.36 368.711 406.605 474.433 397.342C525.223 392.887 577.743 388.283 630.079 374.763C734.095 348.132 819.828 285.027 892.176 181.855C935.219 120.454 969.112 51.7065 1000 -20.4853V-21.0228C930.481 142.404 829.375 323.304 629.976 374.36Z" fill="#FFF2DE"/>
<path d="M619.806 382.47C572.045 394.711 524.821 400.693 479.152 406.478C374.17 419.779 275.009 432.338 185.137 517.591C133.582 566.496 97.1969 626.264 62.0091 684.065C44.5939 712.676 28.1444 739.696 10.0569 765.308C6.75704 769.982 3.40173 774.749 0 779.585V780.307C3.51801 775.3 6.98796 770.378 10.3968 765.549C28.493 739.922 44.9461 712.895 62.365 684.284C97.5385 626.504 133.909 566.765 185.423 517.895C275.197 432.734 374.291 420.182 479.204 406.888C524.886 401.104 572.123 395.121 619.909 382.866C724.138 356.42 811.371 295.372 886.575 196.246C932.15 136.174 968.794 68.1121 1000 1.59863V0.424805C917.979 175.286 812.474 333.579 619.806 382.47Z" fill="#FFF2DE"/>
<path d="M609.636 390.574C567.834 401.203 527.014 407.998 487.538 414.568C433.818 423.506 383.078 431.949 333.627 449.076C277.961 468.345 232.509 495.69 190.59 535.135C139.394 583.298 101.017 639.749 63.9033 694.333C44.8735 722.321 26.8994 748.761 7.37079 774.049C4.93726 777.202 2.47526 780.413 0 783.644V784.33C2.58713 780.95 5.15935 777.598 7.7001 774.303C27.2373 749.002 45.2143 722.562 64.2477 694.566C101.349 639.996 139.713 583.574 190.876 535.439C282.653 449.09 382.208 432.515 487.607 414.978C527.092 408.401 567.92 401.606 609.738 390.977C664.457 377.216 715.921 353.853 762.698 321.522C805.155 292.183 843.843 255.907 880.982 210.629C928.155 153.117 967.012 87.4734 1000 23.1027V21.8369C912.11 192.745 798.345 343.118 609.636 390.574Z" fill="#FFF2DE"/>
<path d="M599.466 398.678C566.128 407.086 533.778 413.712 502.493 420.119C446.892 431.511 394.374 442.266 343.611 461.387C286.721 482.813 239.831 511.82 196.043 552.672C145.281 600.029 105.029 653.149 66.1034 704.516C45.3472 731.91 25.742 757.777 4.68397 782.789C3.12854 784.634 1.5662 786.501 0 788.382V789.033C1.6731 787.024 3.34233 785.03 5.00328 783.057C26.0683 758.039 45.6762 732.165 66.4351 704.77C105.351 653.411 145.591 600.312 196.327 552.976C292.077 463.65 389.625 443.666 502.577 420.529C533.866 414.115 566.221 407.489 599.568 399.081C792.172 351.102 911.799 202.695 1000 44.3804V43.5248C911.806 202.009 792.186 350.663 599.466 398.678Z" fill="#FFF2DE"/>
<path d="M589.297 406.782C569.415 411.753 549.954 416.357 531.135 420.812C470.644 435.131 413.506 448.652 359.354 470.389C299.171 494.545 249.01 526.267 201.496 570.209C151.354 616.583 109.44 666.281 68.9063 714.338C46.2099 741.244 24.772 766.659 1.99822 791.529C1.33445 792.257 0.665704 792.993 0 793.728V794.343C0.768186 793.502 1.53968 792.646 2.30538 791.812C25.0852 766.935 46.5253 741.52 69.225 714.606C109.751 666.556 151.656 616.873 201.779 570.513C305.425 474.66 410.067 449.896 531.232 421.215C550.052 416.76 569.513 412.156 589.397 407.185C644.025 393.707 696.163 371.8 744.362 342.086C788.304 314.995 830.499 280.452 869.787 239.409C915.546 191.6 957.968 135.029 1000 65.3826V64.8805C911.997 211.251 786.699 358.067 589.297 406.782Z" fill="#FFF2DE"/>
<path d="M382.16 474.766C316.668 502.309 260.994 538.211 206.95 587.746C157.969 632.649 114.927 678.528 73.302 722.901C48.3439 749.504 24.7543 774.65 0 799.576V800.17C24.867 775.137 48.5465 749.9 73.6053 723.184C115.225 678.818 158.263 632.946 207.232 588.057C319.651 485.006 422.766 454.04 579.227 415.296C633.858 401.938 686.332 380.766 735.191 352.368C747.566 345.176 759.806 337.44 771.905 329.216C712.209 369.728 648.297 397.985 579.127 414.886C503.877 433.526 441.592 449.769 382.16 474.766Z" fill="#FFF2DE"/>
<path d="M568.958 422.997C491.103 442.089 432.72 462.342 379.654 488.655C321.301 517.591 268.156 554.652 212.404 605.29C167.406 646.156 125.833 686.024 85.6288 724.577C56.3653 752.644 28.6532 779.211 0 805.87V806.436C28.7565 779.692 56.5556 753.039 85.9173 724.881C126.12 686.328 167.69 646.46 212.684 605.594C331.743 497.465 437.312 455.716 569.056 423.4C623.732 410.162 676.545 389.726 726.026 362.65C772.224 337.369 816.823 305.591 858.593 268.183C897.182 233.625 934.477 193.255 969.452 148.189C979.74 134.93 989.937 121.119 1000 106.814V106.185C879.171 278.203 737.39 382.223 568.958 422.997Z" fill="#FFF2DE"/>
<path d="M558.789 431.1C490.186 447.754 432.467 470.46 377.142 502.543C327.367 531.408 278.242 568.505 217.857 622.827C147.041 686.533 80.2157 743.804 15.5902 799.194C10.3971 803.649 5.19857 808.104 0 812.559V813.111C5.2889 808.571 10.5778 804.038 15.8609 799.513C80.4886 744.122 147.316 686.844 218.137 623.138C320.494 531.054 413.201 466.882 558.887 431.504C613.662 418.379 666.81 398.671 716.862 372.931C764.268 348.549 810.07 318.149 852.993 282.573C905.441 239.105 954.637 187.102 1000 127.285V126.734C878.16 287.827 730.142 390.037 558.789 431.1Z" fill="#FFF2DE"/>
<path d="M548.619 439.204C485.937 454.266 430.981 478.578 375.671 515.717C325.159 549.638 278.98 590.772 225.508 638.405L223.311 640.364C167.706 689.899 112.434 732.532 58.9812 773.766C39.6133 788.708 19.6717 804.088 0 819.588V820.119C19.7538 804.547 39.784 789.096 59.2356 774.091C112.693 732.858 167.972 690.217 223.589 640.675L225.785 638.716C330.152 545.749 412.588 472.312 548.716 439.607C656.902 413.945 757.395 365.952 847.392 296.963C902.457 254.754 953.52 204.788 1000 147.708V146.965C877.311 297.586 723.077 397.823 548.619 439.204Z" fill="#FFF2DE"/>
<path d="M538.449 447.308C428.783 473.359 361.351 535.863 283.271 608.239C265.843 624.397 247.822 641.099 228.764 657.901C174.966 705.336 119.311 743.797 65.4874 780.993C43.9373 795.885 21.7669 811.209 0 826.928V827.438C21.8412 811.661 44.095 796.281 65.7239 781.332C119.557 744.137 175.223 705.668 229.04 658.219C248.101 641.411 266.125 624.701 283.555 608.55C361.591 536.21 428.986 473.741 538.544 447.718C648.461 421.908 750.486 376.029 841.799 311.347C899.431 270.516 952.36 222.516 1000 167.967V167.394C876.569 308.985 718.948 404.936 538.449 447.308Z" fill="#FFF2DE"/>
<path d="M528.279 455.419C484.61 465.665 446.106 483.994 407.109 513.093C372.456 538.953 342.1 569.792 309.962 602.433C286.18 626.589 261.589 651.565 234.218 675.445C181.135 721.749 124.159 756.922 69.0593 790.928C46.293 804.986 22.8925 819.447 0 834.551V835.046C22.9604 819.892 46.4386 805.382 69.278 791.289C124.392 757.261 181.382 722.088 234.492 675.756C261.875 651.869 286.472 626.886 310.258 602.723C373.274 538.72 432.796 478.259 528.375 455.822C640.444 429.792 744.009 386.02 836.198 325.737C896.376 286.384 951.165 240.314 1000 188.106V187.555C876.116 320.242 715.122 412.015 528.279 455.419Z" fill="#FFF2DE"/>
<path d="M518.111 463.523C431.103 483.69 379.173 542.821 324.195 605.431C298.124 635.117 271.165 665.814 239.673 692.982C186.969 738.444 128.418 770.612 71.7951 801.726C48.0918 814.744 23.7477 828.145 0 842.422V842.91C23.809 828.59 48.2252 815.147 71.9959 802.087C128.638 770.972 187.208 738.791 239.944 693.293C271.459 666.111 298.427 635.4 324.509 605.707C379.441 543.154 431.328 484.065 518.204 463.926C632.969 437.55 738.076 395.899 830.598 340.12C893.272 302.345 949.935 258.17 1000 208.161V207.503C875.918 331.408 711.558 419.065 518.111 463.523Z" fill="#FFF2DE"/>
<path d="M507.941 471.627C471.081 480.063 439.25 497.267 407.766 525.772C379.986 550.925 356.845 580.844 332.346 612.517C305.951 646.643 278.658 681.93 245.126 710.519C192.655 755.253 132.441 784.571 74.2107 812.913C49.6839 824.856 24.5012 837.125 0 850.49V850.971C24.556 837.557 49.8038 825.26 74.3931 813.295C132.647 784.931 192.885 755.606 245.396 710.837C278.961 682.22 306.267 646.912 332.675 612.771C381.305 549.9 427.238 490.514 508.035 472.037C626.204 445.173 732.85 405.629 825.004 354.51C875.508 326.493 922.462 294.517 964.558 259.464C976.7 249.359 988.516 238.907 1000 228.166V227.657C876.237 343.536 711.297 425.401 507.941 471.627Z" fill="#FFF2DE"/>
<path d="M497.771 479.73C479.389 483.881 462.568 490.642 446.347 500.4C431.884 509.098 418.222 520.016 404.583 533.763C379.236 559.312 357.712 591.19 336.896 622.014C311.313 659.909 284.858 699.085 250.58 728.056C198.19 772.026 136.323 798.593 76.4933 824.298C51.1891 835.167 25.2228 846.325 0 858.785V859.252C25.2719 846.757 51.2974 835.57 76.6581 824.68C136.515 798.968 198.411 772.38 250.849 728.375C285.171 699.368 311.642 660.164 337.242 622.247C380.612 558.018 421.577 497.345 497.863 480.141C622.116 452.209 727.292 415.819 819.404 368.893C871.98 342.114 920.539 311.53 963.745 278.012C976.176 268.36 988.261 258.375 1000 248.093V247.584C876.979 355.331 711.41 431.716 497.771 479.73Z" fill="#FFF2DE"/>
<path d="M487.602 487.834C470.133 491.723 454.276 498.392 439.126 508.228C425.63 516.989 413.007 528.084 400.537 542.149C377.382 568.271 358.29 600.955 339.827 632.564C315.615 674.017 290.579 716.876 256.034 745.593C203.801 789.019 140.202 812.87 78.6974 835.944C52.6407 845.717 25.9158 855.744 0 867.264V867.716C25.9583 856.168 52.737 846.127 78.8438 836.333C140.381 813.252 204.013 789.386 256.3 745.918C290.902 717.152 315.957 674.257 340.187 632.776C377.065 569.643 415.198 504.353 487.692 488.244C619.51 458.955 723.134 425.599 813.803 383.284C868.465 357.77 918.637 328.594 962.925 296.553C975.653 287.353 988.007 277.814 1000 267.971V267.44C844.861 394.775 649.21 451.926 487.602 487.834Z" fill="#FFF2DE"/>
<path d="M254.812 764.834C292.014 734.618 318.521 689.411 344.154 645.689C381.727 581.608 420.58 515.342 493.477 497.473C600.706 471.188 714.457 440.626 819.842 395.326C888.371 365.867 948.075 332.455 1000 294.418V294.05C853.877 401.486 671.116 453.481 493.373 497.048C460.577 505.088 431.848 523.531 405.545 553.45C382.085 580.13 362.609 613.344 343.775 645.469C318.161 689.156 291.676 734.329 254.536 764.495C201.889 807.256 138.185 831.001 76.5767 853.969C51.2361 863.41 25.2463 873.097 0 884.115V884.595C25.291 873.55 51.3363 863.841 76.7302 854.379C138.371 831.405 202.11 807.645 254.812 764.834Z" fill="#FFF2DE"/>
<path d="M530.271 497.953C519.842 500.732 509.463 503.497 499.144 506.255C466.157 515.087 437.183 534.215 410.565 564.736C386.809 591.982 366.971 625.712 347.786 658.339C320.772 704.275 292.837 751.774 253.038 783.397C200.315 825.281 136.856 848.751 75.4863 871.457C50.5098 880.692 24.8938 890.168 0 900.888V901.39C24.9407 890.642 50.6146 881.145 75.6461 871.888C137.05 849.175 200.544 825.684 253.325 783.758C293.191 752.085 321.148 704.544 348.183 658.573C386.419 593.551 425.956 526.324 499.263 506.701C509.582 503.936 519.961 501.178 530.39 498.399C633.708 470.898 740.544 442.457 841.276 401.259C895.775 378.97 943.089 355.196 985.921 328.587C990.673 325.638 995.354 322.632 1000 319.606V318.885C859.612 410.268 686.827 456.282 530.271 497.953Z" fill="#FFF2DE"/>
<path d="M602.776 488.188C570.39 497.041 536.902 506.192 504.915 515.469C471.738 525.086 442.522 544.893 415.599 576.029C391.56 603.826 371.376 638.066 351.857 671.181C323.443 719.38 294.062 769.226 251.54 802.292C198.548 843.504 135.058 866.797 73.6584 889.319C49.2948 898.257 24.3079 907.422 0 917.697V918.22C24.3573 907.917 49.4039 898.731 73.8239 889.772C135.259 867.235 198.785 843.935 251.837 802.674C294.431 769.551 323.836 719.663 352.273 671.422C392.929 602.454 431.331 537.306 505.049 515.929C537.032 506.658 570.519 497.501 602.904 488.654C695.371 463.374 790.984 437.238 880.437 401.174C924.343 383.468 964.07 364.361 1000 343.635V343.26C880.727 412.206 740.042 450.667 602.776 488.188Z" fill="#FFF2DE"/>
<path d="M659.774 482.531C607.81 496.497 558.73 509.685 510.685 524.676C477.321 535.085 447.871 555.571 420.651 587.307C396.338 615.656 375.825 650.398 355.987 683.987C326.175 734.477 295.348 786.678 250.043 821.193C196.754 861.79 133.16 884.907 71.66 907.252C47.965 915.865 23.6657 924.697 0 934.512V935.064C23.7171 925.214 48.0782 916.36 71.8318 907.726C133.368 885.366 196.998 862.243 250.348 821.596C295.732 787.017 326.585 734.774 356.421 684.249C397.712 614.327 436.711 548.28 510.834 525.157C558.871 510.173 607.948 496.984 659.904 483.019C776.53 451.671 895.867 419.595 1000 366.779V366.213C895.86 419.079 776.452 451.169 659.774 482.531Z" fill="#FFF2DE"/>
<path d="M706.723 480.423C642.889 496.794 576.883 513.715 516.454 533.883C482.909 545.084 453.231 566.249 425.724 598.593C401.147 627.487 380.32 662.71 360.179 696.772C328.969 749.553 296.697 804.13 248.545 840.095C194.919 880.141 131.139 903.08 69.4595 925.27C46.499 933.529 22.9566 942.001 0 951.335V951.901C23.0099 942.538 46.6167 934.046 69.6377 925.765C131.354 903.568 195.171 880.607 248.86 840.512C297.096 804.491 329.395 749.864 360.631 697.041C402.528 626.186 442.102 559.262 516.62 534.385C577.031 514.218 643.029 497.296 706.854 480.94C806.718 455.334 908.751 429.177 1000 388.821V388.241C908.73 428.64 806.64 454.811 706.723 480.423Z" fill="#FFF2DE"/>
<path d="M746.795 481.307C670.93 499.403 592.482 518.121 522.223 543.097C488.504 555.083 458.607 576.919 430.823 609.865C405.992 639.303 384.864 675 364.433 709.522C331.825 764.615 298.108 821.589 247.048 858.99C193.031 898.561 128.973 921.338 67.0232 943.373C44.8754 951.25 22.1699 959.333 0 968.158V968.745C22.2254 959.892 44.9969 951.795 67.2072 943.889C129.194 921.848 193.291 899.049 247.372 859.436C298.522 821.964 332.269 764.948 364.905 709.805C407.384 638.03 447.507 570.237 522.408 543.613C592.637 518.644 671.071 499.933 746.922 481.845C832.641 461.394 920.086 440.527 1000 409.999V409.412C920.065 439.968 832.571 460.85 746.795 481.307Z" fill="#FFF2DE"/>
<path d="M781.975 484.694C695.572 503.434 606.23 522.809 527.993 552.304C494.109 565.082 464.002 587.597 435.95 621.13C410.876 651.112 389.462 687.276 368.754 722.244C334.747 779.67 299.582 839.049 245.551 877.892C191.079 917.046 126.636 939.682 64.3162 961.575C43.0697 969.042 21.2931 976.693 0 984.981V985.589C21.3509 977.28 43.1951 969.601 64.5054 962.112C126.863 940.205 191.345 917.555 245.884 878.351C300.012 839.445 335.208 780.01 369.244 722.533C412.282 649.861 452.933 581.212 528.194 552.841C606.392 523.361 695.713 503.985 782.095 485.253C849.783 470.573 919.782 455.391 984.521 435.379C989.761 433.759 994.916 432.119 1000 430.457V429.792C930.311 452.513 855.468 468.756 781.975 484.694Z" fill="#FFF2DE"/>
<path d="M533.761 561.518C499.251 575.265 469.81 597.787 441.109 632.395C415.8 662.915 394.114 699.523 373.141 734.93C337.733 794.711 301.119 856.522 244.054 896.787C189.045 935.601 124.098 958.117 61.2885 979.882C41.0497 986.897 20.3109 994.096 0 1001.8V1002.44C20.37 994.697 41.1781 987.477 61.4824 980.441C124.331 958.661 189.318 936.132 244.395 897.275C301.564 856.932 338.21 795.065 373.651 735.234C417.224 661.67 458.381 592.187 533.982 562.07C618.761 528.29 717.845 509.225 813.669 490.783C875.94 478.797 940.268 466.401 1000 450.094V449.423C939.766 465.906 876.138 478.154 813.556 490.196C717.703 508.645 618.594 527.717 533.761 561.518Z" fill="#FFF2DE"/>
<path d="M539.53 570.725C504.876 585.271 475.253 608.444 446.301 643.645C420.769 674.696 399.799 710.095 377.598 747.58C340.786 809.731 302.72 874.003 242.556 915.688C186.909 954.242 121.314 976.644 57.8787 998.31C38.7722 1004.83 19.2007 1011.53 0 1018.63V1019.28C19.2623 1012.15 38.9039 1005.44 58.0774 998.89C121.552 977.209 187.188 954.8 242.906 916.19C303.181 874.427 341.281 810.106 378.127 747.891C422.213 673.458 463.855 603.154 539.768 571.291C630.069 533.395 738.083 515.469 842.549 498.13C894.976 489.425 948.952 480.466 1000 469.046V468.36C948.633 479.9 895.153 488.782 842.45 497.522C737.949 514.868 629.898 532.801 539.53 570.725Z" fill="#FFF2DE"/>
<path d="M869.292 506.425C756.751 521.961 640.375 538.013 545.299 579.939C510.517 595.277 480.721 619.093 451.532 654.889C425.787 686.462 404.581 722.279 382.128 760.196C343.909 824.743 304.388 891.49 241.06 934.583C184.641 972.981 118.222 995.298 53.9881 1016.88C36.1732 1022.87 17.932 1029.01 0 1035.46V1036.13C17.9948 1029.65 36.3077 1023.49 54.1909 1017.49C118.465 995.885 184.927 973.554 241.418 935.113C304.863 891.936 344.42 825.125 382.676 760.521C427.255 685.232 469.362 614.122 545.556 580.519C640.549 538.635 756.879 522.583 869.384 507.061C914.139 500.881 957.968 494.835 1000 487.382V486.738C957.939 494.198 914.083 500.252 869.292 506.425Z" fill="#FFF2DE"/>
<path d="M894.573 516.728C774.43 529.81 650.198 543.338 551.067 589.153C516.172 605.276 486.218 629.736 456.803 666.118C430.857 698.208 409.425 734.428 386.733 772.769C347.102 839.735 306.122 908.985 239.563 953.485C182.213 991.826 114.76 1014.09 49.5276 1035.61C33.191 1041.01 16.4719 1046.53 0 1052.28V1052.98C16.5374 1047.2 33.3284 1041.65 49.7334 1036.24C115.008 1014.7 182.504 992.42 239.929 954.029C306.612 909.451 347.631 840.138 387.3 773.101C432.349 696.978 474.901 625.076 551.343 589.747C650.376 543.981 774.55 530.461 894.643 517.378C930.552 513.468 965.824 509.628 1000 505.039V504.374C965.803 508.964 930.502 512.81 894.573 516.728Z" fill="#FFF2DE"/>
<path d="M918.63 528.268C791.231 538.331 659.497 548.74 556.835 598.36C479.997 635.506 436.971 708.263 391.418 785.299C350.37 854.712 307.924 926.493 238.067 972.38C179.576 1010.81 110.823 1033.05 44.3332 1054.55C29.7164 1059.28 14.767 1064.12 0 1069.11V1069.83C14.8339 1064.81 29.8559 1059.94 44.5428 1055.2C111.075 1033.67 179.873 1011.42 238.44 972.952C308.429 926.974 350.916 855.129 392.004 785.646C437.502 708.702 480.478 636.022 557.131 598.975C659.678 549.405 791.352 539.003 918.686 528.947C946.257 526.769 973.433 524.62 1000 522.123V521.445C973.419 523.941 946.222 526.09 918.63 528.268Z" fill="#FFF2DE"/>
<path d="M941.753 540.954C807.347 547.467 668.375 554.206 562.603 607.574C485.593 646.431 442.162 719.945 396.182 797.78C353.711 869.675 309.795 944.016 236.57 991.282C176.668 1029.95 106.274 1052.21 38.1988 1073.73C25.61 1077.71 12.7453 1081.78 0 1085.94V1086.68C12.8141 1082.5 25.7514 1078.4 38.4104 1074.4C106.53 1052.86 176.97 1030.59 236.951 991.868C310.315 944.518 354.274 870.099 396.787 798.141C442.713 720.398 486.093 646.962 562.919 608.196C668.557 554.899 807.46 548.16 941.788 541.655C961.426 540.7 980.858 539.759 1000 538.685V537.977C980.851 539.052 961.404 540 941.753 540.954Z" fill="#FFF2DE"/>
<path d="M964.148 554.68C822.932 557.155 676.908 559.715 568.371 616.788C491.229 657.35 447.416 731.599 401.03 810.219C357.13 884.617 311.736 961.553 235.074 1010.18C173.402 1049.3 100.927 1071.62 30.8379 1093.21C20.678 1096.34 10.3102 1099.54 0 1102.78V1103.53C10.3795 1100.27 20.8203 1097.06 31.0506 1093.9C101.185 1072.3 173.708 1049.96 235.462 1010.79C312.27 962.07 357.71 885.062 401.653 810.586C447.986 732.059 491.748 657.894 568.708 617.424C677.093 560.436 823.031 557.876 964.162 555.401C976.198 555.189 988.148 554.977 1000 554.737V554.015C988.148 554.256 976.191 554.468 964.148 554.68Z" fill="#FFF2DE"/>
<path d="M985.999 569.381C838.101 567.352 685.165 565.252 574.139 625.995C496.911 668.246 452.735 743.224 405.965 822.601C360.629 899.544 313.749 979.105 233.577 1029.08C169.643 1068.93 94.4829 1091.38 21.7973 1113.08C14.6146 1115.23 7.30453 1117.41 0 1119.61V1120.39C7.37553 1118.17 14.7573 1115.96 22.0105 1113.79C94.7431 1092.08 169.952 1069.62 233.972 1029.71C314.299 979.642 361.226 899.997 406.608 822.975C453.323 743.691 497.449 668.805 574.496 626.653C685.351 566.001 838.193 568.102 985.984 570.124C990.673 570.188 995.34 570.251 1000 570.315V569.572C995.347 569.509 990.68 569.445 985.999 569.381Z" fill="#FFF2DE"/>
<path d="M779.16 583.383C695.776 589.436 630.599 606.393 579.905 635.209C502.636 679.136 458.119 754.807 410.988 834.926C364.209 914.444 315.836 996.677 232.081 1047.98C173.457 1083.89 105.776 1105.7 38.7192 1125.28H41.4511C107.732 1105.87 174.51 1084.14 232.482 1048.63C316.4 997.229 364.822 914.918 411.65 835.315C458.727 755.288 503.193 679.702 580.285 635.874C691.571 572.613 847.93 578.588 1000 585.441V584.677C926.323 581.353 850.454 578.199 779.16 583.383Z" fill="#FFF2DE"/>
<path d="M791.302 592.908C704.536 597.13 637.275 613.981 585.673 644.423C508.409 690.005 463.573 766.355 416.104 847.195C367.873 929.329 317.999 1014.26 230.586 1066.87C189.077 1091.86 143.261 1110.05 96.2148 1125.28H98.7655C145.049 1110.19 190.1 1092.16 230.993 1067.55C318.579 1014.84 368.503 929.817 416.785 847.591C464.2 766.85 508.985 690.578 586.074 645.102C694.429 581.177 848.156 588.729 1000 600.142V599.35C930.022 594.096 858.686 589.634 791.302 592.908Z" fill="#FFF2DE"/>
<path d="M803.352 602.737C713.199 604.915 643.882 621.568 591.44 653.637C514.227 700.853 469.095 777.867 421.313 859.4C371.621 944.193 320.238 1031.87 229.09 1085.77C203.109 1101.14 174.982 1114.09 146.176 1125.28H148.395C176.565 1114.25 204.058 1101.52 229.503 1086.47C320.832 1032.47 372.269 944.695 422.013 859.81C469.742 778.362 514.825 701.44 591.863 654.33C696.967 590.051 853.566 599.329 1000 614.44V613.62C933.819 606.775 866.888 601.203 803.352 602.737Z" fill="#FFF2DE"/>
<path d="M814.857 612.849C721.536 612.849 650.337 629.205 597.206 662.851C520.094 711.672 474.688 789.33 426.617 871.542C375.457 959.036 322.556 1049.51 227.595 1104.67C214.809 1112.1 201.611 1118.93 188.136 1125.28H190.101C203.039 1119.14 215.715 1112.53 228.012 1105.39C323.164 1050.12 376.122 959.545 427.336 871.959C475.355 789.839 520.711 712.273 597.652 663.551C699.95 598.777 853.467 609.314 1000 628.35V627.501C937.701 619.383 875.084 612.885 815.345 612.849C815.182 612.849 815.019 612.849 814.857 612.849Z" fill="#FFF2DE"/>
<path d="M437.983 880.063C486.765 796.628 532.842 717.831 611.21 669.937C710.384 609.116 858.318 618.754 1000 636.857V636.029C940.424 628.385 880.628 622.318 823.583 622.162C822.855 622.162 822.141 622.162 821.426 622.162C731.358 622.162 662.433 637.571 610.785 669.244C532.245 717.244 486.118 796.133 437.283 879.653C386.876 965.86 334.755 1055 243.313 1109.98C234.353 1115.37 225.175 1120.45 215.82 1125.28H217.572C226.463 1120.66 235.198 1115.81 243.731 1110.68C335.35 1055.59 387.526 966.355 437.983 880.063Z" fill="#FFF2DE"/>
<path d="M448.635 888.216C498.171 803.423 544.959 723.34 624.766 676.315C720.801 619.348 863.148 628.138 1000 645.363V644.557C943.196 637.373 886.257 631.709 831.927 631.433C830.563 631.419 829.212 631.419 827.854 631.419C741.103 631.419 674.498 645.894 624.364 675.636C544.382 722.76 497.543 802.935 447.953 887.82C398.336 972.747 347.031 1060.57 259.032 1115.3C253.48 1118.75 247.853 1122.07 242.17 1125.28H243.777C249.054 1122.27 254.283 1119.18 259.449 1115.97C347.613 1061.14 398.969 973.228 448.635 888.216Z" fill="#FFF2DE"/>
<path d="M459.503 896.334C509.765 810.247 557.24 728.933 638.322 682.7C731.301 629.686 868.034 637.649 1000 653.983V653.191C946.031 646.481 892.013 641.22 840.441 640.817C754.064 640.145 687.787 653.609 637.941 682.036C600.939 703.13 568.694 732.54 536.465 774.586C508.043 811.668 484.143 852.605 458.839 895.945C409.982 979.628 359.462 1066.16 274.751 1120.61C272.292 1122.19 269.814 1123.75 267.321 1125.28H268.772C270.914 1123.95 273.049 1122.62 275.166 1121.26C360.032 1066.71 410.599 980.095 459.503 896.334Z" fill="#FFF2DE"/>
<path d="M848.998 650.031C764.862 649.111 700.267 661.656 651.521 688.428C613.871 709.098 581.093 738.529 548.363 781.035C519.499 818.521 495.252 860.143 469.58 904.212C421.752 986.31 372.292 1071.18 291.417 1125.28H292.74C373.214 1071.06 422.534 986.445 470.225 904.586C521.216 817.057 569.379 734.385 651.879 689.079C742.312 639.424 869.582 646.389 1000 662.476V661.741C948.881 655.461 897.797 650.568 848.998 650.031Z" fill="#FFF2DE"/>
<path d="M857.653 659.195C775.738 657.993 712.76 669.654 665.097 694.821C626.795 715.045 593.48 744.483 560.25 787.47C530.946 825.38 505.216 869.682 480.331 912.52C434.896 990.744 387.959 1071.53 314.573 1125.28H315.784C388.839 1071.44 435.647 990.893 480.957 912.888C532.665 823.866 581.504 739.781 665.435 695.464C752.699 649.387 874.674 655.681 1000 670.983V670.269C951.766 664.407 903.652 659.86 857.653 659.195Z" fill="#FFF2DE"/>
<path d="M866.393 668.296C786.685 666.832 725.27 677.602 678.676 701.22C640.249 720.695 605.399 751.01 572.133 793.905C542.392 832.246 516.318 877.305 491.104 920.886C448.014 995.355 403.547 1072.17 336.89 1125.28H338.005C404.385 1072.11 448.735 995.51 491.711 921.232C544.117 830.669 593.617 745.12 678.992 701.843C763.08 659.223 879.765 664.909 1000 679.455V678.762C954.694 673.303 909.571 669.088 866.393 668.296Z" fill="#FFF2DE"/>
<path d="M875.225 677.34C797.645 675.594 737.786 685.494 692.253 707.613C653.175 726.6 617.767 756.922 584.013 800.319C553.839 839.112 527.434 884.956 501.899 929.287C461.112 1000.1 419.066 1073.07 358.487 1125.28H359.519C419.866 1073.03 461.805 1000.26 502.487 929.626C555.575 837.458 605.718 750.402 692.551 708.228C773.433 668.939 884.849 674.059 1000 687.884V687.212C957.663 682.149 915.553 678.253 875.225 677.34Z" fill="#FFF2DE"/>
</g>
</g>
<defs>
<clipPath id="clip0_5_2577">
<rect width="375" height="836" fill="white"/>
</clipPath>
<clipPath id="clip1_5_2577">
<rect width="1000" height="1414.28" fill="white" transform="translate(0 -289)"/>
</clipPath>
</defs>
</svg>
