<svg width="20" height="20" viewBox="0 0 20 20" fill="none" xmlns="http://www.w3.org/2000/svg">
<path d="M19.8631 7.32858C19.6927 6.786 19.3521 6.31267 18.8918 5.97861C18.4316 5.64454 17.876 5.46747 17.3073 5.47358H13.6665L12.5606 2.02691C12.3867 1.48438 12.045 1.01109 11.5848 0.675301C11.1245 0.339511 10.5695 0.158569 9.99979 0.158569C9.43007 0.158569 8.87507 0.339511 8.41482 0.675301C7.95457 1.01109 7.61286 1.48438 7.43896 2.02691L6.33313 5.47358H2.69229C2.12541 5.47439 1.57329 5.65432 1.11478 5.98767C0.656268 6.32102 0.314828 6.79074 0.139229 7.32974C-0.0363704 7.86873 -0.0371476 8.44944 0.137008 8.98891C0.311164 9.52837 0.651345 9.999 1.10896 10.3336L4.07229 12.5002L2.94563 15.9894C2.76355 16.5306 2.76125 17.1161 2.93905 17.6587C3.11686 18.2012 3.46525 18.6718 3.93229 19.0002C4.39134 19.3392 4.94762 19.5208 5.51826 19.518C6.08889 19.5151 6.64333 19.328 7.09896 18.9844L9.99979 16.8494L12.9015 18.9819C13.3597 19.319 13.913 19.502 14.4818 19.5048C15.0506 19.5076 15.6056 19.3299 16.0671 18.9973C16.5286 18.6648 16.8727 18.1945 17.05 17.654C17.2274 17.1135 17.2287 16.5307 17.054 15.9894L15.9273 12.5002L18.894 10.3336C19.3568 10.0032 19.701 9.53258 19.8755 8.99137C20.0501 8.45016 20.0457 7.86713 19.8631 7.32858ZM17.9106 8.98775L14.4573 11.5119C14.3155 11.6154 14.2099 11.761 14.1557 11.928C14.1016 12.095 14.1015 12.2749 14.1556 12.4419L15.4681 16.5002C15.5345 16.7061 15.534 16.9277 15.4665 17.1332C15.399 17.3387 15.2681 17.5175 15.0927 17.6439C14.9172 17.7703 14.7061 17.8378 14.4898 17.8367C14.2735 17.8356 14.0632 17.7659 13.889 17.6377L10.4931 15.1377C10.3501 15.0327 10.1773 14.976 9.99979 14.976C9.82232 14.976 9.64949 15.0327 9.50646 15.1377L6.11063 17.6377C5.93653 17.7677 5.72558 17.8388 5.50835 17.8408C5.29112 17.8427 5.07891 17.7755 4.90249 17.6487C4.72606 17.522 4.59458 17.3423 4.52712 17.1358C4.45966 16.9293 4.45972 16.7067 4.52729 16.5002L5.84396 12.4419C5.89806 12.2749 5.89802 12.095 5.84385 11.928C5.78967 11.761 5.68414 11.6154 5.54229 11.5119L2.08896 8.98775C1.91505 8.86041 1.78582 8.68137 1.71975 8.4762C1.65367 8.27103 1.65412 8.05023 1.72103 7.84533C1.78794 7.64043 1.9179 7.46192 2.09233 7.33529C2.26676 7.20866 2.47675 7.1404 2.69229 7.14025H6.94229C7.11872 7.14024 7.2906 7.08424 7.43317 6.98031C7.57574 6.87638 7.68164 6.72988 7.73563 6.56191L9.02729 2.53608C9.0936 2.33007 9.22356 2.15041 9.39846 2.02295C9.57337 1.8955 9.78421 1.82683 10.0006 1.82683C10.217 1.82683 10.4279 1.8955 10.6028 2.02295C10.7777 2.15041 10.9077 2.33007 10.974 2.53608L12.2656 6.56191C12.3196 6.72988 12.4255 6.87638 12.5681 6.98031C12.7107 7.08424 12.8825 7.14024 13.059 7.14025H17.309C17.5245 7.1404 17.7345 7.20866 17.9089 7.33529C18.0834 7.46192 18.2133 7.64043 18.2802 7.84533C18.3471 8.05023 18.3476 8.27103 18.2815 8.4762C18.2154 8.68137 18.0862 8.86041 17.9123 8.98775H17.9106Z" fill="#131921"/>
</svg>
