<svg width="45" height="45" viewBox="0 0 45 45" fill="none" xmlns="http://www.w3.org/2000/svg">
<path d="M34.4531 23.9062C34.2854 23.9061 34.1234 23.846 33.9961 23.7368L29.2711 19.6875H17.5781C16.6461 19.6864 15.7525 19.3156 15.0934 18.6566C14.4344 17.9975 14.0636 17.1039 14.0625 16.1719V4.92188C14.0636 3.98982 14.4344 3.09625 15.0934 2.43719C15.7525 1.77812 16.6461 1.40737 17.5781 1.40625H37.2656C38.1977 1.40737 39.0912 1.77812 39.7503 2.43719C40.4094 3.09625 40.7801 3.98982 40.7812 4.92188V16.1719C40.7801 17.1039 40.4094 17.9975 39.7503 18.6566C39.0912 19.3156 38.1977 19.6864 37.2656 19.6875H35.1562V23.2031C35.1562 23.3896 35.0822 23.5684 34.9503 23.7003C34.8184 23.8322 34.6396 23.9062 34.4531 23.9062ZM17.5781 2.8125C17.0187 2.8125 16.4822 3.03474 16.0866 3.43032C15.691 3.82591 15.4688 4.36243 15.4688 4.92188V16.1719C15.4688 16.7313 15.691 17.2678 16.0866 17.6634C16.4822 18.059 17.0187 18.2812 17.5781 18.2812H29.5312C29.699 18.2811 29.8612 18.3412 29.9883 18.4507L33.75 21.6745V18.9844C33.75 18.7979 33.8241 18.6191 33.9559 18.4872C34.0878 18.3553 34.2666 18.2812 34.4531 18.2812H37.2656C37.8251 18.2812 38.3616 18.059 38.7572 17.6634C39.1528 17.2678 39.375 16.7313 39.375 16.1719V4.92188C39.375 4.36243 39.1528 3.82591 38.7572 3.43032C38.3616 3.03474 37.8251 2.8125 37.2656 2.8125H17.5781Z" fill="#FD9800"/>
<path d="M27.4219 15.4687C27.2612 15.4671 27.106 15.4099 26.9826 15.3069C26.8592 15.2038 26.7754 15.0612 26.7452 14.9033C26.715 14.7455 26.7404 14.582 26.817 14.4407C26.8937 14.2994 27.0169 14.189 27.1657 14.1282C27.3145 14.0674 27.4797 14.06 27.6334 14.1073C27.787 14.1545 27.9196 14.2534 28.0086 14.3873C28.0976 14.5212 28.1375 14.6817 28.1215 14.8417C28.1056 15.0016 28.0348 15.1511 27.9212 15.2648C27.7864 15.3933 27.6081 15.4661 27.4219 15.4687Z" fill="#FD9800"/>
<path d="M27.4219 13.3594C27.2354 13.3594 27.0566 13.2853 26.9247 13.1534C26.7928 13.0216 26.7188 12.8427 26.7188 12.6562V11.1255C26.7206 10.8175 26.8262 10.5191 27.0185 10.2784C27.2107 10.0377 27.4784 9.86872 27.7784 9.79875C28.1231 9.70875 28.4209 9.49121 28.6115 9.1901C28.802 8.88899 28.8712 8.52677 28.8049 8.17664C28.7508 7.8984 28.6148 7.64268 28.4143 7.44224C28.2139 7.24181 27.9582 7.1058 27.6799 7.05164C27.4766 7.01368 27.2674 7.02105 27.0673 7.0732C26.8671 7.12535 26.681 7.22101 26.522 7.35336C26.3631 7.48571 26.2353 7.65149 26.1478 7.83888C26.0602 8.02628 26.0151 8.23067 26.0156 8.4375C26.0156 8.62398 25.9415 8.80282 25.8097 8.93468C25.6778 9.06654 25.499 9.14062 25.3125 9.14062C25.126 9.14062 24.9472 9.06654 24.8153 8.93468C24.6835 8.80282 24.6094 8.62398 24.6094 8.4375C24.6095 7.91183 24.7569 7.39672 25.0349 6.95059C25.313 6.50446 25.7105 6.14518 26.1823 5.9135C26.6542 5.68183 27.1815 5.58702 27.7045 5.63985C28.2275 5.69268 28.7253 5.89102 29.1413 6.21238C29.5573 6.53374 29.8749 6.96525 30.0581 7.45796C30.2413 7.95067 30.2827 8.48486 30.1777 8.99993C30.0727 9.51501 29.8254 9.99034 29.464 10.372C29.1025 10.7537 28.6413 11.0264 28.1327 11.1593L28.125 12.6562C28.125 12.8427 28.0509 13.0216 27.9191 13.1534C27.7872 13.2853 27.6084 13.3594 27.4219 13.3594Z" fill="#FD9800"/>
<path d="M10.5469 43.5938C10.3604 43.5938 10.1816 43.5197 10.0497 43.3878C9.91783 43.2559 9.84375 43.0771 9.84375 42.8906V39.375H7.73438C6.80232 39.3739 5.90875 39.0031 5.24969 38.3441C4.59062 37.685 4.21987 36.7914 4.21875 35.8594V24.6094C4.21987 23.6773 4.59062 22.7838 5.24969 22.1247C5.90875 21.4656 6.80232 21.0949 7.73438 21.0938H27.4219C28.3539 21.0949 29.2475 21.4656 29.9066 22.1247C30.5656 22.7838 30.9364 23.6773 30.9375 24.6094V35.8594C30.9364 36.7914 30.5656 37.685 29.9066 38.3441C29.2475 39.0031 28.3539 39.3739 27.4219 39.375H15.7289L11.0046 43.4243C10.8772 43.5336 10.7148 43.5937 10.5469 43.5938ZM7.73438 22.5C7.17493 22.5 6.63841 22.7222 6.24282 23.1178C5.84724 23.5134 5.625 24.0499 5.625 24.6094V35.8594C5.625 36.4188 5.84724 36.9553 6.24282 37.3509C6.63841 37.7465 7.17493 37.9688 7.73438 37.9688H10.5469C10.7334 37.9688 10.9122 38.0428 11.0441 38.1747C11.1759 38.3066 11.25 38.4854 11.25 38.6719V41.362L15.011 38.1382C15.1385 38.0289 15.3008 37.9688 15.4688 37.9688H27.4219C27.9813 37.9688 28.5178 37.7465 28.9134 37.3509C29.309 36.9553 29.5312 36.4188 29.5312 35.8594V24.6094C29.5312 24.0499 29.309 23.5134 28.9134 23.1178C28.5178 22.7222 27.9813 22.5 27.4219 22.5H7.73438Z" fill="#FD9800"/>
<path d="M10.5469 26.7188H9.14062C8.95414 26.7188 8.7753 26.6447 8.64344 26.5128C8.51158 26.3809 8.4375 26.2021 8.4375 26.0156C8.4375 25.8291 8.51158 25.6503 8.64344 25.5184C8.7753 25.3866 8.95414 25.3125 9.14062 25.3125H10.5469C10.7334 25.3125 10.9122 25.3866 11.0441 25.5184C11.1759 25.6503 11.25 25.8291 11.25 26.0156C11.25 26.2021 11.1759 26.3809 11.0441 26.5128C10.9122 26.6447 10.7334 26.7188 10.5469 26.7188Z" fill="#FD9800"/>
<path d="M26.0156 26.7188H13.3594C13.1729 26.7188 12.9941 26.6447 12.8622 26.5128C12.7303 26.3809 12.6562 26.2021 12.6562 26.0156C12.6562 25.8291 12.7303 25.6503 12.8622 25.5184C12.9941 25.3866 13.1729 25.3125 13.3594 25.3125H26.0156C26.2021 25.3125 26.3809 25.3866 26.5128 25.5184C26.6447 25.6503 26.7188 25.8291 26.7188 26.0156C26.7188 26.2021 26.6447 26.3809 26.5128 26.5128C26.3809 26.6447 26.2021 26.7188 26.0156 26.7188Z" fill="#FD9800"/>
<path d="M10.5469 29.5312H9.14062C8.95414 29.5312 8.7753 29.4572 8.64344 29.3253C8.51158 29.1934 8.4375 29.0146 8.4375 28.8281C8.4375 28.6416 8.51158 28.4628 8.64344 28.3309C8.7753 28.1991 8.95414 28.125 9.14062 28.125H10.5469C10.7334 28.125 10.9122 28.1991 11.0441 28.3309C11.1759 28.4628 11.25 28.6416 11.25 28.8281C11.25 29.0146 11.1759 29.1934 11.0441 29.3253C10.9122 29.4572 10.7334 29.5312 10.5469 29.5312Z" fill="#FD9800"/>
<path d="M26.0156 29.5312H13.3594C13.1729 29.5312 12.9941 29.4572 12.8622 29.3253C12.7303 29.1934 12.6562 29.0146 12.6562 28.8281C12.6562 28.6416 12.7303 28.4628 12.8622 28.3309C12.9941 28.1991 13.1729 28.125 13.3594 28.125H26.0156C26.2021 28.125 26.3809 28.1991 26.5128 28.3309C26.6447 28.4628 26.7188 28.6416 26.7188 28.8281C26.7188 29.0146 26.6447 29.1934 26.5128 29.3253C26.3809 29.4572 26.2021 29.5312 26.0156 29.5312Z" fill="#FD9800"/>
<path d="M10.5469 32.3438H9.14062C8.95414 32.3438 8.7753 32.2697 8.64344 32.1378C8.51158 32.0059 8.4375 31.8271 8.4375 31.6406C8.4375 31.4541 8.51158 31.2753 8.64344 31.1434C8.7753 31.0116 8.95414 30.9375 9.14062 30.9375H10.5469C10.7334 30.9375 10.9122 31.0116 11.0441 31.1434C11.1759 31.2753 11.25 31.4541 11.25 31.6406C11.25 31.8271 11.1759 32.0059 11.0441 32.1378C10.9122 32.2697 10.7334 32.3438 10.5469 32.3438Z" fill="#FD9800"/>
<path d="M26.0156 32.3438H13.3594C13.1729 32.3438 12.9941 32.2697 12.8622 32.1378C12.7303 32.0059 12.6562 31.8271 12.6562 31.6406C12.6562 31.4541 12.7303 31.2753 12.8622 31.1434C12.9941 31.0116 13.1729 30.9375 13.3594 30.9375H26.0156C26.2021 30.9375 26.3809 31.0116 26.5128 31.1434C26.6447 31.2753 26.7188 31.4541 26.7188 31.6406C26.7188 31.8271 26.6447 32.0059 26.5128 32.1378C26.3809 32.2697 26.2021 32.3438 26.0156 32.3438Z" fill="#FD9800"/>
<path d="M10.5469 35.1562H9.14062C8.95414 35.1562 8.7753 35.0822 8.64344 34.9503C8.51158 34.8184 8.4375 34.6396 8.4375 34.4531C8.4375 34.2666 8.51158 34.0878 8.64344 33.9559C8.7753 33.8241 8.95414 33.75 9.14062 33.75H10.5469C10.7334 33.75 10.9122 33.8241 11.0441 33.9559C11.1759 34.0878 11.25 34.2666 11.25 34.4531C11.25 34.6396 11.1759 34.8184 11.0441 34.9503C10.9122 35.0822 10.7334 35.1562 10.5469 35.1562Z" fill="#FD9800"/>
<path d="M26.0156 35.1562H13.3594C13.1729 35.1562 12.9941 35.0822 12.8622 34.9503C12.7303 34.8184 12.6562 34.6396 12.6562 34.4531C12.6562 34.2666 12.7303 34.0878 12.8622 33.9559C12.9941 33.8241 13.1729 33.75 13.3594 33.75H26.0156C26.2021 33.75 26.3809 33.8241 26.5128 33.9559C26.6447 34.0878 26.7188 34.2666 26.7188 34.4531C26.7188 34.6396 26.6447 34.8184 26.5128 34.9503C26.3809 35.0822 26.2021 35.1562 26.0156 35.1562Z" fill="#FD9800"/>
</svg>
