<svg width="14" height="12" viewBox="0 0 14 12" fill="none" xmlns="http://www.w3.org/2000/svg">
<path d="M2.45 0.400024C1.87031 0.400024 1.4 0.870337 1.4 1.45002V2.50002H0.35C0.1575 2.50002 0 2.65752 0 2.85002C0 3.04252 0.1575 3.20002 0.35 3.20002H1.4H5.95C6.1425 3.20002 6.3 3.35752 6.3 3.55002C6.3 3.74252 6.1425 3.90002 5.95 3.90002H1.4H1.05C0.8575 3.90002 0.7 4.05752 0.7 4.25002C0.7 4.44252 0.8575 4.60002 1.05 4.60002H1.4H5.25C5.4425 4.60002 5.6 4.75752 5.6 4.95002C5.6 5.14252 5.4425 5.30002 5.25 5.30002H1.4H0.35C0.1575 5.30002 0 5.45752 0 5.65002C0 5.84252 0.1575 6.00002 0.35 6.00002H1.4H4.55C4.7425 6.00002 4.9 6.15752 4.9 6.35002C4.9 6.54252 4.7425 6.70002 4.55 6.70002H1.4V9.50002C1.4 10.6594 2.34063 11.6 3.5 11.6C4.65937 11.6 5.6 10.6594 5.6 9.50002H8.4C8.4 10.6594 9.34062 11.6 10.5 11.6C11.6594 11.6 12.6 10.6594 12.6 9.50002H13.3C13.6872 9.50002 14 9.18721 14 8.80002C14 8.41284 13.6872 8.10002 13.3 8.10002V6.70002V6.00002V5.59096C13.3 5.21909 13.1534 4.86252 12.8909 4.60002L11.2 2.90909C10.9375 2.64659 10.5809 2.50002 10.2091 2.50002H9.1V1.45002C9.1 0.870337 8.62969 0.400024 8.05 0.400024H2.45ZM11.9 5.59096V6.00002H9.1V3.90002H10.2091L11.9 5.59096ZM3.5 8.45002C3.77848 8.45002 4.04555 8.56065 4.24246 8.75756C4.43938 8.95448 4.55 9.22155 4.55 9.50002C4.55 9.7785 4.43938 10.0456 4.24246 10.2425C4.04555 10.4394 3.77848 10.55 3.5 10.55C3.22152 10.55 2.95445 10.4394 2.75754 10.2425C2.56062 10.0456 2.45 9.7785 2.45 9.50002C2.45 9.22155 2.56062 8.95448 2.75754 8.75756C2.95445 8.56065 3.22152 8.45002 3.5 8.45002ZM9.45 9.50002C9.45 9.22155 9.56062 8.95448 9.75754 8.75756C9.95445 8.56065 10.2215 8.45002 10.5 8.45002C10.7785 8.45002 11.0455 8.56065 11.2425 8.75756C11.4394 8.95448 11.55 9.22155 11.55 9.50002C11.55 9.7785 11.4394 10.0456 11.2425 10.2425C11.0455 10.4394 10.7785 10.55 10.5 10.55C10.2215 10.55 9.95445 10.4394 9.75754 10.2425C9.56062 10.0456 9.45 9.7785 9.45 9.50002Z" fill="#fff"/>
</svg>
