<svg width="21" height="20" viewBox="0 0 21 20" fill="none" xmlns="http://www.w3.org/2000/svg">
<g clip-path="url(#clip0_5_6104)">
<path d="M10.2857 10C11.3028 10 12.2972 9.70676 13.1429 9.15735C13.9886 8.60794 14.6478 7.82705 15.0371 6.91342C15.4263 5.99979 15.5282 4.99446 15.3297 4.02455C15.1313 3.05465 14.6415 2.16373 13.9222 1.46447C13.203 0.765206 12.2866 0.289002 11.289 0.0960758C10.2914 -0.0968503 9.25733 0.00216643 8.31759 0.380605C7.37786 0.759043 6.57465 1.39991 6.00955 2.22215C5.44445 3.0444 5.14282 4.0111 5.14282 5C5.14418 6.32568 5.68646 7.59668 6.65063 8.53407C7.61481 9.47147 8.92213 9.99868 10.2857 10ZM10.2857 1.66667C10.9638 1.66667 11.6267 1.86217 12.1905 2.22844C12.7543 2.59471 13.1938 3.1153 13.4533 3.72439C13.7128 4.33348 13.7807 5.0037 13.6484 5.6503C13.5161 6.29691 13.1895 6.89085 12.71 7.35702C12.2306 7.8232 11.6196 8.14067 10.9546 8.26929C10.2895 8.3979 9.60011 8.33189 8.97362 8.0796C8.34713 7.82731 7.81166 7.40007 7.43493 6.8519C7.05819 6.30374 6.85711 5.65927 6.85711 5C6.85711 4.11595 7.21833 3.2681 7.86131 2.64298C8.5043 2.01786 9.37637 1.66667 10.2857 1.66667V1.66667Z" fill="#131921"/>
<path d="M10.2857 11.6672C8.24044 11.6694 6.2796 12.4603 4.83338 13.8664C3.38716 15.2724 2.57368 17.1788 2.57141 19.1672C2.57141 19.3883 2.66172 19.6002 2.82246 19.7565C2.98321 19.9128 3.20123 20.0006 3.42855 20.0006C3.65588 20.0006 3.8739 19.9128 4.03465 19.7565C4.19539 19.6002 4.2857 19.3883 4.2857 19.1672C4.2857 17.6201 4.91784 16.1364 6.04306 15.0424C7.16827 13.9485 8.6944 13.3339 10.2857 13.3339C11.877 13.3339 13.4031 13.9485 14.5283 15.0424C15.6536 16.1364 16.2857 17.6201 16.2857 19.1672C16.2857 19.3883 16.376 19.6002 16.5367 19.7565C16.6975 19.9128 16.9155 20.0006 17.1428 20.0006C17.3702 20.0006 17.5882 19.9128 17.7489 19.7565C17.9097 19.6002 18 19.3883 18 19.1672C17.9977 17.1788 17.1842 15.2724 15.738 13.8664C14.2918 12.4603 12.331 11.6694 10.2857 11.6672V11.6672Z" fill="#131921"/>
</g>
<defs>
<clipPath id="clip0_5_6104">
<rect width="20.5714" height="20" fill="white"/>
</clipPath>
</defs>
</svg>
