<svg width="50" height="17" viewBox="0 0 50 17" fill="none" xmlns="http://www.w3.org/2000/svg">
<path d="M18.9847 0.283985L12.4396 15.9018H8.16777L4.94922 3.43916C4.75107 2.67051 4.58174 2.39092 3.9876 2.06455C3.01436 1.53838 1.41348 1.04473 0 0.737402L0.0989258 0.284082H6.97187C7.84844 0.284082 8.63652 0.86875 8.83467 1.87666L10.5365 10.9159L14.74 0.284082L18.9847 0.283985ZM35.7177 10.8004C35.7366 6.68067 30.0172 6.45645 30.0583 4.61338C30.0694 4.05078 30.6026 3.45547 31.7704 3.30518C32.3503 3.22803 33.9461 3.17149 35.7548 4.00186L36.4637 0.691503C35.4905 0.338281 34.2396 0 32.685 0C28.6919 0 25.8809 2.12393 25.8571 5.16289C25.831 7.41025 27.8627 8.66426 29.3952 9.41269C30.9688 10.1785 31.495 10.6675 31.4895 11.3543C31.4791 12.4025 30.2339 12.8606 29.0724 12.8813C27.0406 12.9129 25.8622 12.3322 24.9211 11.8939L24.1896 15.3181C25.1322 15.7509 26.8776 16.1267 28.6839 16.1488C32.9279 16.1486 35.7043 14.0474 35.7177 10.8004ZM46.2625 15.9019H50L46.7388 0.284082H43.2885C42.5132 0.284082 41.8596 0.736231 41.5685 1.42891L35.5097 15.9019H39.7504L40.5922 13.5694H45.776L46.2625 15.9019ZM41.7543 10.3684L43.8817 4.5042L45.1057 10.3684H41.7543ZM24.7583 0.283985L21.4155 15.9018H17.3746L20.7182 0.283985H24.7583Z" fill="white"/>
</svg>
