<svg width="20" height="20" viewBox="0 0 20 20" fill="none" xmlns="http://www.w3.org/2000/svg">
<path d="M15.8333 2.50028H10.3933C10.2645 2.50114 10.1371 2.47264 10.0208 2.41695L7.39083 1.09695C7.04366 0.924072 6.66117 0.83394 6.27333 0.833618H4.16667C3.062 0.834941 2.00296 1.27435 1.22185 2.05547C0.440735 2.83658 0.00132321 3.89562 0 5.00029L0 15.0003C0.00132321 16.1049 0.440735 17.164 1.22185 17.9451C2.00296 18.7262 3.062 19.1656 4.16667 19.167H15.8333C16.938 19.1656 17.997 18.7262 18.7782 17.9451C19.5593 17.164 19.9987 16.1049 20 15.0003V6.66695C19.9987 5.56229 19.5593 4.50325 18.7782 3.72213C17.997 2.94102 16.938 2.50161 15.8333 2.50028V2.50028ZM4.16667 2.50028H6.27333C6.40221 2.49943 6.5296 2.52793 6.64583 2.58362L9.27583 3.89945C9.62266 4.07377 10.0052 4.16534 10.3933 4.16695H15.8333C16.3317 4.16777 16.8184 4.31751 17.2311 4.59696C17.6437 4.87641 17.9634 5.27282 18.1492 5.73529L1.66667 5.82862V5.00029C1.66667 4.33724 1.93006 3.70136 2.3989 3.23252C2.86774 2.76368 3.50363 2.50028 4.16667 2.50028V2.50028ZM15.8333 17.5003H4.16667C3.50363 17.5003 2.86774 17.2369 2.3989 16.7681C1.93006 16.2992 1.66667 15.6633 1.66667 15.0003V7.49529L18.3333 7.40112V15.0003C18.3333 15.6633 18.0699 16.2992 17.6011 16.7681C17.1323 17.2369 16.4964 17.5003 15.8333 17.5003Z" fill="#FD9800"/>
</svg>
