<svg width="14" height="14" viewBox="0 0 14 14" fill="none" xmlns="http://www.w3.org/2000/svg">
<g clip-path="url(#clip0_75_259)">
<path d="M10.2083 1.11829C9.55146 1.1285 8.90892 1.31187 8.3456 1.64986C7.78227 1.98785 7.31811 2.46851 6.99999 3.04329C6.68186 2.46851 6.2177 1.98785 5.65437 1.64986C5.09105 1.31187 4.44851 1.1285 3.79165 1.11829C2.74453 1.16378 1.75798 1.62185 1.04753 2.39242C0.337071 3.16299 -0.0395353 4.18343 -1.4158e-05 5.23079C-1.4158e-05 7.8832 2.79182 10.78 5.13332 12.7441C5.65611 13.1834 6.31711 13.4243 6.99999 13.4243C7.68286 13.4243 8.34386 13.1834 8.86665 12.7441C11.2082 10.78 14 7.8832 14 5.23079C14.0395 4.18343 13.6629 3.16299 12.9524 2.39242C12.242 1.62185 11.2554 1.16378 10.2083 1.11829Z" fill="#FF3131"/>
</g>
<defs>
<clipPath id="clip0_75_259">
<rect width="14" height="14" fill="white"/>
</clipPath>
</defs>
</svg>
