<svg width="14" height="13" viewBox="0 0 14 13" fill="none" xmlns="http://www.w3.org/2000/svg">
<path d="M10.2082 0.118225C9.55136 0.128442 8.90883 0.311806 8.34551 0.6498C7.78218 0.987794 7.31802 1.46845 6.99989 2.04323C6.68177 1.46845 6.21761 0.987794 5.65428 0.6498C5.09096 0.311806 4.44842 0.128442 3.79156 0.118225C2.74444 0.16372 1.75789 0.62179 1.04743 1.39236C0.336979 2.16293 -0.0396269 3.18337 -0.000105711 4.23073C-0.000105711 6.88314 2.79173 9.77998 5.13323 11.7441C5.65602 12.1834 6.31702 12.4242 6.99989 12.4242C7.68277 12.4242 8.34377 12.1834 8.86656 11.7441C11.2081 9.77998 13.9999 6.88314 13.9999 4.23073C14.0394 3.18337 13.6628 2.16293 12.9524 1.39236C12.2419 0.62179 11.2553 0.16372 10.2082 0.118225Z" fill="#7D899D"/>
</svg>
